<svg xmlns="http://www.w3.org/2000/svg" xmlns:xlink="http://www.w3.org/1999/xlink" viewBox="0 0 1411.97 1261.85"><defs><style>.cls-1{fill:none;}.cls-2{opacity:0.1;}.cls-3{clip-path:url(#clip-path);}.cls-4{fill:url(#linear-gradient);}.cls-5{fill:url(#linear-gradient-2);}.cls-6{fill:url(#linear-gradient-3);}.cls-7{fill:url(#linear-gradient-4);}.cls-8{fill:url(#linear-gradient-5);}.cls-9{fill:url(#linear-gradient-6);}</style><clipPath id="clip-path"><rect class="cls-1" x="89.11" y="242.02" width="1125" height="812"/></clipPath><linearGradient id="linear-gradient" x1="-6912.35" y1="3158.89" x2="-6917.23" y2="3121.71" gradientTransform="matrix(-17.69, 0, 0, 14.22, -121033.33, -44683.54)" gradientUnits="userSpaceOnUse"><stop offset="0" stop-color="#fe0"/><stop offset="0.3" stop-color="#ffdf00"/><stop offset="0.66" stop-color="#ffd300"/><stop offset="1" stop-color="#ffd000"/></linearGradient><linearGradient id="linear-gradient-2" x1="-6903.17" y1="2961.26" x2="-6908.05" y2="2924.09" gradientTransform="matrix(-17.69, 0, 0, 14.22, -121061.34, -44682.24)" gradientUnits="userSpaceOnUse"><stop offset="0" stop-color="#fe0"/><stop offset="0.02" stop-color="#ffec00"/><stop offset="0.35" stop-color="gold"/><stop offset="0.68" stop-color="#ffcb00"/><stop offset="1" stop-color="#ffc700"/></linearGradient><linearGradient id="linear-gradient-3" x1="-12895" y1="3646.71" x2="-12893.33" y2="3509.56" gradientTransform="translate(-11976.22 3656.35) rotate(180)" xlink:href="#linear-gradient"/><linearGradient id="linear-gradient-4" x1="-6888.65" y1="3222.23" x2="-6893.53" y2="3185.05" xlink:href="#linear-gradient"/><linearGradient id="linear-gradient-5" x1="-6879.46" y1="3024.6" x2="-6884.34" y2="2987.43" xlink:href="#linear-gradient-2"/><linearGradient id="linear-gradient-6" x1="-12475.76" y1="2746.3" x2="-12474.09" y2="2609.14" gradientTransform="translate(-11976.22 3656.35) rotate(180)" xlink:href="#linear-gradient"/></defs><title>bg-animate</title><g id="Capa_2" data-name="Capa 2"><g id="Capa_1-2" data-name="Capa 1"><g class="cls-2"><g class="cls-3"><g id="Grupo_1-3" data-name="Grupo 1-3"><path id="Trazado_15-9" data-name="Trazado 15-9" class="cls-4" d="M1075.93,109.78l74.1-74.1a121.81,121.81,0,0,1,172.26,0h0s82.45,67,89.67,74.1c-62.22,10.64-175.82,160.32-175.82,160.32Z"/><path id="Trazado_16-9" data-name="Trazado 16-9" class="cls-5" d="M755.27,109.78l-74.1-74.1a121.83,121.83,0,0,0-172.27,0s-82.44,67-89.66,74.1C481.46,120.42,595,270.1,595,270.1Z"/><path id="Trazado_17-9" data-name="Trazado 17-9" class="cls-6" d="M915.63,270.1l160.3-160.3,160.3,160.3-42.58,42.58a166.48,166.48,0,0,1-235.43,0Zm160.3-160.3L1048,81.89c-73.13-73.13-191.69-73.13-264.82,0L755.29,109.8,915.61,270.08ZM637.57,312.68a166.47,166.47,0,0,0,235.42,0l42.58-42.58L755.27,109.8,595,270.1Z"/></g><g id="Grupo_1-3-2" data-name="Grupo 1-3"><path id="Trazado_15-9-2" data-name="Trazado 15-9" class="cls-7" d="M656.69,1010.19l74.09-74.1a121.82,121.82,0,0,1,172.27,0h0s82.46,67,89.68,74.1c-62.22,10.64-175.82,160.32-175.82,160.32Z"/><path id="Trazado_16-9-2" data-name="Trazado 16-9" class="cls-8" d="M336,1010.19l-74.1-74.1a121.83,121.83,0,0,0-172.27,0s-82.44,67-89.66,74.1c62.22,10.64,175.8,160.32,175.8,160.32Z"/><path id="Trazado_17-9-2" data-name="Trazado 17-9" class="cls-9" d="M496.39,1170.51l160.3-160.3L817,1170.51l-42.58,42.58a166.48,166.48,0,0,1-235.43,0Zm160.3-160.3L628.78,982.3c-73.13-73.12-191.69-73.12-264.82,0l-27.91,27.91,160.32,160.28ZM218.33,1213.09a166.47,166.47,0,0,0,235.42,0l42.58-42.58L336,1010.21l-160.3,160.3Z"/></g></g></g></g></g></svg>