<svg xmlns="http://www.w3.org/2000/svg" xmlns:xlink="http://www.w3.org/1999/xlink" viewBox="0 0 375 812"><defs><style>.cls-1{opacity:0.15;}.cls-2{fill:url(#linear-gradient);}.cls-3{fill:url(#linear-gradient-2);}.cls-4{fill:url(#linear-gradient-3);}.cls-5{fill:url(#linear-gradient-4);}</style><linearGradient id="linear-gradient" x1="136.61" y1="22.04" x2="128.67" y2="-38.43" gradientUnits="userSpaceOnUse"><stop offset="0" stop-color="#fe0"/><stop offset="0.3" stop-color="#ffdf00"/><stop offset="0.66" stop-color="#ffd300"/><stop offset="1" stop-color="#ffd000"/></linearGradient><linearGradient id="linear-gradient-2" x1="264.34" y1="100.96" x2="228.92" y2="-168.82" xlink:href="#linear-gradient"/><linearGradient id="linear-gradient-3" x1="270.14" y1="799.08" x2="229.75" y2="491.5" xlink:href="#linear-gradient"/><linearGradient id="linear-gradient-4" x1="96.87" y1="794.51" x2="60.09" y2="514.45" xlink:href="#linear-gradient"/></defs><title>bg</title><g id="Capa_2" data-name="Capa 2"><g id="Capa_1-2" data-name="Capa 1"><g class="cls-1"><path class="cls-2" d="M108.5,0c13.49,16.32,22,27.54,22.4,28l28-28Z"/><path class="cls-3" d="M159,0,130.94,28.08l0,0,0,0,42.6,42.58A166.54,166.54,0,0,0,375,96.8V0Z"/><path class="cls-4" d="M266.68,694.07l-74.1,74.1,32.33,32.36-32.33-32.34L148.77,812H375V660.43A121.67,121.67,0,0,0,266.68,694.07Z"/><path class="cls-5" d="M0,688.23V812H148.76l43.82-43.81-27.91-27.91A187,187,0,0,0,0,688.23Z"/></g></g></g></svg>