<svg xmlns="http://www.w3.org/2000/svg" viewBox="0 0 27.4 20.55"><defs><style>.cls-1{fill:#313131;}</style></defs><title>ico-hide</title><g id="Capa_2" data-name="Capa 2"><g id="Capa_1-2" data-name="Capa 1"><path class="cls-1" d="M19.34,12.19a6.62,6.62,0,0,0,1.21-3.87A7.55,7.55,0,0,0,20.43,7l-4.28,7.68A6.71,6.71,0,0,0,19.34,12.19Z"/><path class="cls-1" d="M20,1.62a.42.42,0,0,0,0-.14.47.47,0,0,0-.24-.41l-.3-.18L19,.61,18.45.33,18,.09A.81.81,0,0,0,17.71,0a.47.47,0,0,0-.43.24l-.83,1.49a14.38,14.38,0,0,0-2.75-.26A14.43,14.43,0,0,0,6.12,3.55,17.66,17.66,0,0,0,.31,9.22a2,2,0,0,0,0,2.11,18.16,18.16,0,0,0,3.18,3.75,15.75,15.75,0,0,0,4,2.64,5.73,5.73,0,0,0-.67,1.33.49.49,0,0,0,.24.43,13.64,13.64,0,0,0,2.05,1.07.47.47,0,0,0,.43-.25l.75-1.36q1.62-2.88,4.83-8.66T20,1.62ZM8.49,16A15,15,0,0,1,2,10.28a15,15,0,0,1,5.82-5.4,6.81,6.81,0,0,0-.18,6.54,6.69,6.69,0,0,0,2.08,2.43ZM14.22,4.92a.69.69,0,0,1-.52.22,3.18,3.18,0,0,0-3.18,3.18.73.73,0,0,1-.73.73.7.7,0,0,1-.52-.21.69.69,0,0,1-.22-.52A4.47,4.47,0,0,1,10.42,5,4.47,4.47,0,0,1,13.7,3.67a.72.72,0,0,1,.52.21.73.73,0,0,1,.21.52A.7.7,0,0,1,14.22,4.92Z"/><path class="cls-1" d="M27.09,9.22a14.49,14.49,0,0,0-2.21-2.81,17.67,17.67,0,0,0-2.79-2.34l-1,1.71a15.66,15.66,0,0,1,4.31,4.49A15.66,15.66,0,0,1,20.83,15a12.68,12.68,0,0,1-6,2.09l-1.13,2a14.57,14.57,0,0,0,6.41-1.45,16.51,16.51,0,0,0,5.32-4.08,17.14,17.14,0,0,0,1.66-2.22,2,2,0,0,0,0-2.11Z"/></g></g></svg>