<svg xmlns="http://www.w3.org/2000/svg" viewBox="0 0 20.43 19.27"><defs><style>.cls-1{fill:#313131;}</style></defs><title>ico-back</title><g id="Capa_2" data-name="Capa 2"><g id="Capa_1-2" data-name="Capa 1"><path id="Icon_ionic-md-arrow-round-back" data-name="Icon ionic-md-arrow-round-back" class="cls-1" d="M18.66,7.78H6.24l4.82-4.61a1.93,1.93,0,0,0,0-2.63A1.73,1.73,0,0,0,8.63.46L8.55.54l-8,7.79A1.79,1.79,0,0,0,0,9.63v0A1.79,1.79,0,0,0,.52,11l8,7.78a1.72,1.72,0,0,0,2.43.08l.08-.08a1.92,1.92,0,0,0,0-2.62L6.23,11.5H18.66a1.82,1.82,0,0,0,1.77-1.86h0A1.79,1.79,0,0,0,18.7,7.78Z"/></g></g></svg>