<svg xmlns="http://www.w3.org/2000/svg" viewBox="0 0 17.07 22.23"><defs><style>.cls-1{fill:#808080;}</style></defs><title>ico-lock</title><g id="Capa_2" data-name="Capa 2"><g id="Capa_1-2" data-name="Capa 1"><path class="cls-1" d="M1.92,6.68V9H1.76A1.76,1.76,0,0,0,0,10.76v9.71a1.76,1.76,0,0,0,1.76,1.76H15.31a1.76,1.76,0,0,0,1.76-1.76V10.76A1.77,1.77,0,0,0,15.31,9h-.05V6.67a6.67,6.67,0,1,0-13.34,0Zm7.66,9.37a.35.35,0,0,0-.17.35v2.13h0a.74.74,0,0,1-.4.72.83.83,0,0,1-1.24-.72h0V16.39a.36.36,0,0,0-.16-.34,1.63,1.63,0,0,1-.53-2,1.67,1.67,0,0,1,1.8-1,1.65,1.65,0,0,1,1.37,1.61A1.59,1.59,0,0,1,9.58,16.05ZM4.84,6.68a3.75,3.75,0,0,1,7.5,0V9H4.84Z"/></g></g></svg>