<svg xmlns="http://www.w3.org/2000/svg" viewBox="0 0 27.41 17.62"><defs><style>.cls-1{fill:#313131;}</style></defs><title>ico-show</title><g id="Capa_2" data-name="Capa 2"><g id="Capa_1-2" data-name="Capa 1"><path class="cls-1" d="M27.11,7.76a16.27,16.27,0,0,0-5.76-5.63,14.77,14.77,0,0,0-15.28,0A16.11,16.11,0,0,0,.31,7.76,2,2,0,0,0,0,8.81,2.08,2.08,0,0,0,.31,9.87,16.27,16.27,0,0,0,6.07,15.5a14.88,14.88,0,0,0,7.64,2.12,14.84,14.84,0,0,0,7.64-2.12,16.27,16.27,0,0,0,5.76-5.63,2.16,2.16,0,0,0,.3-1.06A2.1,2.1,0,0,0,27.11,7.76ZM10.42,3.57A4.51,4.51,0,0,1,13.71,2.2a.73.73,0,0,1,.73.74.72.72,0,0,1-.73.73,3.06,3.06,0,0,0-2.25.93,3.11,3.11,0,0,0-.94,2.25.7.7,0,0,1-.21.52.72.72,0,0,1-1,0,.7.7,0,0,1-.21-.52A4.48,4.48,0,0,1,10.42,3.57Zm9.93,10.24a12.86,12.86,0,0,1-13.29,0,15.7,15.7,0,0,1-5.1-5,15,15,0,0,1,5.83-5.4,6.62,6.62,0,0,0-.94,3.44,6.59,6.59,0,0,0,2,4.84,6.6,6.6,0,0,0,4.85,2,6.58,6.58,0,0,0,4.84-2,6.59,6.59,0,0,0,2-4.84,6.7,6.7,0,0,0-.93-3.44,15,15,0,0,1,5.82,5.4A15.7,15.7,0,0,1,20.35,13.81Z"/></g></g></svg>