<svg xmlns="http://www.w3.org/2000/svg" viewBox="0 0 20.43 20.43"><defs><style>.cls-1{fill:#313131;}</style></defs><title>ico-phone</title><g id="Capa_2" data-name="Capa 2"><g id="Capa_1-2" data-name="Capa 1"><path class="cls-1" d="M18.79,13.41a11.7,11.7,0,0,1-3.64-.58,1.67,1.67,0,0,0-1.62.34l-2.3,1.74A12.82,12.82,0,0,1,5.52,9.2L7.21,7a1.66,1.66,0,0,0,.4-1.67A11.81,11.81,0,0,1,7,1.64,1.64,1.64,0,0,0,5.39,0H1.64A1.65,1.65,0,0,0,0,1.64,18.81,18.81,0,0,0,18.79,20.43a1.65,1.65,0,0,0,1.64-1.64V15.05A1.65,1.65,0,0,0,18.79,13.41Z"/></g></g></svg>