<?xml version="1.0" encoding="iso-8859-1"?>
<!-- Generator: Adobe Illustrator 19.0.0, SVG Export Plug-In . SVG Version: 6.00 Build 0)  -->
<svg version="1.1" id="Capa_1" xmlns="http://www.w3.org/2000/svg" xmlns:xlink="http://www.w3.org/1999/xlink" x="0px" y="0px"
	 viewBox="0 0 416.392 416.392" style="enable-background:new 0 0 416.392 416.392;" xml:space="preserve">
<g>
	<g>
		<g>
			<path d="M290.245,62.67c-0.357,0-0.713,0.008-1.069,0.024H64.522c-12.394-0.577-22.909,9.002-23.486,21.396
				c-0.017,0.356-0.025,0.713-0.024,1.069v323.918l30.302-28.212c5.101-4.408,12.663-4.408,17.763,0l39.706,35.526l39.184-35.526
				c5.178-4.196,12.586-4.196,17.763,0l39.184,35.526l39.706-35.526c5.101-4.408,12.663-4.408,17.763,0l30.302,28.212V85.159
				C312.699,72.752,302.652,62.683,290.245,62.67z M112.065,141.061h66.873c4.328,0,7.837,3.509,7.837,7.837
				c0,4.328-3.509,7.837-7.837,7.837h-66.873c-4.328,0-7.837-3.509-7.837-7.837C104.229,144.57,107.737,141.061,112.065,141.061z
				 M241.633,292.571H112.065c-4.328,0-7.837-3.509-7.837-7.837c0-4.328,3.509-7.837,7.837-7.837h129.567
				c4.328,0,7.837,3.509,7.837,7.837C249.469,289.063,245.961,292.571,241.633,292.571z M241.633,224.653H112.065
				c-4.328,0-7.837-3.509-7.837-7.837s3.509-7.837,7.837-7.837h129.567c4.328,0,7.837,3.509,7.837,7.837
				S245.961,224.653,241.633,224.653z"/>
			<path d="M351.869,0H127.216c-13.068,0.284-23.513,10.961-23.51,24.033V47.02h185.469c21.35-0.29,38.893,16.782,39.184,38.132
				c0,0.002,0,0.005,0,0.007v233.535c5.032-3.684,11.926-3.469,16.718,0.522l30.302,28.212V24.033
				C375.383,10.961,364.938,0.284,351.869,0z"/>
		</g>
	</g>
</g>
<g>
</g>
<g>
</g>
<g>
</g>
<g>
</g>
<g>
</g>
<g>
</g>
<g>
</g>
<g>
</g>
<g>
</g>
<g>
</g>
<g>
</g>
<g>
</g>
<g>
</g>
<g>
</g>
<g>
</g>
</svg>
