<svg xmlns="http://www.w3.org/2000/svg" viewBox="0 0 464.05 512"><defs><style>.cls-1{fill:#313131;}.cls-2{fill:gray;}.cls-3{fill:#fe0;}.cls-4,.cls-7{fill:#ffd000;}.cls-5{fill:#fafafa;}.cls-6{fill:#e6e6e6;}.cls-7{font-size:12px;font-family:MyriadPro-Regular, Myriad Pro;}.cls-8{letter-spacing:-0.01em;}</style></defs><title>ico-promo</title><g id="Capa_2" data-name="Capa 2"><g id="Capa_1-2" data-name="Capa 1"><path class="cls-1" d="M254.06,404.64l-21.85,21.84a15.45,15.45,0,0,1-21.85-21.84l21.85-21.85a15.46,15.46,0,0,0,0-21.85l-20.09-20.08A15.45,15.45,0,0,1,234,319l20.09,20.09A46.4,46.4,0,0,1,254.06,404.64Z"/><path class="cls-2" d="M286.83,503h0a30.88,30.88,0,0,1-43.69,0L133.9,393.71,177.59,350,286.83,459.26A30.88,30.88,0,0,1,286.83,503Z"/><path class="cls-3" d="M133,261.75l67.73,67.73-1.31,42.39L123,448.33c-18.13,18.13-47.84,17.7-66-.44L13.3,404.2c-17.91-17.92-17.7-47,.44-65.11L90.2,262.63Z"/><path class="cls-4" d="M166.67,295.4l34.08,34.08-1.31,42.39L123,448.33c-18.13,18.14-47.84,17.7-66-.44L35.58,426.48Z"/><path class="cls-3" d="M325,61.8a15.45,15.45,0,0,1-15.45-15.45V15.45a15.45,15.45,0,0,1,30.9,0v30.9A15.44,15.44,0,0,1,325,61.8Z"/><path class="cls-3" d="M448.61,154.49H417.7a15.45,15.45,0,0,1,0-30.89h30.91a15.45,15.45,0,0,1,0,30.89Z"/><path class="cls-3" d="M428.84,33.23a15.3,15.3,0,0,1,0,21.85L396.07,87.85A15.45,15.45,0,1,1,374.22,66L407,33.23A15.3,15.3,0,0,1,428.84,33.23Z"/><path class="cls-5" d="M243.14,66,396.07,218.93c4.37,4.37,9.83,50.47,15.51,51.35l-43,9c-63.79,12.67-124.31,47.85-165.38,88.92l-3.72,3.72L90.2,262.63l3.72-3.72c43.26-43.25,75.15-100.5,88.26-166l9-44.78Z"/><path class="cls-5" d="M123,339.09a15.3,15.3,0,0,1,0,21.85l-21.84,21.85a15.45,15.45,0,0,1-21.85-21.85l21.85-21.84A15.29,15.29,0,0,1,123,339.09Z"/><path class="cls-6" d="M319.6,142.47l76.47,76.46c4.37,4.37,9.83,50.47,15.51,51.35l-43,9c-63.79,12.67-124.31,47.85-165.38,88.92l-3.72,3.72-54.62-54.62Z"/><path class="cls-6" d="M123,339.09a15.3,15.3,0,0,1,0,21.85l-21.84,21.85a15.3,15.3,0,0,1-21.85,0Z"/><path class="cls-3" d="M243.14,22.31,439.76,218.93a31,31,0,0,1,0,43.7,18.19,18.19,0,0,1-4.81,3.06,28.87,28.87,0,0,1-23.37,4.59,27.56,27.56,0,0,1-15.51-7.65L199.44,66c-5-5-7.43-11.36-8.3-17.91a30.56,30.56,0,0,1,3.71-19c1.53-2.4,2.62-4.81,4.59-6.77A31,31,0,0,1,243.14,22.31Z"/><path class="cls-4" d="M341.45,120.62l98.31,98.31a31,31,0,0,1,0,43.7,18.19,18.19,0,0,1-4.81,3.06,28.87,28.87,0,0,1-23.37,4.58,27.49,27.49,0,0,1-15.51-7.64l-98.32-98.31Z"/><text class="cls-7" transform="translate(213.1 260.3)"><tspan class="cls-8">ff</tspan><tspan x="6.84" y="0">d000</tspan></text></g></g></svg>