<svg xmlns="http://www.w3.org/2000/svg" viewBox="0 0 16.89 22.21"><defs><style>.cls-1{fill:#313131;}</style></defs><title>ico-user</title><g id="Capa_2" data-name="Capa 2"><g id="Capa_1-2" data-name="Capa 1"><path class="cls-1" d="M8.45,10.86c2.47,0,4.47-2.43,4.47-5.43S12.26,0,8.45,0,4,2.43,4,5.43,6,10.86,8.45,10.86Z"/><path class="cls-1" d="M16.88,18.94c-.08-5.23-.76-6.72-6-7.66a3.1,3.1,0,0,1-2.44.94A3.11,3.11,0,0,1,6,11.28c-5.17.93-5.89,2.4-6,7.49,0,.41,0,.43,0,.39v.55s1.24,2.5,8.45,2.5,8.44-2.5,8.44-2.5V19.3S16.89,19.27,16.88,18.94Z"/></g></g></svg>