<svg xmlns="http://www.w3.org/2000/svg" viewBox="0 0 17.43 17.97"><defs><style>.cls-1{fill:#313131;}</style></defs><title>ico-analytics</title><g id="Capa_2" data-name="Capa 2"><g id="Capa_1-2" data-name="Capa 1"><path class="cls-1" d="M1.5,18A1.5,1.5,0,0,1,0,16.47v-7a1.5,1.5,0,0,1,3,0v7A1.5,1.5,0,0,1,1.5,18Z"/><path class="cls-1" d="M6.31,18a1.5,1.5,0,0,1-1.5-1.5V3.5a1.5,1.5,0,1,1,3,0v13A1.5,1.5,0,0,1,6.31,18Z"/><path class="cls-1" d="M11.12,18a1.5,1.5,0,0,1-1.5-1.5V6.5a1.5,1.5,0,1,1,3,0v10A1.5,1.5,0,0,1,11.12,18Z"/><path class="cls-1" d="M15.93,18a1.5,1.5,0,0,1-1.5-1.5V1.5a1.5,1.5,0,0,1,3,0v15A1.5,1.5,0,0,1,15.93,18Z"/></g></g></svg>