<svg xmlns="http://www.w3.org/2000/svg" xmlns:xlink="http://www.w3.org/1999/xlink" viewBox="0 0 280.22 118.99"><defs><style>.cls-1{fill:none;}.cls-2{clip-path:url(#clip-path);}.cls-3{fill:url(#Degradado_sin_nombre_3);}.cls-4{clip-path:url(#clip-path-2);}.cls-5{fill:url(#Degradado_sin_nombre_3-2);}.cls-6{clip-path:url(#clip-path-3);}.cls-7{fill:url(#Degradado_sin_nombre_3-3);}</style><clipPath id="clip-path"><path class="cls-1" d="M11.42,73.94c.57-.1,3.48,3,3.94,3.39q3.57,3,7.18,5.93c5.55,4.56,10.88,9.71,16.9,13.65a31.66,31.66,0,0,0,39.88-3.75L98.55,73.93,58,33.38S27.55,71.18,11.42,73.94"/></clipPath><linearGradient id="Degradado_sin_nombre_3" x1="-35.89" y1="204.48" x2="-34.89" y2="204.48" gradientTransform="matrix(-136.83, 0, 0, 136.83, -4831.42, -27909.04)" gradientUnits="userSpaceOnUse"><stop offset="0" stop-color="#fcee21"/><stop offset="0.3" stop-color="#fddf11"/><stop offset="0.66" stop-color="#ffd404"/><stop offset="1" stop-color="#ffd000"/></linearGradient><clipPath id="clip-path-2"><path class="cls-1" d="M151.15,21.34l-11,11.05,0,0,0,0s-11-11-11-11C111.45,3.73,81.78,5.56,65.57,24.12c-2.62,3-5,6.2-7.57,9.26L98.55,73.93l7.24,7.24a48.54,48.54,0,0,0,68.64,0l7.24-7.24,40.55-40.55-10-12a43.15,43.15,0,0,0-61,0"/></clipPath><linearGradient id="Degradado_sin_nombre_3-2" x1="-35.89" y1="204.47" x2="-34.89" y2="204.47" gradientTransform="matrix(0, 35.26, 35.26, 0, -7069.75, 1269.95)" xlink:href="#Degradado_sin_nombre_3"/><clipPath id="clip-path-3"><path class="cls-1" d="M181.67,73.93,200.9,93.16c10.73,10.74,27.33,12,39.88,3.75,6-3.94,11.35-9.09,16.9-13.65,2.4-2,4.8-3.94,7.17-5.93.47-.39,3.37-3.49,3.94-3.39-16.13-2.76-46.57-40.56-46.57-40.56Z"/></clipPath><linearGradient id="Degradado_sin_nombre_3-3" x1="-35.89" y1="204.48" x2="-34.89" y2="204.48" gradientTransform="matrix(0, 136.83, -136.83, 0, 28203.52, 4955.66)" xlink:href="#Degradado_sin_nombre_3"/></defs><title>imago</title><g id="Capa_2" data-name="Capa 2"><g id="Capa_1-2" data-name="Capa 1"><g class="cls-2"><rect class="cls-3" x="12.56" y="20.47" width="84.86" height="97.56" transform="translate(-22.23 112.34) rotate(-80.71)"/></g><g class="cls-4"><rect class="cls-5" x="56.93" y="1.88" width="166.37" height="100.1" transform="translate(-1.14 3.2) rotate(-1.3)"/></g><g class="cls-6"><rect class="cls-7" x="176.45" y="26.82" width="97.56" height="84.86" transform="translate(-8.22 37.25) rotate(-9.29)"/></g></g></g></svg>