<svg id="Capa_1" data-name="Capa 1" xmlns="http://www.w3.org/2000/svg" viewBox="0 0 595.3 841.9"><defs><style>.cls-1{fill:#3c3c3b;}.cls-2{fill:#878787;}</style></defs><title>banner-menu-template-next</title><path class="cls-1" d="M550.9,30.3a16.13,16.13,0,0,0,14,14V797.4a16.13,16.13,0,0,0-14,14H44.4a16.13,16.13,0,0,0-14-14V44.4a16.13,16.13,0,0,0,14-14l506.5-.1m1.9-1.9H42.5A14.17,14.17,0,0,1,28.3,42.5V799.3a14.19,14.19,0,0,1,14.2,14.18v0H552.7a14.19,14.19,0,0,1,14.18-14.2h0V42.5a14.08,14.08,0,0,1-14.1-14.06Z"/><path class="cls-2" d="M59.3,785.51H57.9v-7.09h1.4Z"/><path class="cls-2" d="M63.57,783.69l1.85-5.27h1.46l-2.63,7.09H62.83l-2.62-7.09h1.51Z"/><path class="cls-2" d="M72,785.51l-.59-1.62H68.52l-.59,1.62H66.47l2.72-7.09h1.6l2.7,7.09ZM70,780l-1,2.68h2Z"/><path class="cls-2" d="M79.3,785.51H77.93v-4.34H76.37v-.93a2,2,0,0,0,1.17-.36,1.31,1.31,0,0,0,.57-.86H79.3Z"/><path class="cls-2" d="M80.54,782.27a4.16,4.16,0,0,1,.57-2.31,2.41,2.41,0,0,1,2.14-1.09A2.36,2.36,0,0,1,85.38,780a4.91,4.91,0,0,1,0,4.62,2.37,2.37,0,0,1-2.13,1.09,2.41,2.41,0,0,1-2.14-1.09A4.13,4.13,0,0,1,80.54,782.27Zm1.38,0a3.26,3.26,0,0,0,.35,1.65,1.09,1.09,0,0,0,1,.53,1.06,1.06,0,0,0,1-.53,4,4,0,0,0,0-3.3,1.06,1.06,0,0,0-1-.53,1.09,1.09,0,0,0-1,.53A3.26,3.26,0,0,0,81.92,782.27Z"/><path class="cls-2" d="M87.1,781.71a1.54,1.54,0,0,1-.49-1.16,1.58,1.58,0,0,1,.49-1.16,1.68,1.68,0,0,1,2.35,0,1.62,1.62,0,0,1,0,2.32,1.64,1.64,0,0,1-1.18.47A1.6,1.6,0,0,1,87.1,781.71Zm1.65,3.8H87.59L92.17,779h1.16Zm-1.14-5a.66.66,0,0,0,.19.5.63.63,0,0,0,.47.2.66.66,0,0,0,.48-.2.78.78,0,0,0,0-1,.69.69,0,0,0-1,0,.72.72,0,0,0-.19.54Zm3.86,4.59A1.52,1.52,0,0,1,91,784a1.58,1.58,0,0,1,.49-1.16,1.68,1.68,0,0,1,2.35,0,1.62,1.62,0,0,1,0,2.32,1.64,1.64,0,0,1-1.18.47,1.61,1.61,0,0,1-1.19-.49ZM92,784a.74.74,0,0,0,.19.51.69.69,0,0,0,1,0,.73.73,0,0,0,.18-.51.72.72,0,0,0-.18-.5.63.63,0,0,0-.48-.19.63.63,0,0,0-.47.2A.73.73,0,0,0,92,784Z"/><path class="cls-2" d="M99.39,785.51H98v-7.09h1.4Z"/><path class="cls-2" d="M107.06,785.51h-1.45l-3.22-5v5H101v-7.09h1.72l3,4.69v-4.69h1.38Z"/><path class="cls-2" d="M111.89,785.66a3.74,3.74,0,0,1-2.56-6.36,3.53,3.53,0,0,1,2.54-1,3.32,3.32,0,0,1,2.19.69,3,3,0,0,1,1.06,1.66l-1.3.41a1.93,1.93,0,0,0-.63-1,2,2,0,0,0-1.32-.41,2.15,2.15,0,0,0-1.52.62,2.62,2.62,0,0,0,0,3.46,2.14,2.14,0,0,0,1.55.63,1.94,1.94,0,0,0,1.33-.43,2.12,2.12,0,0,0,.66-1l1.29.39a2.82,2.82,0,0,1-.35.84,3.91,3.91,0,0,1-.64.77,3,3,0,0,1-1,.58A3.57,3.57,0,0,1,111.89,785.66Z"/><path class="cls-2" d="M120.86,785.51h-4.54v-7.09h1.38v5.77h3.16Z"/><path class="cls-2" d="M122.12,785.31a.83.83,0,0,1-.27-.64.9.9,0,0,1,.91-.91.92.92,0,0,1,.65.26.89.89,0,0,1,.27.65.83.83,0,0,1-.27.64.89.89,0,0,1-.65.27A.91.91,0,0,1,122.12,785.31Z"/></svg>