<svg id="Capa_1" data-name="Capa 1" xmlns="http://www.w3.org/2000/svg" xmlns:xlink="http://www.w3.org/1999/xlink" viewBox="0 0 416.39 632.93"><defs><style>.cls-1{fill:url(#linear-gradient);}.cls-2{fill:#1e1e1e;}.cls-3{fill:#1d1d1b;}.cls-4{fill:#ffd302;}.cls-5{fill:url(#Nueva_muestra_de_degradado_1);}.cls-6{fill:url(#Nueva_muestra_de_degradado_1-2);}.cls-7{fill:url(#Nueva_muestra_de_degradado_1-3);}.cls-8,.cls-9{fill:none;stroke-miterlimit:10;}.cls-8{stroke:#fff;stroke-width:1.25px;}.cls-9{stroke:#000;stroke-width:0.25px;}</style><linearGradient id="linear-gradient" x1="204.04" y1="331.56" x2="206.51" y2="440.45" gradientUnits="userSpaceOnUse"><stop offset="0" stop-color="#f9ea31"/><stop offset="0.05" stop-color="#fae82d"/><stop offset="0.37" stop-color="#fddb19"/><stop offset="0.69" stop-color="#fed30c"/><stop offset="1" stop-color="#ffd008"/></linearGradient><linearGradient id="Nueva_muestra_de_degradado_1" x1="172.03" y1="85.4" x2="162.13" y2="145.98" xlink:href="#linear-gradient"/><linearGradient id="Nueva_muestra_de_degradado_1-2" x1="207.82" y1="67.09" x2="208.18" y2="82.91" xlink:href="#linear-gradient"/><linearGradient id="Nueva_muestra_de_degradado_1-3" x1="3950.34" y1="85.4" x2="3940.43" y2="145.98" gradientTransform="matrix(-1, 0, 0, 1, 4194.53, 0)" xlink:href="#linear-gradient"/></defs><title>banner-mp-A6</title><path class="cls-1" d="M333.64,449.31h0l-16.79-8.37v47.81a10.45,10.45,0,0,1-10.45,10.45H110a10.45,10.45,0,0,1-10.45-10.45V357a711.49,711.49,0,0,0-75-9.69v261.1H391.89V420.28Z"/><path class="cls-2" d="M83.25,534.88v1.47H77.39v-8.16h5.78v1.46H79v1.79h3.54v1.45H79v2Z"/><path class="cls-2" d="M84.7,536.13a2.21,2.21,0,0,1-.89-1l1.2-.52a1.38,1.38,0,0,0,.55.52,1.64,1.64,0,0,0,.76.18,1.09,1.09,0,0,0,.67-.18.58.58,0,0,0,.24-.48.47.47,0,0,0-.19-.39,2,2,0,0,0-.63-.24l-.42-.1a3.24,3.24,0,0,1-1.48-.66,1.48,1.48,0,0,1-.48-1.16,1.62,1.62,0,0,1,.28-.93,2,2,0,0,1,.8-.67,2.57,2.57,0,0,1,1.16-.25,2.86,2.86,0,0,1,1.37.31,1.93,1.93,0,0,1,.87.87l-1.23.54a1.07,1.07,0,0,0-.45-.39,1.29,1.29,0,0,0-.58-.13,1,1,0,0,0-.61.16.5.5,0,0,0-.22.42.45.45,0,0,0,.2.37,2.18,2.18,0,0,0,.63.24l.39.08a3.31,3.31,0,0,1,1.45.64,1.54,1.54,0,0,1,.52,1.26,1.78,1.78,0,0,1-.29,1,1.92,1.92,0,0,1-.81.7,2.86,2.86,0,0,1-1.2.25A2.89,2.89,0,0,1,84.7,536.13Z"/><path class="cls-2" d="M90.67,536.12a3.14,3.14,0,0,1,0-5.45,3.23,3.23,0,0,1,3.17,0A3.19,3.19,0,0,1,95,531.75l-1.34.6a1.82,1.82,0,0,0-.59-.51,1.65,1.65,0,0,0-.77-.18,1.62,1.62,0,0,0-.87.23,1.72,1.72,0,0,0-.83,1.51,1.73,1.73,0,0,0,.48,1.23,1.75,1.75,0,0,0,2,.31,1.58,1.58,0,0,0,.59-.5L95,535a3.22,3.22,0,0,1-4.31,1.08Z"/><path class="cls-2" d="M99.44,530.52a2,2,0,0,1,.89.75,1.93,1.93,0,0,1,.32,1.08v4H99.53l-.26-.59a1.9,1.9,0,0,1-.72.56,2.47,2.47,0,0,1-1,.2,2.3,2.3,0,0,1-1.59-.53,1.85,1.85,0,0,1,0-2.76,2.84,2.84,0,0,1,1.8-.52h1.4v-.24a.83.83,0,0,0-.33-.69,1.28,1.28,0,0,0-.84-.27,1.66,1.66,0,0,0-1.29.59l-1.21-.54a2.78,2.78,0,0,1,1-.95,3,3,0,0,1,1.54-.37A3.06,3.06,0,0,1,99.44,530.52ZM98.81,535a1.11,1.11,0,0,0,.37-.91v-.38H98a1.55,1.55,0,0,0-.87.22.68.68,0,0,0-.3.59.7.7,0,0,0,.28.59,1.33,1.33,0,0,0,.78.21A1.36,1.36,0,0,0,98.81,535Z"/><path class="cls-2" d="M106.12,530.58a2.13,2.13,0,0,1,1.16,1.94v3.83h-1.46V533a1.37,1.37,0,0,0-.33-1,1.18,1.18,0,0,0-.92-.35,1.24,1.24,0,0,0-.92.36,1.34,1.34,0,0,0-.36,1v3.36h-1.47v-5.91h1.12l.3.66a1.76,1.76,0,0,1,.72-.6,2.28,2.28,0,0,1,1-.21A2.31,2.31,0,0,1,106.12,530.58Z"/><path class="cls-2" d="M114.08,533.84h-4.53a1.72,1.72,0,0,0,.58,1,1.8,1.8,0,0,0,2.47-.27l1.29.58a3,3,0,0,1-2.69,1.39,3.1,3.1,0,0,1-3.12-3.13,3.3,3.3,0,0,1,.39-1.6,2.94,2.94,0,0,1,1.07-1.14,3,3,0,0,1,1.57-.42,3.16,3.16,0,0,1,1.58.39,2.65,2.65,0,0,1,1.06,1.09,3.16,3.16,0,0,1,.38,1.58A2,2,0,0,1,114.08,533.84Zm-4-2a1.61,1.61,0,0,0-.54.93h3.12a1.48,1.48,0,0,0-1.57-1.28A1.51,1.51,0,0,0,110.1,531.87Z"/><path class="cls-2" d="M113.73,538.4v-1.26a2.3,2.3,0,0,0,.37,0,.85.85,0,0,0,.69-.24,1.19,1.19,0,0,0,.2-.74v-5.74h1.46v5.86a2.43,2.43,0,0,1-.5,1.62,1.92,1.92,0,0,1-1.53.59A1.77,1.77,0,0,1,113.73,538.4Zm1.33-9.07a.82.82,0,0,1-.25-.61.84.84,0,0,1,.25-.62.86.86,0,0,1,.63-.26.9.9,0,0,1,.64.26.85.85,0,0,1,.26.62.83.83,0,0,1-.26.6.9.9,0,0,1-.64.26A.85.85,0,0,1,115.06,529.33Z"/><path class="cls-2" d="M121.39,530.52a2.12,2.12,0,0,1,.89.75,1.92,1.92,0,0,1,.31,1.08v4h-1.11l-.27-.59a1.79,1.79,0,0,1-.71.56,2.49,2.49,0,0,1-1,.2,2.33,2.33,0,0,1-1.59-.53,1.76,1.76,0,0,1-.59-1.37,1.69,1.69,0,0,1,.64-1.39,2.82,2.82,0,0,1,1.79-.52h1.41v-.24a.83.83,0,0,0-.33-.69,1.29,1.29,0,0,0-.85-.27,1.64,1.64,0,0,0-1.28.59l-1.21-.54a2.75,2.75,0,0,1,1-.95,3.05,3.05,0,0,1,1.54-.37A3.1,3.1,0,0,1,121.39,530.52Zm-.63,4.51a1.15,1.15,0,0,0,.37-.91v-.38h-1.2a1.51,1.51,0,0,0-.87.22.67.67,0,0,0-.31.59.71.71,0,0,0,.29.59,1.29,1.29,0,0,0,.78.21A1.36,1.36,0,0,0,120.76,535Z"/><path class="cls-2" d="M131.87,533.84h-4.54a1.64,1.64,0,0,0,1.67,1.37,1.69,1.69,0,0,0,1.38-.64l1.3.58a3,3,0,0,1-2.69,1.39,3.07,3.07,0,0,1-2.71-1.54,3.19,3.19,0,0,1-.41-1.59,3.4,3.4,0,0,1,.38-1.6,2.94,2.94,0,0,1,2.64-1.56,3.16,3.16,0,0,1,1.58.39,2.67,2.67,0,0,1,1.07,1.09,3.27,3.27,0,0,1,.38,1.58A2.58,2.58,0,0,1,131.87,533.84Zm-4-2a1.61,1.61,0,0,0-.54.93h3.12a1.6,1.6,0,0,0-.51-.94,1.62,1.62,0,0,0-1.06-.34A1.53,1.53,0,0,0,127.88,531.87Z"/><path class="cls-2" d="M132.76,527.83h1.46v8.52h-1.46Z"/><path class="cls-2" d="M145.83,534.4a4.09,4.09,0,0,1-1.48,1.5l.54,1.22h-1.63l-.32-.69a5.07,5.07,0,0,1-.9.09,4.43,4.43,0,0,1-2.15-.54,4.07,4.07,0,0,1-1.58-1.5,4.23,4.23,0,0,1,1.58-5.93,4.65,4.65,0,0,1,4.31,0,4.31,4.31,0,0,1,1.63,5.85Zm-1.37-.88a2.93,2.93,0,0,0,.27-1.25,2.88,2.88,0,0,0-.35-1.4,2.74,2.74,0,0,0-1-1,2.79,2.79,0,0,0-2.74,0,2.74,2.74,0,0,0-1,1,3.05,3.05,0,0,0,0,2.8,2.63,2.63,0,0,0,1,1A2.58,2.58,0,0,0,142,535h.28l-.9-2H143l.66,1.47A2.61,2.61,0,0,0,144.46,533.52Z"/><path class="cls-2" d="M153.7,532.24a2.54,2.54,0,0,1-1.12,1l1.45,3.16h-1.77L151,533.46h-1.82v2.89h-1.62v-8.16h3.79a3,3,0,0,1,1.43.34,2.56,2.56,0,0,1,1.37,2.27A2.54,2.54,0,0,1,153.7,532.24Zm-4.55-.19h1.93a1.65,1.65,0,0,0,1-.31,1.21,1.21,0,0,0,0-1.83,1.71,1.71,0,0,0-1-.31h-1.93Z"/><path class="cls-2" d="M162.56,530.7a2.78,2.78,0,0,1,1,1.11,3.74,3.74,0,0,1,0,3.16,2.68,2.68,0,0,1-2.52,1.53,2.67,2.67,0,0,1-1-.2,2,2,0,0,1-.81-.59v2.68h-1.46v-7.95h1.12l.3.69a2,2,0,0,1,.81-.63,2.81,2.81,0,0,1,1.08-.21A2.74,2.74,0,0,1,162.56,530.7Zm-.57,3.93a1.77,1.77,0,0,0,.47-1.23,1.74,1.74,0,0,0-.47-1.24,1.57,1.57,0,0,0-1.2-.49,1.54,1.54,0,0,0-1.2.5,1.73,1.73,0,0,0-.47,1.23,1.77,1.77,0,0,0,.47,1.23,1.71,1.71,0,0,0,2.4,0Z"/><path class="cls-2" d="M170.36,533.84h-4.53a1.72,1.72,0,0,0,.58,1,1.69,1.69,0,0,0,1.09.37,1.72,1.72,0,0,0,1.38-.64l1.29.58a3,3,0,0,1-2.69,1.39,3.12,3.12,0,0,1-1.57-.41,3.06,3.06,0,0,1-1.13-1.13,3.1,3.1,0,0,1-.42-1.59,3.3,3.3,0,0,1,.39-1.6,2.86,2.86,0,0,1,1.07-1.14,3,3,0,0,1,1.57-.42,3.16,3.16,0,0,1,1.58.39,2.65,2.65,0,0,1,1.06,1.09,3.16,3.16,0,0,1,.38,1.58A2,2,0,0,1,170.36,533.84Zm-4-2a1.61,1.61,0,0,0-.54.93H169a1.48,1.48,0,0,0-1.57-1.28A1.51,1.51,0,0,0,166.38,531.87Z"/><path class="cls-2" d="M174.82,530.4V532a2.08,2.08,0,0,0-.6-.09,1.34,1.34,0,0,0-1.15.49,2.25,2.25,0,0,0-.35,1.35v2.64h-1.47v-5.91h1.12l.35.78a1.78,1.78,0,0,1,.61-.64,1.9,1.9,0,0,1,1-.24A1.88,1.88,0,0,1,174.82,530.4Z"/><path class="cls-2" d="M183.82,530.44l-2.64,5.91h-1.24l-2.63-5.91h1.62l1.66,3.87,1.67-3.87Z"/><path class="cls-2" d="M184.48,529.33a.83.83,0,0,1-.26-.61.85.85,0,0,1,.26-.62.84.84,0,0,1,.63-.26.9.9,0,0,1,.64.26.85.85,0,0,1,.26.62.83.83,0,0,1-.26.6.9.9,0,0,1-.64.26A.84.84,0,0,1,184.48,529.33Zm-.09,1.11h1.47v5.91h-1.47Z"/><path class="cls-2" d="M187.44,536.13a2.21,2.21,0,0,1-.89-1l1.2-.52a1.38,1.38,0,0,0,.55.52,1.64,1.64,0,0,0,.76.18,1.09,1.09,0,0,0,.67-.18.58.58,0,0,0,.24-.48.47.47,0,0,0-.19-.39,2,2,0,0,0-.62-.24l-.42-.1a3.24,3.24,0,0,1-1.49-.66,1.48,1.48,0,0,1-.48-1.16,1.55,1.55,0,0,1,.29-.93,1.86,1.86,0,0,1,.79-.67,2.57,2.57,0,0,1,1.16-.25,2.86,2.86,0,0,1,1.37.31,2,2,0,0,1,.88.87L190,532a1.1,1.1,0,0,0-.44-.39,1.34,1.34,0,0,0-.59-.13,1,1,0,0,0-.61.16.5.5,0,0,0-.22.42.45.45,0,0,0,.2.37,2.18,2.18,0,0,0,.63.24l.39.08a3.41,3.41,0,0,1,1.46.64,1.56,1.56,0,0,1,.51,1.26,1.7,1.7,0,0,1-.29,1,1.92,1.92,0,0,1-.81.7,2.82,2.82,0,0,1-1.2.25A2.91,2.91,0,0,1,187.44,536.13Z"/><path class="cls-2" d="M197.59,530.44v5.91h-1.11l-.29-.67a2.06,2.06,0,0,1-.73.61,2.24,2.24,0,0,1-1,.21,2.39,2.39,0,0,1-1.15-.28,2.15,2.15,0,0,1-.83-.78,2.12,2.12,0,0,1-.31-1.14v-3.86h1.47v3.41a1.29,1.29,0,0,0,.32.94,1.35,1.35,0,0,0,1.79,0,1.26,1.26,0,0,0,.36-.93v-3.4Z"/><path class="cls-2" d="M202.52,530.52a2.06,2.06,0,0,1,.89.75,1.92,1.92,0,0,1,.31,1.08v4h-1.11l-.27-.59a1.79,1.79,0,0,1-.71.56,2.52,2.52,0,0,1-1,.2A2.33,2.33,0,0,1,199,536a1.76,1.76,0,0,1-.59-1.37,1.69,1.69,0,0,1,.64-1.39,2.84,2.84,0,0,1,1.8-.52h1.4v-.24a.83.83,0,0,0-.33-.69,1.29,1.29,0,0,0-.85-.27,1.64,1.64,0,0,0-1.28.59l-1.21-.54a2.75,2.75,0,0,1,1-.95,3.44,3.44,0,0,1,2.91-.09Zm-.63,4.51a1.15,1.15,0,0,0,.37-.91v-.38h-1.2a1.51,1.51,0,0,0-.87.22.69.69,0,0,0-.31.59.71.71,0,0,0,.29.59,1.29,1.29,0,0,0,.78.21A1.36,1.36,0,0,0,201.89,535Z"/><path class="cls-2" d="M204.9,527.83h1.46v8.52H204.9Z"/><path class="cls-2" d="M207.71,529.33a.82.82,0,0,1-.25-.61.84.84,0,0,1,.25-.62.86.86,0,0,1,.63-.26.9.9,0,0,1,.64.26.82.82,0,0,1,.26.62.79.79,0,0,1-.26.6.9.9,0,0,1-.64.26A.85.85,0,0,1,207.71,529.33Zm-.09,1.11h1.47v5.91h-1.47Z"/><path class="cls-2" d="M212.33,531.68v2.59a.74.74,0,0,0,.85.83,1.63,1.63,0,0,0,.52-.06v1.3a1.09,1.09,0,0,1-.36.09,2.59,2.59,0,0,1-.48,0,1.78,1.78,0,0,1-2-2v-2.77h-1v-1.24h.85l.64-1.45h1v1.45h1.37v1.24Z"/><path class="cls-2" d="M216.31,535.06h3v1.29H214.7l-.41-.93,3.11-3.69h-2.88v-1.29H219l.4.93Z"/><path class="cls-2" d="M224.14,530.52a2.09,2.09,0,0,1,.9.75,2,2,0,0,1,.31,1.08v4h-1.12l-.26-.59a1.83,1.83,0,0,1-.72.56,2.47,2.47,0,0,1-1,.2,2.3,2.3,0,0,1-1.59-.53,1.74,1.74,0,0,1-.6-1.37,1.7,1.7,0,0,1,.65-1.39,2.79,2.79,0,0,1,1.79-.52h1.4v-.24a.83.83,0,0,0-.33-.69,1.28,1.28,0,0,0-.84-.27,1.67,1.67,0,0,0-1.29.59l-1.21-.54a2.78,2.78,0,0,1,1-.95,3,3,0,0,1,1.54-.37A3.06,3.06,0,0,1,224.14,530.52Zm-.63,4.51a1.11,1.11,0,0,0,.37-.91v-.38h-1.2a1.55,1.55,0,0,0-.87.22.74.74,0,0,0,0,1.18,1.29,1.29,0,0,0,.78.21A1.35,1.35,0,0,0,223.51,535Z"/><path class="cls-2" d="M230.09,530.4V532a2,2,0,0,0-.6-.09,1.34,1.34,0,0,0-1.15.49,2.33,2.33,0,0,0-.35,1.35v2.64h-1.47v-5.91h1.12l.35.78a1.73,1.73,0,0,1,.62-.64,1.84,1.84,0,0,1,1-.24A1.88,1.88,0,0,1,230.09,530.4Z"/><path class="cls-2" d="M238.86,533.84h-4.54a1.73,1.73,0,0,0,.59,1,1.66,1.66,0,0,0,1.08.37,1.69,1.69,0,0,0,1.38-.64l1.3.58a3,3,0,0,1-2.69,1.39,3.15,3.15,0,0,1-1.58-.41,3.08,3.08,0,0,1-1.54-2.72,3.4,3.4,0,0,1,.38-1.6,2.94,2.94,0,0,1,2.64-1.56,3.14,3.14,0,0,1,1.58.39,2.67,2.67,0,0,1,1.07,1.09,3.27,3.27,0,0,1,.38,1.58A2.58,2.58,0,0,1,238.86,533.84Zm-4-2a1.61,1.61,0,0,0-.54.93h3.12a1.47,1.47,0,0,0-1.57-1.28A1.53,1.53,0,0,0,234.87,531.87Z"/><path class="cls-2" d="M239.75,527.83h1.46v8.52h-1.46Z"/><path class="cls-2" d="M252.7,530.55a2,2,0,0,1,.77.78,2.23,2.23,0,0,1,.28,1.13v3.89h-1.46v-3.47A1.39,1.39,0,0,0,252,532a1,1,0,0,0-.8-.31,1.08,1.08,0,0,0-.82.33,1.29,1.29,0,0,0-.31.91v3.45h-1.46v-3.47a1.33,1.33,0,0,0-.29-.9,1,1,0,0,0-.79-.32,1.08,1.08,0,0,0-.82.33,1.26,1.26,0,0,0-.31.91v3.45h-1.47v-5.91h1.12l.29.65a1.71,1.71,0,0,1,.68-.6,2,2,0,0,1,.93-.21,2.07,2.07,0,0,1,1,.25,2,2,0,0,1,.74.69,2.34,2.34,0,0,1,3-.67Z"/><path class="cls-2" d="M260.56,533.84H256a1.72,1.72,0,0,0,.58,1,1.8,1.8,0,0,0,2.47-.27l1.29.58a3,3,0,0,1-2.68,1.39A3.07,3.07,0,0,1,255,535a3.09,3.09,0,0,1-.41-1.59,3.29,3.29,0,0,1,.38-1.6,2.94,2.94,0,0,1,1.07-1.14,3,3,0,0,1,1.57-.42,3.16,3.16,0,0,1,1.58.39,2.74,2.74,0,0,1,1.07,1.09,3.26,3.26,0,0,1,.37,1.58A2.66,2.66,0,0,1,260.56,533.84Zm-4-2a1.61,1.61,0,0,0-.54.93h3.12a1.6,1.6,0,0,0-.51-.94,1.62,1.62,0,0,0-1.06-.34A1.51,1.51,0,0,0,256.57,531.87Z"/><path class="cls-2" d="M265.75,530.58a2.2,2.2,0,0,1,.84.79,2.16,2.16,0,0,1,.31,1.15v3.83h-1.46V533a1.37,1.37,0,0,0-.33-1,1.18,1.18,0,0,0-.92-.35,1.25,1.25,0,0,0-.92.36,1.34,1.34,0,0,0-.36,1v3.36h-1.47v-5.91h1.12l.3.66a1.76,1.76,0,0,1,.72-.6,2.33,2.33,0,0,1,1-.21A2.36,2.36,0,0,1,265.75,530.58Z"/><path class="cls-2" d="M273.48,530.44v5.91h-1.12l-.28-.67a2.15,2.15,0,0,1-.73.61,2.24,2.24,0,0,1-1,.21,2.39,2.39,0,0,1-1.15-.28,2.15,2.15,0,0,1-.83-.78,2.12,2.12,0,0,1-.31-1.14v-3.86h1.46v3.41a1.3,1.3,0,0,0,.33.94,1.18,1.18,0,0,0,.89.33,1.2,1.2,0,0,0,.9-.35,1.26,1.26,0,0,0,.36-.93v-3.4ZM271,527.83h1.72l-1.15,1.63H270.1Z"/><path class="cls-2" d="M277.14,527.83h1.52l-3.12,9.72H274Z"/><path class="cls-2" d="M279.91,536.12a3.14,3.14,0,0,1,0-5.45,3.22,3.22,0,0,1,3.16,0,3.14,3.14,0,0,1,1.14,1.09l-1.35.6a1.61,1.61,0,0,0-1.35-.69,1.62,1.62,0,0,0-.87.23,1.67,1.67,0,0,0-.61.63,1.75,1.75,0,0,0-.23.88,1.7,1.7,0,0,0,.49,1.23,1.63,1.63,0,0,0,1.22.49,1.68,1.68,0,0,0,.77-.18,1.48,1.48,0,0,0,.58-.5l1.36.6a3.22,3.22,0,0,1-4.31,1.08Z"/><path class="cls-2" d="M288.68,530.52a2.06,2.06,0,0,1,.89.75,1.92,1.92,0,0,1,.31,1.08v4h-1.11l-.27-.59a1.79,1.79,0,0,1-.71.56,2.49,2.49,0,0,1-1,.2,2.33,2.33,0,0,1-1.59-.53,1.76,1.76,0,0,1-.59-1.37,1.69,1.69,0,0,1,.64-1.39,2.84,2.84,0,0,1,1.8-.52h1.4v-.24a.83.83,0,0,0-.33-.69,1.29,1.29,0,0,0-.85-.27,1.64,1.64,0,0,0-1.28.59l-1.21-.54a2.75,2.75,0,0,1,1-.95,3.44,3.44,0,0,1,2.91-.09Zm-.63,4.51a1.15,1.15,0,0,0,.37-.91v-.38h-1.2a1.51,1.51,0,0,0-.87.22.69.69,0,0,0-.31.59.71.71,0,0,0,.29.59,1.29,1.29,0,0,0,.78.21A1.36,1.36,0,0,0,288.05,535Z"/><path class="cls-2" d="M294.62,530.4V532a2,2,0,0,0-.6-.09,1.31,1.31,0,0,0-1.14.49,2.25,2.25,0,0,0-.36,1.35v2.64h-1.46v-5.91h1.11l.35.78a1.81,1.81,0,0,1,.62-.64,1.9,1.9,0,0,1,1-.24A1.75,1.75,0,0,1,294.62,530.4Z"/><path class="cls-2" d="M297.41,531.68v2.59a.74.74,0,0,0,.85.83,1.52,1.52,0,0,0,.51-.06v1.3a1,1,0,0,1-.35.09,2.7,2.7,0,0,1-.49,0,1.77,1.77,0,0,1-2-2v-2.77h-1v-1.24h.85l.64-1.45h1v1.45h1.36v1.24Z"/><path class="cls-2" d="M303.41,530.52a2.09,2.09,0,0,1,.9.75,2,2,0,0,1,.31,1.08v4H303.5l-.26-.59a1.83,1.83,0,0,1-.72.56,2.47,2.47,0,0,1-1,.2,2.3,2.3,0,0,1-1.59-.53,1.74,1.74,0,0,1-.6-1.37,1.7,1.7,0,0,1,.65-1.39,2.79,2.79,0,0,1,1.79-.52h1.4v-.24a.83.83,0,0,0-.33-.69,1.28,1.28,0,0,0-.84-.27,1.67,1.67,0,0,0-1.29.59l-1.21-.54a2.78,2.78,0,0,1,1-.95,3,3,0,0,1,1.54-.37A3.06,3.06,0,0,1,303.41,530.52Zm-.63,4.51a1.11,1.11,0,0,0,.37-.91v-.38H302a1.55,1.55,0,0,0-.87.22.74.74,0,0,0,0,1.18,1.29,1.29,0,0,0,.78.21A1.35,1.35,0,0,0,302.78,535Z"/><path class="cls-2" d="M314.06,527.83v8.52H313l-.31-.7a2,2,0,0,1-.8.63,2.64,2.64,0,0,1-1.08.22,2.79,2.79,0,0,1-1.51-.4,2.7,2.7,0,0,1-1-1.13,3.65,3.65,0,0,1,0-3.16,2.64,2.64,0,0,1,1-1.11,2.71,2.71,0,0,1,1.51-.41,2.51,2.51,0,0,1,1,.2,2,2,0,0,1,.8.57v-3.23Zm-1.83,6.8a1.77,1.77,0,0,0,.47-1.23,1.74,1.74,0,0,0-.47-1.24,1.53,1.53,0,0,0-1.19-.49,1.58,1.58,0,0,0-1.21.49,1.74,1.74,0,0,0-.47,1.24,1.77,1.77,0,0,0,.47,1.23,1.61,1.61,0,0,0,1.21.49A1.53,1.53,0,0,0,312.23,534.63Z"/><path class="cls-2" d="M315.41,529.33a.82.82,0,0,1-.25-.61.84.84,0,0,1,.25-.62.86.86,0,0,1,.63-.26.9.9,0,0,1,.64.26.82.82,0,0,1,.26.62.79.79,0,0,1-.26.6.9.9,0,0,1-.64.26A.85.85,0,0,1,315.41,529.33Zm-.09,1.11h1.47v5.91h-1.47Z"/><path class="cls-2" d="M323.54,530.44v5.42a2.64,2.64,0,0,1-.39,1.45,2.46,2.46,0,0,1-1.07.92,3.64,3.64,0,0,1-1.53.31,3.83,3.83,0,0,1-1.68-.36,2.67,2.67,0,0,1-1.14-1.09l1.29-.55a1.47,1.47,0,0,0,.61.49,2.12,2.12,0,0,0,1,.21,1.56,1.56,0,0,0,1.09-.36,1.22,1.22,0,0,0,.4-1v-.58a1.83,1.83,0,0,1-.74.53,2.58,2.58,0,0,1-1,.19,2.69,2.69,0,0,1-1.42-.38,2.65,2.65,0,0,1-1-1,3.28,3.28,0,0,1,0-2.91,2.56,2.56,0,0,1,1-1,2.7,2.7,0,0,1,1.43-.38,2.59,2.59,0,0,1,1,.19,2,2,0,0,1,.77.55l.28-.6Zm-1.79,3.83a1.64,1.64,0,0,0,0-2.19,1.48,1.48,0,0,0-1.1-.44,1.45,1.45,0,0,0-1.09.44,1.64,1.64,0,0,0,0,2.19,1.56,1.56,0,0,0,2.19,0Z"/><path class="cls-2" d="M324.87,529.33a.86.86,0,0,1-.25-.61.89.89,0,0,1,.25-.62.87.87,0,0,1,.64-.26.9.9,0,0,1,.64.26.85.85,0,0,1,.26.62.83.83,0,0,1-.26.6.9.9,0,0,1-.64.26A.86.86,0,0,1,324.87,529.33Zm-.08,1.11h1.46v5.91h-1.46Z"/><path class="cls-2" d="M329.49,531.68v2.59a.75.75,0,0,0,.86.83,1.52,1.52,0,0,0,.51-.06v1.3a1,1,0,0,1-.35.09,2.77,2.77,0,0,1-.49,0,1.77,1.77,0,0,1-2-2v-2.77h-1v-1.24h.85l.64-1.45h.94v1.45h1.37v1.24Z"/><path class="cls-2" d="M335.5,530.52a2,2,0,0,1,.89.75,1.92,1.92,0,0,1,.31,1.08v4h-1.11l-.26-.59a1.9,1.9,0,0,1-.72.56,2.49,2.49,0,0,1-1,.2A2.33,2.33,0,0,1,332,536a1.76,1.76,0,0,1-.59-1.37,1.72,1.72,0,0,1,.64-1.39,2.84,2.84,0,0,1,1.8-.52h1.4v-.24a.83.83,0,0,0-.33-.69,1.28,1.28,0,0,0-.84-.27,1.64,1.64,0,0,0-1.29.59l-1.21-.54a2.78,2.78,0,0,1,1-.95,3,3,0,0,1,1.54-.37A3.06,3.06,0,0,1,335.5,530.52Zm-.63,4.51a1.11,1.11,0,0,0,.37-.91v-.38H334a1.51,1.51,0,0,0-.87.22.68.68,0,0,0-.3.59.7.7,0,0,0,.28.59,1.33,1.33,0,0,0,.78.21A1.36,1.36,0,0,0,334.87,535Z"/><path class="cls-2" d="M337.88,527.83h1.47v8.52h-1.47Z"/><path class="cls-2" d="M340.69,536.21a.89.89,0,0,1-.27-.65.9.9,0,0,1,.27-.67,1,1,0,0,1,1.36,0,.9.9,0,0,1,.27.67.86.86,0,0,1-.28.65.9.9,0,0,1-.67.27A.93.93,0,0,1,340.69,536.21Z"/><path class="cls-2" d="M93.34,553.3v1.05H87.75v-8.16h5.53v1h-4.4v2.4h3.8v1h-3.8v2.62Z"/><path class="cls-2" d="M94.66,554.15a2.15,2.15,0,0,1-.86-.94l.91-.41a1.61,1.61,0,0,0,.58.58,1.75,1.75,0,0,0,.87.21,1.28,1.28,0,0,0,.84-.25.79.79,0,0,0,.32-.64.63.63,0,0,0-.25-.53,2.32,2.32,0,0,0-.79-.32l-.48-.12a3.16,3.16,0,0,1-1.34-.62,1.4,1.4,0,0,1-.42-1.06,1.49,1.49,0,0,1,.27-.86,1.93,1.93,0,0,1,.75-.62,2.38,2.38,0,0,1,1.08-.23,2.68,2.68,0,0,1,1.23.27,1.85,1.85,0,0,1,.83.78l-.93.41a1.13,1.13,0,0,0-.48-.41,1.49,1.49,0,0,0-.67-.14,1.3,1.3,0,0,0-.77.21.68.68,0,0,0-.29.54.57.57,0,0,0,.24.48,2,2,0,0,0,.73.3l.45.11a3.41,3.41,0,0,1,1.38.64,1.43,1.43,0,0,1,.47,1.16,1.68,1.68,0,0,1-.27.93,1.91,1.91,0,0,1-.77.66,2.6,2.6,0,0,1-1.13.24A2.87,2.87,0,0,1,94.66,554.15Z"/><path class="cls-2" d="M100.21,554.11A3,3,0,0,1,99.1,553a3.07,3.07,0,0,1-.4-1.56,3,3,0,0,1,1.51-2.67,3.16,3.16,0,0,1,3.06,0,3,3,0,0,1,1.1,1l-1,.42a2.13,2.13,0,0,0-.7-.6,1.92,1.92,0,0,0-.92-.22,2,2,0,0,0-1,.27,2.1,2.1,0,0,0-.73.75,2.27,2.27,0,0,0,0,2.11,2,2,0,0,0,.73.75,2,2,0,0,0,1,.27,2,2,0,0,0,1.62-.82l1,.42a3,3,0,0,1-1.1,1,3.09,3.09,0,0,1-3.06,0Z"/><path class="cls-2" d="M108.5,548.59a2.1,2.1,0,0,1,.84.71,1.81,1.81,0,0,1,.3,1v4h-.75l-.28-.64a1.8,1.8,0,0,1-.72.58,2.46,2.46,0,0,1-1,.21,2.38,2.38,0,0,1-1.6-.51,1.81,1.81,0,0,1,0-2.71,2.8,2.8,0,0,1,1.79-.51h1.51v-.35a1,1,0,0,0-.38-.82,1.51,1.51,0,0,0-1-.32,1.7,1.7,0,0,0-.87.21,1.57,1.57,0,0,0-.56.48l-.92-.41a2.67,2.67,0,0,1,1-.88,2.84,2.84,0,0,1,1.42-.34A2.91,2.91,0,0,1,108.5,548.59Zm-.37,4.65a1.35,1.35,0,0,0,.45-1.1v-.55h-1.41a1.81,1.81,0,0,0-1.08.27.88.88,0,0,0-.38.75.9.9,0,0,0,.35.74,1.5,1.5,0,0,0,.94.27A1.73,1.73,0,0,0,108.13,553.24Z"/><path class="cls-2" d="M114.79,548.64a2,2,0,0,1,1.12,1.89v3.82h-1v-3.43a1.66,1.66,0,0,0-.37-1.15,1.37,1.37,0,0,0-1.08-.41,1.46,1.46,0,0,0-1.1.43,1.6,1.6,0,0,0-.43,1.14v3.42h-1v-5.83h.74l.3.67a2,2,0,0,1,.76-.61,2.47,2.47,0,0,1,2.16.06Z"/><path class="cls-2" d="M122.43,551.67H117.7a2.16,2.16,0,0,0,.61,1.38,1.85,1.85,0,0,0,1.32.51,2,2,0,0,0,1.67-.84l1,.42a2.93,2.93,0,0,1-1.1,1,3.19,3.19,0,0,1-1.52.36,2.89,2.89,0,0,1-1.51-.4,2.76,2.76,0,0,1-1.07-1.1,3.23,3.23,0,0,1-.39-1.59,3.31,3.31,0,0,1,.37-1.57,2.83,2.83,0,0,1,1-1.11,2.73,2.73,0,0,1,1.5-.41,3,3,0,0,1,1.51.37,2.71,2.71,0,0,1,1,1,3.28,3.28,0,0,1,.36,1.57A1.52,1.52,0,0,1,122.43,551.67Zm-4.07-2a2,2,0,0,0-.62,1.15h3.65a1.88,1.88,0,0,0-.59-1.16,2,2,0,0,0-2.44,0Z"/><path class="cls-2" d="M126.59,548.59a2.13,2.13,0,0,1,.85.71,1.89,1.89,0,0,1,.3,1v4H127l-.29-.64a1.7,1.7,0,0,1-.71.58,2.46,2.46,0,0,1-1,.21,2.36,2.36,0,0,1-1.6-.51,1.68,1.68,0,0,1-.6-1.35,1.65,1.65,0,0,1,.64-1.36,2.79,2.79,0,0,1,1.79-.51h1.51v-.35a1,1,0,0,0-.39-.82,1.48,1.48,0,0,0-1-.32,1.67,1.67,0,0,0-.87.21,1.7,1.7,0,0,0-.57.48l-.91-.41a2.64,2.64,0,0,1,1-.88,2.91,2.91,0,0,1,1.43-.34A2.83,2.83,0,0,1,126.59,548.59Zm-.37,4.65a1.33,1.33,0,0,0,.46-1.1v-.55h-1.42a1.83,1.83,0,0,0-1.08.27,1,1,0,0,0,0,1.49,1.47,1.47,0,0,0,.93.27A1.71,1.71,0,0,0,126.22,553.24Z"/><path class="cls-2" d="M136.56,551.67h-4.73a2.11,2.11,0,0,0,.61,1.38,1.82,1.82,0,0,0,1.32.51,2,2,0,0,0,1.67-.84l.94.42a2.79,2.79,0,0,1-1.1,1,3.15,3.15,0,0,1-1.51.36,2.9,2.9,0,0,1-1.52-.4,2.83,2.83,0,0,1-1.07-1.1,3.23,3.23,0,0,1-.39-1.59,3.31,3.31,0,0,1,.38-1.57,2.76,2.76,0,0,1,1-1.11,2.73,2.73,0,0,1,1.5-.41,2.93,2.93,0,0,1,1.5.37,2.58,2.58,0,0,1,1,1,3.17,3.17,0,0,1,.37,1.57A2.63,2.63,0,0,1,136.56,551.67Zm-4.08-2a2,2,0,0,0-.62,1.15h3.65a1.87,1.87,0,0,0-.58-1.16,2,2,0,0,0-2.45,0Z"/><path class="cls-2" d="M137.36,545.83h1v8.52h-1Z"/><path class="cls-2" d="M149.66,552.46a4.16,4.16,0,0,1-1.57,1.52l.53,1.17h-1.17l-.35-.78a4.24,4.24,0,0,1-1.14.15,4.35,4.35,0,0,1-2.16-.56,4.14,4.14,0,0,1-1.56-1.52,4.25,4.25,0,0,1,1.56-5.87,4.5,4.5,0,0,1,4.31,0,4.2,4.2,0,0,1,2.14,3.7A4.18,4.18,0,0,1,149.66,552.46Zm-1-.61a3.17,3.17,0,0,0,.4-1.58,3.21,3.21,0,0,0-.42-1.62,3,3,0,0,0-1.13-1.15,3,3,0,0,0-1.59-.42,3.1,3.1,0,0,0-1.59.42,3,3,0,0,0-1.13,1.15,3.41,3.41,0,0,0,0,3.24,3,3,0,0,0,1.13,1.15,3.1,3.1,0,0,0,1.59.42,3.23,3.23,0,0,0,.71-.07l-1-2.16h1.14l.79,1.75A3,3,0,0,0,148.7,551.85Z"/><path class="cls-2" d="M157.1,550.11a2.49,2.49,0,0,1-1.16.91l1.51,3.33h-1.26l-1.39-3.13h-2.3v3.13h-1.12v-8.16h3.46a2.87,2.87,0,0,1,1.38.32,2.34,2.34,0,0,1,1,.88,2.38,2.38,0,0,1,.35,1.27A2.5,2.5,0,0,1,157.1,550.11Zm-4.6.09h2.2a1.93,1.93,0,0,0,1.21-.39,1.5,1.5,0,0,0,0-2.22,1.92,1.92,0,0,0-1.21-.38h-2.2Z"/><path class="cls-2" d="M165.55,548.77a2.73,2.73,0,0,1,1,1.11,3.34,3.34,0,0,1,.36,1.55,3.38,3.38,0,0,1-.36,1.56,2.87,2.87,0,0,1-3.69,1.25,2.3,2.3,0,0,1-.89-.71v2.86h-1.05v-7.87h.74l.34.78a2.16,2.16,0,0,1,.88-.69,2.8,2.8,0,0,1,1.16-.24A2.84,2.84,0,0,1,165.55,548.77Zm-.63,4.46a1.88,1.88,0,0,0,.7-.75,2.14,2.14,0,0,0,.25-1.05,2.2,2.2,0,0,0-.25-1,1.92,1.92,0,0,0-.7-.74,2.08,2.08,0,0,0-2,0,1.89,1.89,0,0,0-.69.74,2.21,2.21,0,0,0-.26,1,2.15,2.15,0,0,0,.26,1.05,1.88,1.88,0,0,0,1.71,1A1.87,1.87,0,0,0,164.92,553.23Z"/><path class="cls-2" d="M171.1,548.59a2.1,2.1,0,0,1,.84.71,1.81,1.81,0,0,1,.3,1v4h-.74l-.29-.64a1.7,1.7,0,0,1-.71.58,2.46,2.46,0,0,1-1.05.21,2.36,2.36,0,0,1-1.6-.51,1.68,1.68,0,0,1-.6-1.35,1.65,1.65,0,0,1,.64-1.36,2.79,2.79,0,0,1,1.79-.51h1.51v-.35a1,1,0,0,0-.39-.82,1.48,1.48,0,0,0-1-.32,1.74,1.74,0,0,0-.88.21,1.66,1.66,0,0,0-.56.48l-.91-.41a2.64,2.64,0,0,1,1-.88,2.91,2.91,0,0,1,1.43-.34A2.86,2.86,0,0,1,171.1,548.59Zm-.37,4.65a1.33,1.33,0,0,0,.46-1.1v-.55h-1.42a1.83,1.83,0,0,0-1.08.27.87.87,0,0,0-.37.75.9.9,0,0,0,.35.74,1.47,1.47,0,0,0,.93.27A1.71,1.71,0,0,0,170.73,553.24Z"/><path class="cls-2" d="M176.64,548.49v1.09a2.24,2.24,0,0,0-.57-.08,1.39,1.39,0,0,0-1.2.52,2.23,2.23,0,0,0-.38,1.33v3h-1.06v-5.83h.75l.33.76a1.71,1.71,0,0,1,.64-.61,1.9,1.9,0,0,1,1-.24A2.2,2.2,0,0,1,176.64,548.49Z"/><path class="cls-2" d="M180.44,548.59a2.1,2.1,0,0,1,.84.71,1.81,1.81,0,0,1,.3,1v4h-.75l-.28-.64a1.8,1.8,0,0,1-.72.58,2.46,2.46,0,0,1-1.05.21,2.38,2.38,0,0,1-1.6-.51,1.71,1.71,0,0,1-.59-1.35,1.67,1.67,0,0,1,.63-1.36,2.8,2.8,0,0,1,1.79-.51h1.51v-.35a1,1,0,0,0-.38-.82,1.5,1.5,0,0,0-1-.32,1.71,1.71,0,0,0-.88.21,1.57,1.57,0,0,0-.56.48l-.92-.41a2.75,2.75,0,0,1,1-.88,2.87,2.87,0,0,1,1.42-.34A2.91,2.91,0,0,1,180.44,548.59Zm-.37,4.65a1.35,1.35,0,0,0,.45-1.1v-.55h-1.41a1.83,1.83,0,0,0-1.08.27.87.87,0,0,0-.37.75.89.89,0,0,0,.34.74,1.52,1.52,0,0,0,.94.27A1.73,1.73,0,0,0,180.07,553.24Z"/><path class="cls-2" d="M190.32,548.52l-2.61,5.83h-.8l-2.59-5.83h1.15l1.87,4.28,1.86-4.28Z"/><path class="cls-2" d="M190.82,547.22a.66.66,0,0,1-.2-.49.64.64,0,0,1,.2-.49.67.67,0,0,1,.5-.21.69.69,0,0,1,.51.21.68.68,0,0,1,.2.49.7.7,0,0,1-.2.49.69.69,0,0,1-.51.2A.66.66,0,0,1,190.82,547.22Zm0,1.3h1v5.83h-1Z"/><path class="cls-2" d="M193.36,554.15a2.15,2.15,0,0,1-.86-.94l.91-.41a1.61,1.61,0,0,0,.58.58,1.78,1.78,0,0,0,.87.21,1.28,1.28,0,0,0,.84-.25.79.79,0,0,0,.32-.64.63.63,0,0,0-.25-.53,2.32,2.32,0,0,0-.79-.32l-.48-.12a3.16,3.16,0,0,1-1.34-.62,1.4,1.4,0,0,1-.42-1.06,1.49,1.49,0,0,1,.27-.86,1.93,1.93,0,0,1,.75-.62,2.38,2.38,0,0,1,1.08-.23,2.76,2.76,0,0,1,1.24.27,1.88,1.88,0,0,1,.82.78l-.93.41a1.13,1.13,0,0,0-.48-.41,1.49,1.49,0,0,0-.67-.14,1.3,1.3,0,0,0-.77.21.68.68,0,0,0-.29.54.57.57,0,0,0,.24.48,2,2,0,0,0,.73.3l.45.11a3.41,3.41,0,0,1,1.38.64,1.44,1.44,0,0,1,.48,1.16,1.69,1.69,0,0,1-.28.93,1.85,1.85,0,0,1-.77.66,2.6,2.6,0,0,1-1.13.24A2.87,2.87,0,0,1,193.36,554.15Z"/><path class="cls-2" d="M202.82,548.52v5.83h-.76l-.28-.66a2,2,0,0,1-.75.6,2.31,2.31,0,0,1-1,.21,2.4,2.4,0,0,1-1.14-.27,2,2,0,0,1-.8-.75,2.06,2.06,0,0,1-.3-1.1v-3.86h1.06V552a1.57,1.57,0,0,0,.37,1.11,1.35,1.35,0,0,0,1,.4,1.43,1.43,0,0,0,1.08-.43,1.49,1.49,0,0,0,.42-1.1v-3.46Z"/><path class="cls-2" d="M207.45,548.59a2.1,2.1,0,0,1,.84.71,1.81,1.81,0,0,1,.3,1v4h-.74l-.29-.64a1.77,1.77,0,0,1-.71.58,2.46,2.46,0,0,1-1,.21,2.39,2.39,0,0,1-1.61-.51,1.71,1.71,0,0,1-.59-1.35,1.65,1.65,0,0,1,.64-1.36,2.77,2.77,0,0,1,1.78-.51h1.52v-.35a1,1,0,0,0-.39-.82,1.48,1.48,0,0,0-1-.32,1.71,1.71,0,0,0-.88.21,1.57,1.57,0,0,0-.56.48l-.91-.41a2.64,2.64,0,0,1,1-.88,3.19,3.19,0,0,1,2.67-.09Zm-.37,4.65a1.36,1.36,0,0,0,.46-1.1v-.55h-1.42a1.83,1.83,0,0,0-1.08.27,1,1,0,0,0,0,1.49,1.47,1.47,0,0,0,.93.27A1.71,1.71,0,0,0,207.08,553.24Z"/><path class="cls-2" d="M209.78,545.83h1.06v8.52h-1.06Z"/><path class="cls-2" d="M212.11,547.22a.67.67,0,0,1-.21-.49.72.72,0,0,1,.71-.7.69.69,0,0,1,.51.21.68.68,0,0,1,.2.49.7.7,0,0,1-.2.49.69.69,0,0,1-.51.2A.65.65,0,0,1,212.11,547.22Zm0,1.3h1.06v5.83h-1.06Z"/><path class="cls-2" d="M215.38,553.41h3.39v.94h-4.53l-.3-.69,3.45-4.2h-3.22v-.94h4.38l.29.68Z"/><path class="cls-2" d="M223.11,548.59a2.1,2.1,0,0,1,.84.71,1.81,1.81,0,0,1,.3,1v4h-.74l-.29-.64a1.8,1.8,0,0,1-.72.58,2.46,2.46,0,0,1-1.05.21,2.38,2.38,0,0,1-1.6-.51,1.71,1.71,0,0,1-.59-1.35,1.67,1.67,0,0,1,.63-1.36,2.8,2.8,0,0,1,1.79-.51h1.51v-.35a1,1,0,0,0-.38-.82,1.5,1.5,0,0,0-1-.32,1.71,1.71,0,0,0-.88.21,1.57,1.57,0,0,0-.56.48l-.92-.41a2.75,2.75,0,0,1,1-.88,2.87,2.87,0,0,1,1.42-.34A2.91,2.91,0,0,1,223.11,548.59Zm-.37,4.65a1.35,1.35,0,0,0,.45-1.1v-.55h-1.41a1.83,1.83,0,0,0-1.08.27.87.87,0,0,0-.37.75.89.89,0,0,0,.34.74,1.52,1.52,0,0,0,.94.27A1.73,1.73,0,0,0,222.74,553.24Z"/><path class="cls-2" d="M228.64,548.49v1.09a2.1,2.1,0,0,0-.56-.08,1.37,1.37,0,0,0-1.2.52,2.16,2.16,0,0,0-.39,1.33v3h-1.05v-5.83h.74l.34.76a1.64,1.64,0,0,1,.64-.61,1.86,1.86,0,0,1,1-.24A2.15,2.15,0,0,1,228.64,548.49Z"/><path class="cls-2" d="M236.8,551.67h-4.73a2.12,2.12,0,0,0,.62,1.38,1.82,1.82,0,0,0,1.32.51,2,2,0,0,0,1.66-.84l1,.42a2.85,2.85,0,0,1-1.1,1,3.15,3.15,0,0,1-1.51.36,2.9,2.9,0,0,1-1.52-.4,2.83,2.83,0,0,1-1.07-1.1,3.23,3.23,0,0,1-.39-1.59,3.31,3.31,0,0,1,.37-1.57,2.83,2.83,0,0,1,1-1.11,2.73,2.73,0,0,1,1.5-.41,3,3,0,0,1,1.51.37,2.58,2.58,0,0,1,1,1,3.28,3.28,0,0,1,.37,1.57A1.42,1.42,0,0,1,236.8,551.67Zm-4.07-2a2,2,0,0,0-.62,1.15h3.65a1.92,1.92,0,0,0-.58-1.16,1.8,1.8,0,0,0-1.25-.42A1.75,1.75,0,0,0,232.73,549.71Z"/><path class="cls-2" d="M237.61,545.83h1v8.52h-1Z"/><path class="cls-2" d="M249.56,548.62a1.86,1.86,0,0,1,.73.74,2,2,0,0,1,.28,1.08v3.91h-1.06v-3.59a1.56,1.56,0,0,0-.31-1,1.2,1.2,0,0,0-.95-.36,1.28,1.28,0,0,0-1,.4,1.42,1.42,0,0,0-.37,1v3.58h-1.06v-3.59a1.55,1.55,0,0,0-.32-1,1.18,1.18,0,0,0-.94-.37,1.24,1.24,0,0,0-.95.39,1.44,1.44,0,0,0-.37,1v3.58h-1.05v-5.83H243l.29.63a1.79,1.79,0,0,1,.66-.59,2.18,2.18,0,0,1,.93-.2,2.12,2.12,0,0,1,1.05.26,1.91,1.91,0,0,1,.73.71,2.11,2.11,0,0,1,1.86-1A2.23,2.23,0,0,1,249.56,548.62Z"/><path class="cls-2" d="M257.08,551.67h-4.73a2.16,2.16,0,0,0,.61,1.38,1.86,1.86,0,0,0,1.33.51,2,2,0,0,0,1.66-.84l.95.42a2.93,2.93,0,0,1-1.1,1,3.18,3.18,0,0,1-1.51.36,2.88,2.88,0,0,1-1.52-.4,2.83,2.83,0,0,1-1.07-1.1,3.23,3.23,0,0,1-.39-1.59,3.31,3.31,0,0,1,.37-1.57,2.83,2.83,0,0,1,1-1.11,2.73,2.73,0,0,1,1.5-.41,3,3,0,0,1,1.51.37,2.64,2.64,0,0,1,1,1,3.28,3.28,0,0,1,.37,1.57A1.42,1.42,0,0,1,257.08,551.67Zm-4.07-2a2,2,0,0,0-.62,1.15H256a1.88,1.88,0,0,0-.59-1.16,1.76,1.76,0,0,0-1.24-.42A1.73,1.73,0,0,0,253,549.71Z"/><path class="cls-2" d="M261.85,548.64a2,2,0,0,1,.82.77,2.13,2.13,0,0,1,.3,1.12v3.82h-1.05v-3.43a1.71,1.71,0,0,0-.37-1.15,1.37,1.37,0,0,0-1.08-.41,1.46,1.46,0,0,0-1.1.43,1.55,1.55,0,0,0-.43,1.14v3.42h-1.05v-5.83h.74l.3.67a1.89,1.89,0,0,1,.76-.61,2.29,2.29,0,0,1,1-.22A2.36,2.36,0,0,1,261.85,548.64Z"/><path class="cls-2" d="M269.16,548.52v5.83h-.75l-.29-.66a2,2,0,0,1-.75.6,2.31,2.31,0,0,1-1,.21,2.36,2.36,0,0,1-1.13-.27,2.09,2.09,0,0,1-.81-.75,2.15,2.15,0,0,1-.29-1.1v-3.86h1.05V552a1.62,1.62,0,0,0,.37,1.11,1.37,1.37,0,0,0,1,.4,1.43,1.43,0,0,0,1.08-.43,1.49,1.49,0,0,0,.42-1.1v-3.46Zm-2.06-2.69h1.3l-1.11,1.59h-1.08Z"/><path class="cls-2" d="M272.72,545.83h1.07l-3.12,9.72H269.6Z"/><path class="cls-2" d="M274.84,554.11a3,3,0,0,1-1.11-1.12,3.08,3.08,0,0,1,2.67-4.64,3.06,3.06,0,0,1,2.61,1.41l-1,.42a2,2,0,0,0-.69-.6,1.93,1.93,0,0,0-.93-.22,2,2,0,0,0-1,.27,2.18,2.18,0,0,0-.73,2.86,2,2,0,0,0,.73.75,2,2,0,0,0,1,.27,1.93,1.93,0,0,0,.93-.22,1.81,1.81,0,0,0,.69-.6l1,.42a3.1,3.1,0,0,1-2.61,1.42A3,3,0,0,1,274.84,554.11Z"/><path class="cls-2" d="M283.13,548.59a2.1,2.1,0,0,1,.84.71,1.81,1.81,0,0,1,.3,1v4h-.74l-.29-.64a1.7,1.7,0,0,1-.71.58,2.46,2.46,0,0,1-1,.21,2.36,2.36,0,0,1-1.6-.51,1.68,1.68,0,0,1-.6-1.35,1.65,1.65,0,0,1,.64-1.36,2.79,2.79,0,0,1,1.79-.51h1.51v-.35a1,1,0,0,0-.39-.82,1.48,1.48,0,0,0-1-.32,1.74,1.74,0,0,0-.88.21,1.66,1.66,0,0,0-.56.48l-.91-.41a2.64,2.64,0,0,1,1-.88,2.91,2.91,0,0,1,1.43-.34A2.86,2.86,0,0,1,283.13,548.59Zm-.37,4.65a1.33,1.33,0,0,0,.46-1.1v-.55H281.8a1.83,1.83,0,0,0-1.08.27.87.87,0,0,0-.37.75.9.9,0,0,0,.35.74,1.47,1.47,0,0,0,.93.27A1.71,1.71,0,0,0,282.76,553.24Z"/><path class="cls-2" d="M288.67,548.49v1.09a2.24,2.24,0,0,0-.57-.08,1.39,1.39,0,0,0-1.2.52,2.23,2.23,0,0,0-.38,1.33v3h-1.06v-5.83h.75l.33.76a1.71,1.71,0,0,1,.64-.61,1.9,1.9,0,0,1,1-.24A2.2,2.2,0,0,1,288.67,548.49Z"/><path class="cls-2" d="M290.79,549.42v3.15a.79.79,0,0,0,.88.9,1.56,1.56,0,0,0,.55-.07v1a1.23,1.23,0,0,1-.31.08,3.25,3.25,0,0,1-.44,0,1.55,1.55,0,0,1-1.74-1.76v-3.28h-1v-.9h.81l.6-1.36h.64v1.36h1.43v.9Z"/><path class="cls-2" d="M296.43,548.59a2.1,2.1,0,0,1,.84.71,1.81,1.81,0,0,1,.3,1v4h-.74l-.29-.64a1.8,1.8,0,0,1-.72.58,2.46,2.46,0,0,1-1.05.21,2.38,2.38,0,0,1-1.6-.51,1.71,1.71,0,0,1-.59-1.35,1.67,1.67,0,0,1,.63-1.36,2.8,2.8,0,0,1,1.79-.51h1.51v-.35a1,1,0,0,0-.38-.82,1.5,1.5,0,0,0-1-.32,1.71,1.71,0,0,0-.88.21,1.57,1.57,0,0,0-.56.48l-.92-.41a2.75,2.75,0,0,1,1-.88,2.87,2.87,0,0,1,1.42-.34A2.91,2.91,0,0,1,296.43,548.59Zm-.37,4.65a1.35,1.35,0,0,0,.45-1.1v-.55H295.1a1.83,1.83,0,0,0-1.08.27.87.87,0,0,0-.37.75.89.89,0,0,0,.34.74,1.52,1.52,0,0,0,.94.27A1.73,1.73,0,0,0,296.06,553.24Z"/><path class="cls-2" d="M306.61,545.83v8.52h-.75l-.35-.78a2.19,2.19,0,0,1-.87.68,2.75,2.75,0,0,1-1.15.24A2.72,2.72,0,0,1,301,553a3.38,3.38,0,0,1-.36-1.56,3.34,3.34,0,0,1,.36-1.55,2.78,2.78,0,0,1,1-1.11,2.95,2.95,0,0,1,2.67-.15,2.19,2.19,0,0,1,.89.72v-3.51Zm-1.94,7.4a1.88,1.88,0,0,0,.7-.75,2.14,2.14,0,0,0,.25-1.05,2.2,2.2,0,0,0-.25-1,1.92,1.92,0,0,0-.7-.74,1.89,1.89,0,0,0-1-.27,1.94,1.94,0,0,0-1,.27,1.85,1.85,0,0,0-.7.74,2.21,2.21,0,0,0-.26,1,2.15,2.15,0,0,0,.26,1.05,1.81,1.81,0,0,0,.7.75,1.86,1.86,0,0,0,1,.28A1.82,1.82,0,0,0,304.67,553.23Z"/><path class="cls-2" d="M307.88,547.22a.67.67,0,0,1-.21-.49.72.72,0,0,1,.71-.7.69.69,0,0,1,.51.21.68.68,0,0,1,.2.49.7.7,0,0,1-.2.49.69.69,0,0,1-.51.2A.65.65,0,0,1,307.88,547.22Zm0,1.3h1.06v5.83h-1.06Z"/><path class="cls-2" d="M315.41,548.52V554a2.43,2.43,0,0,1-.38,1.39,2.5,2.5,0,0,1-1,.87,3.38,3.38,0,0,1-1.41.29,3.66,3.66,0,0,1-1.61-.34,2.48,2.48,0,0,1-1.1-1l.95-.41a1.72,1.72,0,0,0,.69.56,2.34,2.34,0,0,0,1.09.23,1.85,1.85,0,0,0,1.28-.42,1.53,1.53,0,0,0,.47-1.17v-.76a2,2,0,0,1-.82.65,2.8,2.8,0,0,1-2.52-.15,2.57,2.57,0,0,1-1-1,3.18,3.18,0,0,1,0-2.9,2.63,2.63,0,0,1,1-1,2.72,2.72,0,0,1,1.42-.38,2.56,2.56,0,0,1,1.07.22,2.17,2.17,0,0,1,.84.62l.31-.69Zm-1.86,4.36a1.77,1.77,0,0,0,.65-.68,2.12,2.12,0,0,0,0-1.92,1.88,1.88,0,0,0-2.54-.68,1.75,1.75,0,0,0-.64.68,2.12,2.12,0,0,0,0,1.92,1.68,1.68,0,0,0,.64.68,1.85,1.85,0,0,0,1.89,0Z"/><path class="cls-2" d="M316.69,547.22a.67.67,0,0,1-.21-.49.72.72,0,0,1,.71-.7.69.69,0,0,1,.51.21.68.68,0,0,1,.2.49.7.7,0,0,1-.2.49.69.69,0,0,1-.51.2A.65.65,0,0,1,316.69,547.22Zm0,1.3h1.06v5.83h-1.06Z"/><path class="cls-2" d="M320.49,549.42v3.15a.79.79,0,0,0,.88.9,1.56,1.56,0,0,0,.55-.07v1a1.23,1.23,0,0,1-.31.08,3.25,3.25,0,0,1-.44,0,1.55,1.55,0,0,1-1.74-1.76v-3.28h-1v-.9h.81l.6-1.36h.64v1.36h1.43v.9Z"/><path class="cls-2" d="M326.13,548.59a2.1,2.1,0,0,1,.84.71,1.81,1.81,0,0,1,.3,1v4h-.74l-.29-.64a1.8,1.8,0,0,1-.72.58,2.46,2.46,0,0,1-1,.21,2.38,2.38,0,0,1-1.6-.51,1.71,1.71,0,0,1-.59-1.35,1.67,1.67,0,0,1,.63-1.36,2.8,2.8,0,0,1,1.79-.51h1.51v-.35a1,1,0,0,0-.38-.82,1.5,1.5,0,0,0-1-.32,1.71,1.71,0,0,0-.88.21,1.57,1.57,0,0,0-.56.48l-.92-.41a2.75,2.75,0,0,1,1-.88,2.87,2.87,0,0,1,1.42-.34A2.91,2.91,0,0,1,326.13,548.59Zm-.37,4.65a1.35,1.35,0,0,0,.45-1.1v-.55H324.8a1.83,1.83,0,0,0-1.08.27.87.87,0,0,0-.37.75.89.89,0,0,0,.34.74,1.52,1.52,0,0,0,.94.27A1.73,1.73,0,0,0,325.76,553.24Z"/><path class="cls-2" d="M328.46,545.83h1.05v8.52h-1.05Z"/><path class="cls-2" d="M330.75,554.26a.71.71,0,0,1,0-1,.77.77,0,0,1,1.06,0,.74.74,0,0,1,0,1,.77.77,0,0,1-1.06,0Z"/><path class="cls-2" d="M119.11,572a2.6,2.6,0,0,1-1.13-1.22l.74-.33a2.36,2.36,0,0,0,.87.88,2.64,2.64,0,0,0,1.41.35,2.37,2.37,0,0,0,1-.21,1.73,1.73,0,0,0,.69-.58,1.49,1.49,0,0,0,.24-.83,1.14,1.14,0,0,0-.42-1,4.34,4.34,0,0,0-1.37-.61l-.72-.21a4,4,0,0,1-1.6-.79,1.73,1.73,0,0,1-.51-1.32,1.79,1.79,0,0,1,.35-1.09,2.47,2.47,0,0,1,.94-.8A3,3,0,0,1,121,564a3.5,3.5,0,0,1,1.53.33,2.5,2.5,0,0,1,1.08,1l-.79.34a1.82,1.82,0,0,0-.74-.63,2.45,2.45,0,0,0-1.08-.23,2.12,2.12,0,0,0-.93.19,1.55,1.55,0,0,0-.64.51,1.13,1.13,0,0,0-.23.7,1,1,0,0,0,.39.86,3.74,3.74,0,0,0,1.18.54l.67.19a6.56,6.56,0,0,1,1.31.5,2.27,2.27,0,0,1,.79.71,2,2,0,0,1,.29,1.1,2.16,2.16,0,0,1-.37,1.21,2.61,2.61,0,0,1-1,.86,3.06,3.06,0,0,1-1.42.32A3.76,3.76,0,0,1,119.11,572Z"/><path class="cls-2" d="M126.05,572.11A2.91,2.91,0,0,1,125,571a3.1,3.1,0,0,1,0-3.08,3,3,0,0,1,1.09-1.1,2.88,2.88,0,0,1,1.53-.41,3.08,3.08,0,0,1,1.47.36,2.8,2.8,0,0,1,1.06,1l-.74.32a2.07,2.07,0,0,0-.76-.68,2.12,2.12,0,0,0-1-.25,2.09,2.09,0,0,0-1.13.31,2.2,2.2,0,0,0-.8.83,2.49,2.49,0,0,0,0,2.33,2.2,2.2,0,0,0,.8.83,2.09,2.09,0,0,0,1.13.31,2.23,2.23,0,0,0,1-.24,2,2,0,0,0,.76-.67l.74.31a2.83,2.83,0,0,1-1.06,1,3.08,3.08,0,0,1-1.47.36A3,3,0,0,1,126.05,572.11Z"/><path class="cls-2" d="M134.41,566.64a2.08,2.08,0,0,1,.81.68,1.76,1.76,0,0,1,.29,1v4.05H135l-.28-.66a1.89,1.89,0,0,1-.73.6,2.54,2.54,0,0,1-1.06.21,2.38,2.38,0,0,1-1.59-.49,1.66,1.66,0,0,1-.6-1.34,1.62,1.62,0,0,1,.63-1.35,2.78,2.78,0,0,1,1.77-.5h1.59v-.42a1.15,1.15,0,0,0-.42-.92,1.6,1.6,0,0,0-1.07-.35,1.76,1.76,0,0,0-.95.23,2.23,2.23,0,0,0-.61.51l-.7-.31a2.58,2.58,0,0,1,.92-.84,2.75,2.75,0,0,1,1.35-.32A2.78,2.78,0,0,1,134.41,566.64Zm-.21,4.73a1.47,1.47,0,0,0,.52-1.22v-.67h-1.56a2,2,0,0,0-1.22.31,1,1,0,0,0-.41.87,1,1,0,0,0,.39.83,1.7,1.7,0,0,0,1.05.31A1.88,1.88,0,0,0,134.2,571.37Z"/><path class="cls-2" d="M140.85,566.69a2,2,0,0,1,.8.76,2.11,2.11,0,0,1,.29,1.09v3.81h-.79v-3.48a1.82,1.82,0,0,0-.4-1.26,1.44,1.44,0,0,0-1.17-.46,1.67,1.67,0,0,0-1.23.49,1.73,1.73,0,0,0-.48,1.25v3.46h-.79v-5.77h.52l.3.67a2,2,0,0,1,.78-.61,2.43,2.43,0,0,1,1-.22A2.36,2.36,0,0,1,140.85,566.69Z"/><path class="cls-2" d="M147.35,567.26v3.52a.81.81,0,0,0,.9.93,1.74,1.74,0,0,0,.59-.07v.71a2,2,0,0,1-.68.09,1.57,1.57,0,0,1-1.22-.42,1.71,1.71,0,0,1-.38-1.16v-3.6h-1v-.68h.78l.57-1.3h.43v1.3h1.49v.68Z"/><path class="cls-2" d="M153.7,566.69a2.05,2.05,0,0,1,1.09,1.85v3.81H154v-3.48a1.86,1.86,0,0,0-.39-1.26,1.47,1.47,0,0,0-1.18-.46,1.65,1.65,0,0,0-1.22.49,1.73,1.73,0,0,0-.48,1.25v3.46h-.8v-8.52h.8v3.44a2,2,0,0,1,.79-.63,2.45,2.45,0,0,1,1.06-.22A2.32,2.32,0,0,1,153.7,566.69Z"/><path class="cls-2" d="M156.42,565.15a.58.58,0,0,1,0-.82.55.55,0,0,1,.41-.18.54.54,0,0,1,.41.18.57.57,0,0,1,.17.41.56.56,0,0,1-.17.4.55.55,0,0,1-.41.18A.58.58,0,0,1,156.42,565.15Zm0,1.43h.79v5.77h-.79Z"/><path class="cls-2" d="M159.07,572.16a2.07,2.07,0,0,1-.86-.9l.74-.33a1.49,1.49,0,0,0,.6.62,1.74,1.74,0,0,0,.93.23,1.39,1.39,0,0,0,.94-.29.92.92,0,0,0,.36-.74.78.78,0,0,0-.28-.62,3,3,0,0,0-.89-.39l-.51-.13a2.92,2.92,0,0,1-1.24-.59,1.31,1.31,0,0,1-.39-1,1.42,1.42,0,0,1,.25-.82,1.84,1.84,0,0,1,.72-.59,2.25,2.25,0,0,1,1-.22,2.12,2.12,0,0,1,2,1l-.74.32a1.24,1.24,0,0,0-.51-.42,1.73,1.73,0,0,0-.73-.15,1.46,1.46,0,0,0-.86.24.75.75,0,0,0-.34.63.66.66,0,0,0,.25.55,2.53,2.53,0,0,0,.8.35l.49.12a3.28,3.28,0,0,1,1.34.63,1.42,1.42,0,0,1,.44,1.11,1.53,1.53,0,0,1-.27.89,2,2,0,0,1-.74.63,2.38,2.38,0,0,1-1.08.23A2.73,2.73,0,0,1,159.07,572.16Z"/><path class="cls-2" d="M173.91,570.49a4.18,4.18,0,0,1-1.63,1.55l.51,1.14H172l-.38-.86a4.46,4.46,0,0,1-1.3.2,4.19,4.19,0,0,1-2.15-.57,4.11,4.11,0,0,1-1.54-1.53,4.36,4.36,0,0,1,0-4.31,4,4,0,0,1,1.54-1.53,4.41,4.41,0,0,1,4.3,0,4.11,4.11,0,0,1,1.54,1.53,4.32,4.32,0,0,1,.56,2.16A4.14,4.14,0,0,1,173.91,570.49Zm-.7-.44a3.41,3.41,0,0,0,.47-1.78,3.46,3.46,0,0,0-.45-1.75,3.38,3.38,0,0,0-1.23-1.26,3.48,3.48,0,0,0-3.46,0,3.33,3.33,0,0,0-1.24,1.26,3.63,3.63,0,0,0,0,3.5,3.24,3.24,0,0,0,1.24,1.25,3.28,3.28,0,0,0,1.73.47,3.57,3.57,0,0,0,1-.14l-1-2.22h.84l.85,1.92A3.22,3.22,0,0,0,173.21,570.05Z"/><path class="cls-2" d="M181.47,568a2.43,2.43,0,0,1-1.2.88l1.56,3.45h-.92l-1.47-3.29h-2.58v3.29H176v-8.16h3.27a3,3,0,0,1,1.34.3,2.41,2.41,0,0,1,.93.86,2.23,2.23,0,0,1,.34,1.23A2.41,2.41,0,0,1,181.47,568Zm-4.61.27h2.35a2.08,2.08,0,0,0,1.32-.42,1.66,1.66,0,0,0,0-2.49,2.08,2.08,0,0,0-1.32-.42h-2.35Z"/><path class="cls-2" d="M187.15,567.26v3.52a.81.81,0,0,0,.9.93,1.68,1.68,0,0,0,.58-.07v.71a2,2,0,0,1-.68.09,1.57,1.57,0,0,1-1.22-.42,1.71,1.71,0,0,1-.38-1.16v-3.6h-1v-.68h.78l.57-1.3h.44v1.3h1.48v.68Z"/><path class="cls-2" d="M190.54,572.11a3,3,0,0,1-1.1-1.11,3.16,3.16,0,0,1,0-3.08,3.05,3.05,0,0,1,1.1-1.1,3.06,3.06,0,0,1,3.06,0,3.1,3.1,0,0,1,1.1,4.18,2.93,2.93,0,0,1-1.1,1.11,3.06,3.06,0,0,1-3.06,0Zm2.66-.66a2.13,2.13,0,0,0,.8-.83,2.41,2.41,0,0,0,0-2.33,2.19,2.19,0,0,0-1.93-1.14,2.06,2.06,0,0,0-1.13.31,2.2,2.2,0,0,0-.8.83,2.49,2.49,0,0,0,0,2.33,2.2,2.2,0,0,0,.8.83,2.06,2.06,0,0,0,1.13.31A2.11,2.11,0,0,0,193.2,571.45Z"/><path class="cls-2" d="M199,572.16a2,2,0,0,1-.85-.9l.73-.33a1.49,1.49,0,0,0,.6.62,1.74,1.74,0,0,0,.93.23,1.42,1.42,0,0,0,1-.29.94.94,0,0,0,.35-.74.75.75,0,0,0-.28-.62,3,3,0,0,0-.88-.39l-.52-.13a2.92,2.92,0,0,1-1.24-.59,1.31,1.31,0,0,1-.39-1,1.36,1.36,0,0,1,.26-.82,1.8,1.8,0,0,1,.71-.59,2.25,2.25,0,0,1,1-.22,2.11,2.11,0,0,1,2,1l-.73.32a1.28,1.28,0,0,0-.52-.42,1.73,1.73,0,0,0-.73-.15,1.48,1.48,0,0,0-.86.24.75.75,0,0,0-.34.63.64.64,0,0,0,.26.55,2.36,2.36,0,0,0,.79.35l.5.12a3.23,3.23,0,0,1,1.33.63,1.38,1.38,0,0,1,.44,1.11,1.53,1.53,0,0,1-.27.89,2,2,0,0,1-.74.63,2.38,2.38,0,0,1-1.08.23A2.73,2.73,0,0,1,199,572.16Z"/><path class="cls-2" d="M208.83,569.55H204a2.73,2.73,0,0,0,.3,1.17,2.16,2.16,0,0,0,.75.78,2.11,2.11,0,0,0,1.05.27,2.15,2.15,0,0,0,1.85-1l.72.33a2.83,2.83,0,0,1-1.07,1,3.11,3.11,0,0,1-1.5.36,2.84,2.84,0,0,1-1.47-.39,2.8,2.8,0,0,1-1-1.09,3.27,3.27,0,0,1-.38-1.58,3.31,3.31,0,0,1,.36-1.55,2.75,2.75,0,0,1,1-1.1,2.69,2.69,0,0,1,1.46-.4,3,3,0,0,1,1.48.36,2.56,2.56,0,0,1,1,1,3.26,3.26,0,0,1,.35,1.56C208.85,569.47,208.85,569.54,208.83,569.55Zm-4.12-1.93a2.21,2.21,0,0,0-.67,1.27h4a2.15,2.15,0,0,0-.64-1.29,1.93,1.93,0,0,0-1.36-.46A1.88,1.88,0,0,0,204.71,567.62Z"/><path class="cls-2" d="M215.12,569.55h-4.84a2.73,2.73,0,0,0,.3,1.17,2.16,2.16,0,0,0,.75.78,2.11,2.11,0,0,0,1,.27,2.16,2.16,0,0,0,1.85-1l.72.33a2.79,2.79,0,0,1-1.08,1,3.07,3.07,0,0,1-1.49.36,2.84,2.84,0,0,1-1.47-.39,2.73,2.73,0,0,1-1-1.09,3.27,3.27,0,0,1-.38-1.58,3.31,3.31,0,0,1,.36-1.55,2.75,2.75,0,0,1,1-1.1,2.69,2.69,0,0,1,1.46-.4,3,3,0,0,1,1.48.36,2.56,2.56,0,0,1,1,1,3.38,3.38,0,0,1,.35,1.56A.54.54,0,0,1,215.12,569.55ZM211,567.62a2.21,2.21,0,0,0-.67,1.27h4a2.14,2.14,0,0,0-.63-1.29,1.93,1.93,0,0,0-1.36-.46A1.86,1.86,0,0,0,211,567.62Z"/><path class="cls-2" d="M220.07,567.26v3.52a.81.81,0,0,0,.9.93,1.74,1.74,0,0,0,.59-.07v.71a2,2,0,0,1-.68.09,1.57,1.57,0,0,1-1.22-.42,1.71,1.71,0,0,1-.38-1.16v-3.6h-1v-.68h.78l.57-1.3h.43v1.3h1.49v.68Z"/><path class="cls-2" d="M226.42,566.69a2.05,2.05,0,0,1,1.09,1.85v3.81h-.79v-3.48a1.86,1.86,0,0,0-.39-1.26,1.47,1.47,0,0,0-1.18-.46,1.65,1.65,0,0,0-1.22.49,1.73,1.73,0,0,0-.48,1.25v3.46h-.8v-8.52h.8v3.44a2,2,0,0,1,.79-.63,2.44,2.44,0,0,1,1-.22A2.33,2.33,0,0,1,226.42,566.69Z"/><path class="cls-2" d="M234.23,569.55H229.4a2.48,2.48,0,0,0,.3,1.17,2,2,0,0,0,.75.78,2.05,2.05,0,0,0,1.05.27,2.17,2.17,0,0,0,1.85-1l.72.33a2.86,2.86,0,0,1-1.08,1,3.07,3.07,0,0,1-1.49.36A2.79,2.79,0,0,1,229,571a3.26,3.26,0,0,1-.37-1.58,3.31,3.31,0,0,1,.36-1.55,2.66,2.66,0,0,1,1-1.1,2.73,2.73,0,0,1,1.47-.4,2.91,2.91,0,0,1,1.47.36,2.43,2.43,0,0,1,1,1,3.27,3.27,0,0,1,.36,1.56C234.26,569.47,234.25,569.54,234.23,569.55Zm-4.12-1.93a2.14,2.14,0,0,0-.66,1.27h4a2.15,2.15,0,0,0-.64-1.29,2.15,2.15,0,0,0-2.68,0Z"/><path class="cls-2" d="M243.38,563.83v8.52h-.52l-.36-.83a2.62,2.62,0,0,1-.93.71,2.7,2.7,0,0,1-1.2.26,2.75,2.75,0,0,1-1.49-.4,2.89,2.89,0,0,1-1-1.09,3.3,3.3,0,0,1-.36-1.54,3.26,3.26,0,0,1,.36-1.53,2.92,2.92,0,0,1,1-1.1,3,3,0,0,1,2.76-.11,2.47,2.47,0,0,1,1,.8v-3.69Zm-1.79,7.62a2.17,2.17,0,0,0,.77-.82,2.67,2.67,0,0,0,0-2.34,2.07,2.07,0,0,0-1.89-1.13,2.09,2.09,0,0,0-1.12.3,2.06,2.06,0,0,0-.77.83,2.58,2.58,0,0,0,0,2.34,2.18,2.18,0,0,0,3,.82Z"/><path class="cls-2" d="M245,565.15a.58.58,0,1,1,.82-.82.57.57,0,0,1,.17.41.62.62,0,0,1-.58.58A.57.57,0,0,1,245,565.15Zm0,1.43h.8v5.77H245Z"/><path class="cls-2" d="M252.53,566.58v5.47a2.31,2.31,0,0,1-1.36,2.19,3,3,0,0,1-1.35.29,3.76,3.76,0,0,1-1.57-.32,2.42,2.42,0,0,1-1.07-1l.75-.34a1.8,1.8,0,0,0,.73.62,2.48,2.48,0,0,0,1.16.25,2.05,2.05,0,0,0,1.41-.47,1.65,1.65,0,0,0,.51-1.28v-.89a2.16,2.16,0,0,1-.87.73,2.61,2.61,0,0,1-1.18.26,2.65,2.65,0,0,1-1.41-.37,2.77,2.77,0,0,1-1-1,3,3,0,0,1-.34-1.44,3.07,3.07,0,0,1,.34-1.45,2.75,2.75,0,0,1,1-1,2.66,2.66,0,0,1,1.41-.38,2.8,2.8,0,0,1,1.12.23,2.3,2.3,0,0,1,.88.66l.33-.74Zm-1.7,4.55a2,2,0,0,0,.71-.77,2.15,2.15,0,0,0,.26-1.07,2.21,2.21,0,0,0-.26-1.08,2,2,0,0,0-2.79-.76,1.88,1.88,0,0,0-.72.76,2.33,2.33,0,0,0-.26,1.08,2.26,2.26,0,0,0,.26,1.07,1.91,1.91,0,0,0,.72.77,1.93,1.93,0,0,0,1,.28A1.91,1.91,0,0,0,250.83,571.13Z"/><path class="cls-2" d="M254.2,565.15a.58.58,0,1,1,.82-.82.57.57,0,0,1,.17.41.62.62,0,0,1-.58.58A.57.57,0,0,1,254.2,565.15Zm0,1.43H255v5.77h-.79Z"/><path class="cls-2" d="M257.83,567.26v3.52a.81.81,0,0,0,.9.93,1.68,1.68,0,0,0,.58-.07v.71a2,2,0,0,1-.68.09,1.57,1.57,0,0,1-1.22-.42,1.71,1.71,0,0,1-.38-1.16v-3.6h-1v-.68h.78l.57-1.3h.44v1.3h1.48v.68Z"/><path class="cls-2" d="M263.62,566.64a2,2,0,0,1,.81.68,1.69,1.69,0,0,1,.3,1v4.05h-.52l-.29-.66a1.93,1.93,0,0,1-.72.6,2.59,2.59,0,0,1-1.07.21,2.42,2.42,0,0,1-1.59-.49,1.69,1.69,0,0,1-.59-1.34,1.64,1.64,0,0,1,.62-1.35,2.81,2.81,0,0,1,1.78-.5h1.58v-.42a1.14,1.14,0,0,0-.41-.92,1.62,1.62,0,0,0-1.07-.35,1.74,1.74,0,0,0-.95.23,2.09,2.09,0,0,0-.61.51l-.7-.31a2.5,2.5,0,0,1,.92-.84,3,3,0,0,1,2.51-.08Zm-.2,4.73a1.49,1.49,0,0,0,.51-1.22v-.67h-1.56a2,2,0,0,0-1.21.31,1,1,0,0,0-.42.87,1,1,0,0,0,.4.83,1.67,1.67,0,0,0,1,.31A1.93,1.93,0,0,0,263.42,571.37Z"/><path class="cls-2" d="M266.3,563.83h.79v8.52h-.79Z"/><path class="cls-2" d="M278.83,567a1.93,1.93,0,0,1,.57,1.45v3.93h-.79v-3.67a1.66,1.66,0,0,0-.34-1.13,1.24,1.24,0,0,0-1-.4,1.37,1.37,0,0,0-1,.45,1.56,1.56,0,0,0-.42,1.1v3.65H275v-3.67a1.62,1.62,0,0,0-.36-1.12,1.3,1.3,0,0,0-1-.41,1.35,1.35,0,0,0-1.06.45,1.56,1.56,0,0,0-.41,1.1v3.65h-.79v-5.77h.52l.27.61a1.82,1.82,0,0,1,.68-.58,2.23,2.23,0,0,1,2,.06,1.78,1.78,0,0,1,.72.72,2.12,2.12,0,0,1,1.85-1A2,2,0,0,1,278.83,567Z"/><path class="cls-2" d="M286.11,569.55h-4.84a2.73,2.73,0,0,0,.3,1.17,2.16,2.16,0,0,0,.75.78,2.11,2.11,0,0,0,1.05.27,2.15,2.15,0,0,0,1.85-1l.72.33a2.83,2.83,0,0,1-1.07,1,3.11,3.11,0,0,1-1.5.36,2.84,2.84,0,0,1-1.47-.39,2.8,2.8,0,0,1-1-1.09,3.27,3.27,0,0,1-.38-1.58,3.31,3.31,0,0,1,.36-1.55,2.75,2.75,0,0,1,1-1.1,2.69,2.69,0,0,1,1.46-.4,3,3,0,0,1,1.48.36,2.56,2.56,0,0,1,1,1,3.26,3.26,0,0,1,.35,1.56A.54.54,0,0,1,286.11,569.55ZM282,567.62a2.21,2.21,0,0,0-.67,1.27h4a2.15,2.15,0,0,0-.64-1.29,1.93,1.93,0,0,0-1.36-.46A1.88,1.88,0,0,0,282,567.62Z"/><path class="cls-2" d="M291,566.69a2,2,0,0,1,.8.76,2.11,2.11,0,0,1,.29,1.09v3.81h-.79v-3.48a1.82,1.82,0,0,0-.4-1.26,1.44,1.44,0,0,0-1.17-.46,1.67,1.67,0,0,0-1.23.49,1.73,1.73,0,0,0-.48,1.25v3.46h-.79v-5.77h.52l.3.67a2,2,0,0,1,.78-.61,2.43,2.43,0,0,1,1-.22A2.36,2.36,0,0,1,291,566.69Z"/><path class="cls-2" d="M298.47,566.58v5.77H298l-.3-.67a2.11,2.11,0,0,1-.77.61,2.36,2.36,0,0,1-1,.21,2.27,2.27,0,0,1-1.11-.26,2,2,0,0,1-.79-.74,2,2,0,0,1-.29-1.07v-3.85h.8v3.52a1.82,1.82,0,0,0,.38,1.22,1.48,1.48,0,0,0,1.15.44,1.59,1.59,0,0,0,1.19-.47,1.67,1.67,0,0,0,.47-1.21v-3.5Z"/><path class="cls-2" d="M300.05,572.29a.54.54,0,0,1-.18-.42.58.58,0,0,1,.18-.43.6.6,0,0,1,.44-.17.6.6,0,0,1,.43.17.58.58,0,0,1,.18.43.54.54,0,0,1-.18.42.57.57,0,0,1-.43.18A.57.57,0,0,1,300.05,572.29Z"/><path class="cls-3" d="M105.37,158.08v4.54H87.21V137.31h17.93v4.54H92.23v5.55h11v4.5h-11v6.18Z"/><path class="cls-3" d="M122.17,144.72a6.77,6.77,0,0,1,2.62,2.47,6.65,6.65,0,0,1,1,3.56v11.87h-4.54V152.16a4.25,4.25,0,0,0-1-3,3.73,3.73,0,0,0-2.85-1.09,3.84,3.84,0,0,0-2.87,1.13,4.12,4.12,0,0,0-1.11,3v10.42h-4.54V144.31h3.46l.93,2a5.67,5.67,0,0,1,2.23-1.88,7.21,7.21,0,0,1,3.09-.65A7.51,7.51,0,0,1,122.17,144.72Z"/><path class="cls-3" d="M130.6,162a7,7,0,0,1-2.76-3.13l3.72-1.64a4.09,4.09,0,0,0,1.7,1.62,4.94,4.94,0,0,0,2.36.58,3.28,3.28,0,0,0,2.08-.58,1.77,1.77,0,0,0,.75-1.47,1.41,1.41,0,0,0-.6-1.21,5.89,5.89,0,0,0-1.93-.76l-1.3-.3a10.26,10.26,0,0,1-4.62-2,4.64,4.64,0,0,1-1.49-3.61,5,5,0,0,1,.9-2.89,6.1,6.1,0,0,1,2.47-2.08,8.12,8.12,0,0,1,3.59-.76,9.08,9.08,0,0,1,4.24.94,6.23,6.23,0,0,1,2.72,2.7L138.6,149a3.39,3.39,0,0,0-1.38-1.19,4.07,4.07,0,0,0-1.82-.41,3.09,3.09,0,0,0-1.88.5,1.52,1.52,0,0,0-.69,1.28,1.37,1.37,0,0,0,.63,1.16,5.81,5.81,0,0,0,1.94.74l1.22.26a10.42,10.42,0,0,1,4.51,2,4.85,4.85,0,0,1,1.6,3.91,5.37,5.37,0,0,1-.9,3,6,6,0,0,1-2.51,2.16,8.5,8.5,0,0,1-3.74.78A9.23,9.23,0,0,1,130.6,162Z"/><path class="cls-3" d="M168.16,145.09a8.52,8.52,0,0,1,3.13,3.46,11.56,11.56,0,0,1,0,9.8,8.45,8.45,0,0,1-3.13,3.48,8.58,8.58,0,0,1-4.67,1.27,8.44,8.44,0,0,1-3.22-.63,6.16,6.16,0,0,1-2.51-1.83v8.3h-4.54V144.31h3.46l.93,2.12a6,6,0,0,1,2.51-1.94,9,9,0,0,1,8,.6Zm-1.77,12.19a5.77,5.77,0,0,0,0-7.65,5.26,5.26,0,0,0-7.44,0,5.74,5.74,0,0,0,0,7.63,5.26,5.26,0,0,0,7.44,0Z"/><path class="cls-3" d="M178.65,161.91a9.64,9.64,0,0,1-3.55-3.54,9.92,9.92,0,0,1,0-9.82,9.64,9.64,0,0,1,3.55-3.54,10.15,10.15,0,0,1,9.94,0,9.44,9.44,0,0,1,3.53,3.54,10,10,0,0,1,0,9.82,9.44,9.44,0,0,1-3.53,3.54,10.15,10.15,0,0,1-9.94,0Zm8.73-4.63a5.31,5.31,0,0,0,1.49-3.82,5.63,5.63,0,0,0-.67-2.73,4.93,4.93,0,0,0-1.88-2,5.28,5.28,0,0,0-2.7-.7,5.14,5.14,0,0,0-4.59,2.68,5.41,5.41,0,0,0-.69,2.71,5.28,5.28,0,0,0,1.5,3.82,5.07,5.07,0,0,0,3.78,1.54A5,5,0,0,0,187.38,157.28Z"/><path class="cls-3" d="M201.56,148.14v8c0,1.71.88,2.57,2.64,2.57a5,5,0,0,0,1.6-.19v4a3.68,3.68,0,0,1-1.1.3,11,11,0,0,1-1.5.11q-6.18,0-6.18-6.25v-8.6h-3v-3.83h2.65l2-4.51h2.94v4.51h4.24v3.83Z"/><path class="cls-3" d="M209.93,162a6.88,6.88,0,0,1-2.75-3.13l3.72-1.64a4,4,0,0,0,1.69,1.62,4.94,4.94,0,0,0,2.36.58,3.31,3.31,0,0,0,2.09-.58,1.78,1.78,0,0,0,.74-1.47,1.42,1.42,0,0,0-.59-1.21,6.06,6.06,0,0,0-1.94-.76l-1.3-.3a10.32,10.32,0,0,1-4.62-2,4.63,4.63,0,0,1-1.48-3.61,5,5,0,0,1,.89-2.89,6.1,6.1,0,0,1,2.47-2.08,8.19,8.19,0,0,1,3.59-.76,9.12,9.12,0,0,1,4.25.94,6.2,6.2,0,0,1,2.71,2.7L217.93,149a3.39,3.39,0,0,0-1.38-1.19,4.07,4.07,0,0,0-1.82-.41,3.11,3.11,0,0,0-1.88.5,1.52,1.52,0,0,0-.69,1.28,1.37,1.37,0,0,0,.63,1.16,5.9,5.9,0,0,0,1.94.74l1.23.26a10.43,10.43,0,0,1,4.5,2,4.81,4.81,0,0,1,1.6,3.91,5.44,5.44,0,0,1-.89,3,6.11,6.11,0,0,1-2.51,2.16,8.53,8.53,0,0,1-3.74.78A9.24,9.24,0,0,1,209.93,162Z"/><path class="cls-3" d="M238.77,148.14v8c0,1.71.88,2.57,2.64,2.57a5,5,0,0,0,1.6-.19v4a3.68,3.68,0,0,1-1.1.3,11.07,11.07,0,0,1-1.51.11q-6.17,0-6.17-6.25v-8.6h-3v-3.83h2.65l2-4.51h2.94v4.51H243v3.83Z"/><path class="cls-3" d="M256.89,144.16V149a6.43,6.43,0,0,0-1.86-.26,4.05,4.05,0,0,0-3.55,1.52,7,7,0,0,0-1.1,4.17v8.19h-4.54V144.31h3.46l1.08,2.42a5.14,5.14,0,0,1,1.91-2,6.42,6.42,0,0,1,4.6-.58Z"/><path class="cls-3" d="M262.49,161.91a9.76,9.76,0,0,1,0-16.9,10.13,10.13,0,0,1,9.93,0,9.47,9.47,0,0,1,3.54,3.54,10.06,10.06,0,0,1,0,9.82,9.47,9.47,0,0,1-3.54,3.54,10.13,10.13,0,0,1-9.93,0Zm8.73-4.63a5.31,5.31,0,0,0,1.48-3.82,5.63,5.63,0,0,0-.67-2.73,4.86,4.86,0,0,0-1.88-2,5.28,5.28,0,0,0-7.29,2,5.41,5.41,0,0,0-.69,2.71,5.29,5.29,0,0,0,1.51,3.82,5.38,5.38,0,0,0,7.54,0Z"/><path class="cls-3" d="M294.75,145.09a8.64,8.64,0,0,1,3.15,3.46,11.37,11.37,0,0,1,0,9.8,8.48,8.48,0,0,1-7.82,4.75,8.24,8.24,0,0,1-3.33-.69,6.53,6.53,0,0,1-2.55-1.92l-.93,2.13h-3.42V136.2h4.54v10a6.15,6.15,0,0,1,2.49-1.77,8.52,8.52,0,0,1,3.2-.62A8.67,8.67,0,0,1,294.75,145.09ZM293,157.28a5.74,5.74,0,0,0,0-7.65,5.26,5.26,0,0,0-7.42,0,5.83,5.83,0,0,0,0,7.65,5.24,5.24,0,0,0,7.42,0Z"/><path class="cls-3" d="M313.1,144.53a6.61,6.61,0,0,1,2.77,2.34,6.08,6.08,0,0,1,1,3.35v12.4h-3.46l-.82-1.83a5.62,5.62,0,0,1-2.22,1.73,7.61,7.61,0,0,1-3.18.62,7.16,7.16,0,0,1-4.93-1.64,5.41,5.41,0,0,1-1.84-4.24,5.25,5.25,0,0,1,2-4.3,8.59,8.59,0,0,1,5.56-1.62h4.36v-.74a2.6,2.6,0,0,0-1-2.16,4,4,0,0,0-2.62-.82,5.08,5.08,0,0,0-4,1.82l-3.76-1.67a8.73,8.73,0,0,1,3.18-3,9.6,9.6,0,0,1,4.78-1.13A9.8,9.8,0,0,1,313.1,144.53Zm-2,14a3.55,3.55,0,0,0,1.16-2.85v-1.15h-3.72a4.6,4.6,0,0,0-2.7.67,2.11,2.11,0,0,0-.95,1.82,2.18,2.18,0,0,0,.89,1.83,4,4,0,0,0,2.42.67A4.29,4.29,0,0,0,311.14,158.54Z"/><path class="cls-3" d="M331.57,144.16V149a6.34,6.34,0,0,0-1.86-.26,4.05,4.05,0,0,0-3.55,1.52,7,7,0,0,0-1.1,4.17v8.19h-4.54V144.31H324l1.08,2.42a5.16,5.16,0,0,1,1.92-2,6.4,6.4,0,0,1,4.59-.58Z"/><path class="cls-3" d="M134.8,179.15a6.55,6.55,0,0,1,2.77,2.34,6,6,0,0,1,1,3.35v12.39h-3.46l-.82-1.82a5.75,5.75,0,0,1-2.21,1.73,7.69,7.69,0,0,1-3.19.61,7.13,7.13,0,0,1-4.93-1.64,5.42,5.42,0,0,1-1.84-4.24,5.29,5.29,0,0,1,2-4.3,8.67,8.67,0,0,1,5.57-1.61H134v-.75a2.64,2.64,0,0,0-1-2.16,4.13,4.13,0,0,0-2.63-.82,5.09,5.09,0,0,0-4,1.83l-3.76-1.68a8.66,8.66,0,0,1,3.19-2.95,9.58,9.58,0,0,1,4.78-1.14A9.75,9.75,0,0,1,134.8,179.15Zm-2,14a3.54,3.54,0,0,0,1.15-2.85v-1.15h-3.72a4.6,4.6,0,0,0-2.7.67,2.11,2.11,0,0,0-1,1.82,2.14,2.14,0,0,0,.9,1.82,3.9,3.9,0,0,0,2.41.67A4.36,4.36,0,0,0,132.85,193.16Z"/><path class="cls-4" d="M174.06,179.26a6.24,6.24,0,0,1,2.38,2.4,7,7,0,0,1,.87,3.51v12.06h-4.54V186.48a4.09,4.09,0,0,0-.87-2.81,3.12,3.12,0,0,0-2.47-1,3.29,3.29,0,0,0-2.53,1,4,4,0,0,0-1,2.83v10.68h-4.54V186.48a4,4,0,0,0-.9-2.79,3.1,3.1,0,0,0-2.45-1,3.32,3.32,0,0,0-2.53,1,4,4,0,0,0-1,2.85v10.68H150V178.92h3.46l.89,2a5.53,5.53,0,0,1,2.11-1.88,6.29,6.29,0,0,1,2.88-.65,6.64,6.64,0,0,1,3.22.78,6.09,6.09,0,0,1,2.29,2.16,7.19,7.19,0,0,1,9.21-2.08Z"/><path class="cls-4" d="M198.45,189.45H184.38a5.34,5.34,0,0,0,1.81,3.09,5.11,5.11,0,0,0,3.37,1.16,5.3,5.3,0,0,0,4.28-2l4,1.79a9.31,9.31,0,0,1-8.33,4.32,9.51,9.51,0,0,1-4.89-1.29,9.33,9.33,0,0,1-3.5-3.5,9.6,9.6,0,0,1-1.29-4.93,10.4,10.4,0,0,1,1.19-5,9,9,0,0,1,8.19-4.83,9.69,9.69,0,0,1,4.89,1.21,8.39,8.39,0,0,1,3.32,3.36,10.16,10.16,0,0,1,1.17,4.92A7.54,7.54,0,0,1,198.45,189.45Zm-12.35-6.12a5.05,5.05,0,0,0-1.68,2.89h9.68a5,5,0,0,0-1.6-2.91,4.94,4.94,0,0,0-3.28-1A4.66,4.66,0,0,0,186.1,183.33Z"/><path class="cls-4" d="M214.58,179.33a6.79,6.79,0,0,1,2.62,2.48,6.62,6.62,0,0,1,1,3.55v11.87h-4.54V186.77a4.22,4.22,0,0,0-1-3,3.71,3.71,0,0,0-2.85-1.1,3.81,3.81,0,0,0-2.86,1.14,4,4,0,0,0-1.12,3v10.42h-4.54V178.92h3.46l.93,2.05a5.58,5.58,0,0,1,2.23-1.88,7.21,7.21,0,0,1,3.09-.65A7.56,7.56,0,0,1,214.58,179.33Z"/><path class="cls-4" d="M238.6,178.92v18.31h-3.46l-.89-2.08A6,6,0,0,1,232,197a6.75,6.75,0,0,1-3,.67,7.48,7.48,0,0,1-3.57-.87,6.58,6.58,0,0,1-3.53-6v-12h4.53v10.57a4,4,0,0,0,1,2.9,3.63,3.63,0,0,0,2.75,1.05,3.81,3.81,0,0,0,2.81-1.1,3.92,3.92,0,0,0,1.1-2.89V178.92Z"/><path class="cls-4" d="M257.37,179.7a8.51,8.51,0,0,1,3.13,3.46,11.49,11.49,0,0,1,0,9.81,8.38,8.38,0,0,1-3.13,3.48,8.66,8.66,0,0,1-4.67,1.26,8.47,8.47,0,0,1-3.22-.63,6.23,6.23,0,0,1-2.51-1.82v8.3h-4.54V178.92h3.46l.93,2.12a5.92,5.92,0,0,1,2.52-1.93,8.44,8.44,0,0,1,3.36-.67A8.66,8.66,0,0,1,257.37,179.7Zm-1.76,12.19a5.77,5.77,0,0,0,0-7.65,4.94,4.94,0,0,0-3.73-1.52,4.88,4.88,0,0,0-3.72,1.54,5.74,5.74,0,0,0,0,7.63,5.25,5.25,0,0,0,7.45,0Z"/><path class="cls-4" d="M264.24,170.81h4.54v26.42h-4.54Z"/><path class="cls-4" d="M273,175.46a2.58,2.58,0,0,1-.78-1.9,2.7,2.7,0,0,1,2.76-2.71,2.71,2.71,0,0,1,2,.8,2.6,2.6,0,0,1,.82,1.91,2.56,2.56,0,0,1-.82,1.88,2.71,2.71,0,0,1-2,.8A2.68,2.68,0,0,1,273,175.46Zm-.26,3.46h4.54v18.31h-4.54Z"/><path class="cls-4" d="M282.21,196.56a6.91,6.91,0,0,1-2.75-3.12l3.72-1.64a4.19,4.19,0,0,0,1.69,1.62,5,5,0,0,0,2.36.57,3.37,3.37,0,0,0,2.09-.57,1.81,1.81,0,0,0,.74-1.47,1.41,1.41,0,0,0-.59-1.21,5.94,5.94,0,0,0-1.94-.77l-1.3-.29a10.27,10.27,0,0,1-4.61-2.05,4.59,4.59,0,0,1-1.49-3.61,5,5,0,0,1,.89-2.88,6.19,6.19,0,0,1,2.47-2.09,8.2,8.2,0,0,1,3.6-.76,9.11,9.11,0,0,1,4.24,1,6.1,6.1,0,0,1,2.71,2.7l-3.83,1.67a3.39,3.39,0,0,0-1.38-1.19A4.18,4.18,0,0,0,287,182a3.18,3.18,0,0,0-1.88.5,1.55,1.55,0,0,0-.69,1.29,1.34,1.34,0,0,0,.64,1.15,5.52,5.52,0,0,0,1.93.75l1.23.26a10.32,10.32,0,0,1,4.5,2,4.78,4.78,0,0,1,1.6,3.9,5.47,5.47,0,0,1-.89,3,6,6,0,0,1-2.51,2.16,8.53,8.53,0,0,1-3.74.78A9.15,9.15,0,0,1,282.21,196.56Z"/><path class="cls-3" d="M79.6,212.52A4.06,4.06,0,0,1,81.16,214a4.43,4.43,0,0,1,0,4.31,4,4,0,0,1-1.56,1.48,4.55,4.55,0,0,1-2.22.53H74.05v4.59H72.26V212h5.12A4.56,4.56,0,0,1,79.6,212.52Zm-.49,5.56a2.31,2.31,0,0,0,.82-1.92,2.28,2.28,0,0,0-.82-1.92,3.08,3.08,0,0,0-2-.64h-3.1v5.13h3.1A3,3,0,0,0,79.11,218.08Z"/><path class="cls-3" d="M91.24,215.67v9.25H90l-.46-1a3.18,3.18,0,0,1-1.19,1,3.94,3.94,0,0,1-3.37-.1,3.12,3.12,0,0,1-1.27-1.2,3.2,3.2,0,0,1-.47-1.74v-6.13H85v5.52a2.54,2.54,0,0,0,.58,1.76,2.11,2.11,0,0,0,1.65.64,2.25,2.25,0,0,0,1.71-.68,2.35,2.35,0,0,0,.67-1.74v-5.5Z"/><path class="cls-3" d="M102,220.68h-7.5a3.38,3.38,0,0,0,1,2.18,2.91,2.91,0,0,0,2.1.81,3.13,3.13,0,0,0,2.64-1.34l1.51.67a4.68,4.68,0,0,1-1.75,1.65,5.18,5.18,0,0,1-2.4.56,4.69,4.69,0,0,1-2.41-.63,4.54,4.54,0,0,1-1.7-1.75,5.16,5.16,0,0,1-.62-2.51,5.22,5.22,0,0,1,.6-2.5,4.41,4.41,0,0,1,4-2.42,4.78,4.78,0,0,1,2.39.59,4.2,4.2,0,0,1,1.62,1.67,5.1,5.1,0,0,1,.58,2.48A2.58,2.58,0,0,1,102,220.68Zm-6.46-3.12a3.21,3.21,0,0,0-1,1.82h5.79a3,3,0,0,0-.93-1.83,2.83,2.83,0,0,0-2-.66A2.75,2.75,0,0,0,95.55,217.56Z"/><path class="cls-3" d="M112.48,211.41v13.51H111.3l-.55-1.23a3.53,3.53,0,0,1-1.38,1.08,4.49,4.49,0,0,1-1.84.38,4.35,4.35,0,0,1-4-2.39,5.62,5.62,0,0,1,0-4.93,4.35,4.35,0,0,1,4-2.39,4.55,4.55,0,0,1,1.87.4,3.6,3.6,0,0,1,1.41,1.14v-5.57Zm-3.06,11.74a3,3,0,0,0,1.1-1.19,3.42,3.42,0,0,0,.4-1.66,3.46,3.46,0,0,0-.4-1.67,3,3,0,0,0-1.1-1.18,3,3,0,0,0-1.62-.43,3.08,3.08,0,0,0-1.63.43,3,3,0,0,0-1.11,1.18,3.46,3.46,0,0,0-.4,1.67,3.42,3.42,0,0,0,.4,1.66,3,3,0,0,0,1.11,1.19,3.08,3.08,0,0,0,1.63.44A3,3,0,0,0,109.42,223.15Z"/><path class="cls-3" d="M123.26,220.68h-7.5a3.38,3.38,0,0,0,1,2.18,2.9,2.9,0,0,0,2.09.81,3.13,3.13,0,0,0,2.65-1.34l1.5.67a4.61,4.61,0,0,1-1.75,1.65,5.12,5.12,0,0,1-2.4.56,4.62,4.62,0,0,1-2.4-.63,4.47,4.47,0,0,1-1.7-1.75,5.16,5.16,0,0,1-.62-2.51,5.33,5.33,0,0,1,.59-2.5,4.44,4.44,0,0,1,4-2.42,4.78,4.78,0,0,1,2.39.59,4.2,4.2,0,0,1,1.62,1.67,5.22,5.22,0,0,1,.58,2.48A3.51,3.51,0,0,1,123.26,220.68Zm-6.46-3.12a3.15,3.15,0,0,0-1,1.82h5.78a3,3,0,0,0-.92-1.83,2.84,2.84,0,0,0-2-.66A2.73,2.73,0,0,0,116.8,217.56Z"/><path class="cls-3" d="M125.41,224.61a3.46,3.46,0,0,1-1.37-1.5l1.45-.64a2.37,2.37,0,0,0,.92.91,2.72,2.72,0,0,0,1.38.34,2,2,0,0,0,1.33-.4,1.24,1.24,0,0,0,.5-1,1,1,0,0,0-.39-.84A3.48,3.48,0,0,0,128,221l-.76-.19a4.76,4.76,0,0,1-2.12-1,2.17,2.17,0,0,1-.68-1.67,2.29,2.29,0,0,1,.43-1.36,2.85,2.85,0,0,1,1.19-1,3.84,3.84,0,0,1,1.71-.38,4.38,4.38,0,0,1,2,.43,3.07,3.07,0,0,1,1.32,1.25l-1.49.65a1.8,1.8,0,0,0-.76-.66,2.47,2.47,0,0,0-1.07-.22,2,2,0,0,0-1.2.34,1,1,0,0,0-.47.86.91.91,0,0,0,.38.76,3.28,3.28,0,0,0,1.16.48l.71.17a5.32,5.32,0,0,1,2.19,1,2.29,2.29,0,0,1,.76,1.85,2.61,2.61,0,0,1-.44,1.46,2.89,2.89,0,0,1-1.23,1.05,4.11,4.11,0,0,1-1.78.38A4.47,4.47,0,0,1,125.41,224.61Z"/><path class="cls-3" d="M145.42,220.68h-7.5a3.38,3.38,0,0,0,1,2.18,2.9,2.9,0,0,0,2.09.81,3.13,3.13,0,0,0,2.65-1.34l1.5.67a4.61,4.61,0,0,1-1.75,1.65,5.12,5.12,0,0,1-2.4.56,4.65,4.65,0,0,1-2.4-.63,4.47,4.47,0,0,1-1.7-1.75,5.16,5.16,0,0,1-.62-2.51,5.33,5.33,0,0,1,.59-2.5,4.52,4.52,0,0,1,1.64-1.77,4.45,4.45,0,0,1,2.38-.65,4.78,4.78,0,0,1,2.39.59,4.2,4.2,0,0,1,1.62,1.67,5.22,5.22,0,0,1,.58,2.48A3.51,3.51,0,0,1,145.42,220.68ZM139,217.56a3.15,3.15,0,0,0-1,1.82h5.78a3,3,0,0,0-.92-1.83,2.84,2.84,0,0,0-2-.66A2.75,2.75,0,0,0,139,217.56Z"/><path class="cls-3" d="M153.39,215.86a3.27,3.27,0,0,1,1.3,1.23,3.37,3.37,0,0,1,.48,1.78v6h-1.68v-5.44a2.59,2.59,0,0,0-.59-1.82,2.16,2.16,0,0,0-1.71-.66,2.3,2.3,0,0,0-1.74.7,2.47,2.47,0,0,0-.68,1.8v5.42h-1.68v-9.25h1.19l.47,1.07a3.1,3.1,0,0,1,1.21-1,3.72,3.72,0,0,1,1.61-.35A3.88,3.88,0,0,1,153.39,215.86Z"/><path class="cls-3" d="M159.15,224.55a4.8,4.8,0,0,1-1.77-1.78,5,5,0,0,1-.63-2.47,4.81,4.81,0,0,1,.64-2.47,5,5,0,0,1,1.76-1.77,4.78,4.78,0,0,1,2.47-.66A4.91,4.91,0,0,1,164,216a4.73,4.73,0,0,1,1.74,1.64l-1.56.67a3.08,3.08,0,0,0-2.57-1.32,3.14,3.14,0,0,0-2.78,1.63,3.53,3.53,0,0,0,0,3.34,3,3,0,0,0,1.15,1.19,3.13,3.13,0,0,0,1.63.43,3.08,3.08,0,0,0,2.57-1.29l1.56.66A4.73,4.73,0,0,1,164,224.6a5,5,0,0,1-4.86,0Z"/><path class="cls-3" d="M168.76,224.55a4.7,4.7,0,0,1-1.76-1.78,4.93,4.93,0,0,1,1.77-6.71,4.72,4.72,0,0,1,2.46-.66,4.78,4.78,0,0,1,2.49.66,4.9,4.9,0,0,1,1.76,1.77,4.82,4.82,0,0,1,.65,2.47,4.9,4.9,0,0,1-2.41,4.25,5,5,0,0,1-5,0Zm4.11-1.39A3,3,0,0,0,174,222a3.53,3.53,0,0,0,0-3.34,3.19,3.19,0,0,0-4.4-1.19,3.06,3.06,0,0,0-1.15,1.19,3.53,3.53,0,0,0,0,3.34,2.93,2.93,0,0,0,1.15,1.19,3.3,3.3,0,0,0,3.26,0Z"/><path class="cls-3" d="M184,215.86a3.27,3.27,0,0,1,1.3,1.23,3.37,3.37,0,0,1,.48,1.78v6h-1.68v-5.44a2.59,2.59,0,0,0-.59-1.82,2.16,2.16,0,0,0-1.71-.66,2.3,2.3,0,0,0-1.74.7,2.47,2.47,0,0,0-.68,1.8v5.42h-1.67v-9.25h1.18l.47,1.07a3.1,3.1,0,0,1,1.21-1,3.76,3.76,0,0,1,1.61-.35A3.85,3.85,0,0,1,184,215.86Z"/><path class="cls-3" d="M190.06,217.1v5a1.24,1.24,0,0,0,1.39,1.42,2.69,2.69,0,0,0,.88-.11v1.5a2,2,0,0,1-.5.13,5.07,5.07,0,0,1-.68,0,2.45,2.45,0,0,1-2.76-2.78V217.1h-1.58v-1.43h1.29l1-2.15h1v2.15h2.27v1.43Z"/><path class="cls-3" d="M199.07,215.63v1.73a3.38,3.38,0,0,0-.9-.13,2.21,2.21,0,0,0-1.9.83,3.42,3.42,0,0,0-.61,2.1v4.76H194v-9.25h1.18l.53,1.22a2.67,2.67,0,0,1,1-1,3,3,0,0,1,1.51-.37A3.67,3.67,0,0,1,199.07,215.63Z"/><path class="cls-3" d="M205.5,215.79a3.25,3.25,0,0,1,1.34,1.13,2.9,2.9,0,0,1,.47,1.62v6.38h-1.18l-.46-1a2.67,2.67,0,0,1-1.13.93,3.9,3.9,0,0,1-1.66.33,3.79,3.79,0,0,1-2.55-.81,2.7,2.7,0,0,1-.94-2.14,2.64,2.64,0,0,1,1-2.16,4.43,4.43,0,0,1,2.84-.81h2.4v-.55a1.64,1.64,0,0,0-.61-1.31,2.41,2.41,0,0,0-1.56-.5,2.83,2.83,0,0,0-1.39.32,3,3,0,0,0-.9.76l-1.44-.64a4,4,0,0,1,1.53-1.4,4.47,4.47,0,0,1,2.25-.55A4.58,4.58,0,0,1,205.5,215.79Zm-.59,7.37a2.11,2.11,0,0,0,.73-1.74v-.88h-2.25a2.91,2.91,0,0,0-1.71.43,1.51,1.51,0,0,0,0,2.36,2.33,2.33,0,0,0,1.48.43A2.69,2.69,0,0,0,204.91,223.16Z"/><path class="cls-3" d="M214.68,215.63v1.73a3.36,3.36,0,0,0-.89-.13,2.22,2.22,0,0,0-1.91.83,3.48,3.48,0,0,0-.61,2.1v4.76H209.6v-9.25h1.18l.53,1.22a2.67,2.67,0,0,1,1-1,3,3,0,0,1,1.51-.37A3.61,3.61,0,0,1,214.68,215.63Z"/><path class="cls-3" d="M222.21,215.86a3.21,3.21,0,0,1,1.3,1.23,3.37,3.37,0,0,1,.48,1.78v6h-1.68v-5.44a2.59,2.59,0,0,0-.59-1.82A2.16,2.16,0,0,0,220,217a2.3,2.3,0,0,0-1.74.7,2.47,2.47,0,0,0-.68,1.8v5.42h-1.67v-9.25h1.18l.47,1.07a3.1,3.1,0,0,1,1.21-1,3.76,3.76,0,0,1,1.61-.35A3.85,3.85,0,0,1,222.21,215.86Z"/><path class="cls-3" d="M228,224.55a4.7,4.7,0,0,1-1.76-1.78,4.93,4.93,0,0,1,1.77-6.71,4.72,4.72,0,0,1,2.46-.66,4.78,4.78,0,0,1,2.49.66,4.9,4.9,0,0,1,1.76,1.77,4.82,4.82,0,0,1,.65,2.47,4.9,4.9,0,0,1-2.41,4.25,5,5,0,0,1-5,0Zm4.11-1.39a3,3,0,0,0,1.14-1.19,3.53,3.53,0,0,0,0-3.34,3.18,3.18,0,0,0-1.14-1.19,3.24,3.24,0,0,0-3.26,0,3.16,3.16,0,0,0-1.16,1.19,3.61,3.61,0,0,0,0,3.34,3,3,0,0,0,1.16,1.19,3.3,3.3,0,0,0,3.26,0Z"/><path class="cls-3" d="M237.34,224.61a3.42,3.42,0,0,1-1.38-1.5l1.45-.64a2.46,2.46,0,0,0,.93.91,2.69,2.69,0,0,0,1.38.34,2,2,0,0,0,1.33-.4,1.23,1.23,0,0,0,.49-1,1,1,0,0,0-.39-.84,3.41,3.41,0,0,0-1.24-.51l-.77-.19a4.82,4.82,0,0,1-2.12-1,2.16,2.16,0,0,1-.67-1.67,2.35,2.35,0,0,1,.42-1.36,3,3,0,0,1,1.19-1,3.85,3.85,0,0,1,1.72-.38,4.41,4.41,0,0,1,2,.43,3,3,0,0,1,1.31,1.25l-1.48.65a1.87,1.87,0,0,0-.76-.66,2.5,2.5,0,0,0-1.07-.22,2,2,0,0,0-1.21.34,1,1,0,0,0-.47.86.91.91,0,0,0,.38.76,3.43,3.43,0,0,0,1.17.48l.7.17a5.37,5.37,0,0,1,2.2,1,2.31,2.31,0,0,1,.75,1.85,2.53,2.53,0,0,1-.44,1.46,2.92,2.92,0,0,1-1.22,1.05,4.11,4.11,0,0,1-1.78.38A4.44,4.44,0,0,1,237.34,224.61Z"/><path class="cls-3" d="M257.34,220.68h-7.5a3.43,3.43,0,0,0,1,2.18,2.91,2.91,0,0,0,2.1.81,3.16,3.16,0,0,0,2.65-1.34l1.5.67a4.68,4.68,0,0,1-1.75,1.65,5.12,5.12,0,0,1-2.4.56,4.69,4.69,0,0,1-2.41-.63,4.45,4.45,0,0,1-1.69-1.75,5.05,5.05,0,0,1-.62-2.51,5.21,5.21,0,0,1,.59-2.5,4.44,4.44,0,0,1,4-2.42,4.76,4.76,0,0,1,2.39.59,4.07,4.07,0,0,1,1.62,1.67,5.1,5.1,0,0,1,.58,2.48A2.58,2.58,0,0,1,257.34,220.68Zm-6.46-3.12a3.21,3.21,0,0,0-1,1.82h5.79a3.05,3.05,0,0,0-.92-1.83,2.85,2.85,0,0,0-2-.66A2.75,2.75,0,0,0,250.88,217.56Z"/><path class="cls-3" d="M265.31,215.86a3.24,3.24,0,0,1,1.31,1.23,3.45,3.45,0,0,1,.47,1.78v6h-1.67v-5.44a2.64,2.64,0,0,0-.59-1.82,2.2,2.2,0,0,0-1.72-.66,2.3,2.3,0,0,0-1.74.7,2.46,2.46,0,0,0-.67,1.8v5.42H259v-9.25h1.18l.48,1.07a3,3,0,0,1,1.21-1,3.68,3.68,0,0,1,1.6-.35A3.85,3.85,0,0,1,265.31,215.86Z"/><path class="cls-3" d="M285.14,215.84a3,3,0,0,1,1.17,1.16,3.35,3.35,0,0,1,.43,1.72v6.2h-1.68v-5.69a2.48,2.48,0,0,0-.49-1.65,1.89,1.89,0,0,0-1.5-.58,2,2,0,0,0-1.52.64,2.26,2.26,0,0,0-.6,1.61v5.67h-1.67v-5.69a2.39,2.39,0,0,0-.52-1.64,1.86,1.86,0,0,0-1.48-.59,2,2,0,0,0-1.52.63,2.33,2.33,0,0,0-.58,1.62v5.67h-1.67v-9.25h1.18l.46,1a2.49,2.49,0,0,1,1.05-.93,3.25,3.25,0,0,1,1.48-.33,3.35,3.35,0,0,1,1.66.41A3,3,0,0,1,280.5,217a3.6,3.6,0,0,1,4.64-1.12Z"/><path class="cls-3" d="M297.48,220.68H290a3.38,3.38,0,0,0,1,2.18,2.88,2.88,0,0,0,2.09.81,3.13,3.13,0,0,0,2.65-1.34l1.5.67a4.68,4.68,0,0,1-1.75,1.65,5.12,5.12,0,0,1-2.4.56,4.69,4.69,0,0,1-2.41-.63,4.52,4.52,0,0,1-1.69-1.75,5.16,5.16,0,0,1-.62-2.51,5.33,5.33,0,0,1,.59-2.5,4.44,4.44,0,0,1,4-2.42,4.81,4.81,0,0,1,2.39.59,4.2,4.2,0,0,1,1.62,1.67,5.22,5.22,0,0,1,.58,2.48A3.51,3.51,0,0,1,297.48,220.68ZM291,217.56a3.27,3.27,0,0,0-1,1.82h5.79a3,3,0,0,0-.92-1.83,2.84,2.84,0,0,0-2-.66A2.78,2.78,0,0,0,291,217.56Z"/><path class="cls-3" d="M305.45,215.86a3.27,3.27,0,0,1,1.3,1.23,3.37,3.37,0,0,1,.48,1.78v6h-1.68v-5.44a2.64,2.64,0,0,0-.59-1.82,2.16,2.16,0,0,0-1.71-.66,2.32,2.32,0,0,0-1.75.7,2.46,2.46,0,0,0-.67,1.8v5.42h-1.68v-9.25h1.18l.48,1.07a3.1,3.1,0,0,1,1.21-1,3.72,3.72,0,0,1,1.61-.35A3.88,3.88,0,0,1,305.45,215.86Z"/><path class="cls-3" d="M317.45,215.67v9.25h-1.2l-.46-1a3.18,3.18,0,0,1-1.19,1,3.68,3.68,0,0,1-1.57.33,3.74,3.74,0,0,1-1.8-.43,3.12,3.12,0,0,1-1.27-1.2,3.29,3.29,0,0,1-.47-1.74v-6.13h1.68v5.52a2.49,2.49,0,0,0,.58,1.76,2.07,2.07,0,0,0,1.64.64,2.29,2.29,0,0,0,1.72-.68,2.38,2.38,0,0,0,.66-1.74v-5.5Z"/><path class="cls-3" d="M327.13,216.08a4.32,4.32,0,0,1,1.61,1.75,5.62,5.62,0,0,1,0,4.93,4.32,4.32,0,0,1-1.61,1.75,4.65,4.65,0,0,1-4.24.24,3.64,3.64,0,0,1-1.41-1.12v4.53h-1.67V215.67H321l.53,1.24a3.58,3.58,0,0,1,1.39-1.09,4.57,4.57,0,0,1,1.85-.38A4.38,4.38,0,0,1,327.13,216.08Zm-1,7.07a3,3,0,0,0,1.11-1.19,3.42,3.42,0,0,0,.4-1.66,3.46,3.46,0,0,0-.4-1.67,2.93,2.93,0,0,0-1.11-1.18,3.08,3.08,0,0,0-1.63-.43,3,3,0,0,0-1.62.43,3.05,3.05,0,0,0-1.1,1.18,3.46,3.46,0,0,0-.4,1.67,3.42,3.42,0,0,0,.4,1.66,3.08,3.08,0,0,0,1.1,1.19,3,3,0,0,0,1.62.44A3.08,3.08,0,0,0,326.12,223.15Z"/><path class="cls-3" d="M331,211.41h1.67v13.51H331Z"/><path class="cls-3" d="M335,213.61a1,1,0,0,1-.32-.78,1.06,1.06,0,0,1,.32-.78,1.16,1.16,0,0,1,1.6,0,1.1,1.1,0,0,1,.32.78,1.06,1.06,0,0,1-.32.78,1.13,1.13,0,0,1-1.6,0Zm0,2.06h1.68v9.25H335Z"/><path class="cls-3" d="M339.47,224.61a3.46,3.46,0,0,1-1.37-1.5l1.45-.64a2.44,2.44,0,0,0,.92.91,2.72,2.72,0,0,0,1.38.34,2.06,2.06,0,0,0,1.34-.4,1.23,1.23,0,0,0,.49-1,1,1,0,0,0-.39-.84A3.4,3.4,0,0,0,342,221l-.76-.19a4.82,4.82,0,0,1-2.12-1,2.17,2.17,0,0,1-.68-1.67,2.36,2.36,0,0,1,.43-1.36,2.91,2.91,0,0,1,1.19-1,3.85,3.85,0,0,1,1.72-.38,4.41,4.41,0,0,1,2,.43,3,3,0,0,1,1.31,1.25l-1.48.65a1.83,1.83,0,0,0-.77-.66,2.42,2.42,0,0,0-1.06-.22,2,2,0,0,0-1.21.34,1,1,0,0,0-.47.86.91.91,0,0,0,.38.76,3.37,3.37,0,0,0,1.16.48l.71.17a5.37,5.37,0,0,1,2.2,1,2.31,2.31,0,0,1,.75,1.85,2.61,2.61,0,0,1-.44,1.46,2.89,2.89,0,0,1-1.23,1.05,4.08,4.08,0,0,1-1.78.38A4.49,4.49,0,0,1,339.47,224.61Z"/><path class="cls-3" d="M112.41,242.7v4.72h-1.2v-4.67l-4.55-7.1H108l3.81,5.87,3.75-5.87h1.35Z"/><path class="cls-3" d="M118,247.08a4.41,4.41,0,0,1-2.15-3.83,4.29,4.29,0,0,1,.58-2.21,4.38,4.38,0,0,1,1.57-1.6,4.43,4.43,0,0,1,4.42,0,4.43,4.43,0,0,1,0,7.64,4.43,4.43,0,0,1-4.42,0Zm3.84-1a3.11,3.11,0,0,0,1.16-1.2,3.5,3.5,0,0,0,0-3.36,3.21,3.21,0,0,0-4.42-1.2,3.16,3.16,0,0,0-1.15,1.2,3.57,3.57,0,0,0,0,3.36,3.16,3.16,0,0,0,1.15,1.2,3.24,3.24,0,0,0,3.26,0Z"/><path class="cls-3" d="M133.09,239.1v8.32h-.74l-.44-1a3.16,3.16,0,0,1-1.1.89,3.5,3.5,0,0,1-1.46.31,3.4,3.4,0,0,1-1.6-.38,2.84,2.84,0,0,1-1.13-1.07,2.88,2.88,0,0,1-.42-1.55V239.1h1.14v5.09a2.51,2.51,0,0,0,.57,1.75,2.08,2.08,0,0,0,1.65.63,2.28,2.28,0,0,0,1.72-.68,2.37,2.37,0,0,0,.67-1.74V239.1Z"/><path class="cls-3" d="M140.68,247.08a4.39,4.39,0,0,1-2.16-3.83,4.39,4.39,0,0,1,.58-2.21,4.49,4.49,0,0,1,1.58-1.6,4.27,4.27,0,0,1,2.21-.59,4.46,4.46,0,0,1,2.12.52,4.07,4.07,0,0,1,1.53,1.44l-1.07.45a3.06,3.06,0,0,0-1.1-1,3.2,3.2,0,0,0-1.48-.35,3.12,3.12,0,0,0-2.78,1.64,3.5,3.5,0,0,0,0,3.36,3.09,3.09,0,0,0,1.15,1.2,3,3,0,0,0,1.63.44,3.19,3.19,0,0,0,1.48-.34,2.94,2.94,0,0,0,1.1-1l1.07.45a4.07,4.07,0,0,1-1.53,1.44,4.46,4.46,0,0,1-2.12.52A4.27,4.27,0,0,1,140.68,247.08Z"/><path class="cls-3" d="M152.75,239.19a2.91,2.91,0,0,1,1.17,1,2.49,2.49,0,0,1,.42,1.42v5.83h-.74l-.42-.95a2.55,2.55,0,0,1-1,.87,3.73,3.73,0,0,1-1.53.31,3.46,3.46,0,0,1-2.3-.72,2.39,2.39,0,0,1-.86-1.93,2.37,2.37,0,0,1,.9-1.95,4,4,0,0,1,2.57-.72h2.28v-.6a1.67,1.67,0,0,0-.6-1.33,2.28,2.28,0,0,0-1.55-.51,2.61,2.61,0,0,0-1.36.33,3,3,0,0,0-.88.75l-1-.45a3.4,3.4,0,0,1,1.33-1.21,3.9,3.9,0,0,1,1.94-.47A3.94,3.94,0,0,1,152.75,239.19Zm-.29,6.82a2.15,2.15,0,0,0,.74-1.75v-1H151a2.91,2.91,0,0,0-1.76.45,1.48,1.48,0,0,0-.59,1.24,1.46,1.46,0,0,0,.57,1.21,2.41,2.41,0,0,0,1.5.44A2.73,2.73,0,0,0,152.46,246Z"/><path class="cls-3" d="M162.06,239.26a3,3,0,0,1,1.58,2.68v5.48h-1.15v-5a2.65,2.65,0,0,0-.57-1.81,2.11,2.11,0,0,0-1.69-.66,2.34,2.34,0,0,0-1.77.71,2.47,2.47,0,0,0-.69,1.8v5h-1.14V239.1h.74l.43,1a3,3,0,0,1,1.14-.89,3.66,3.66,0,0,1,1.5-.31A3.35,3.35,0,0,1,162.06,239.26Z"/><path class="cls-3" d="M172.12,236.48a1.58,1.58,0,0,0-.44,1.16v1.46h2.13v1h-2.13v7.34h-1.14v-7.34H168.9v-1h1.64v-1.58a2.41,2.41,0,0,1,.72-1.82,3.25,3.25,0,0,1,2.64-.64v1a2.61,2.61,0,0,0-.54,0A1.71,1.71,0,0,0,172.12,236.48Zm3.59.56a.78.78,0,0,1-.25-.59.82.82,0,0,1,.25-.6.84.84,0,0,1,.6-.25.79.79,0,0,1,.58.25.82.82,0,0,1,.25.6.83.83,0,0,1-.25.58.79.79,0,0,1-.58.25A.83.83,0,0,1,175.71,237Zm0,2.06h1.14v8.32h-1.14Z"/><path class="cls-3" d="M184.7,239.26a3,3,0,0,1,1.15,1.09,3,3,0,0,1,.42,1.59v5.48h-1.14v-5a2.65,2.65,0,0,0-.57-1.81,2.11,2.11,0,0,0-1.69-.66,2.34,2.34,0,0,0-1.77.71,2.47,2.47,0,0,0-.69,1.8v5h-1.14V239.1H180l.43,1a3,3,0,0,1,1.14-.89,3.64,3.64,0,0,1,1.49-.31A3.39,3.39,0,0,1,184.7,239.26Z"/><path class="cls-3" d="M196.35,235.13v12.29h-.75l-.52-1.19a3.62,3.62,0,0,1-1.34,1,4,4,0,0,1-1.74.37,4,4,0,0,1-2.14-.58,4,4,0,0,1-1.46-1.57,4.62,4.62,0,0,1-.53-2.23,4.57,4.57,0,0,1,.53-2.21,4,4,0,0,1,1.46-1.57,4,4,0,0,1,2.14-.58,4.09,4.09,0,0,1,1.85.42,3.54,3.54,0,0,1,1.36,1.15v-5.33Zm-2.58,11a3,3,0,0,0,1.11-1.18,3.84,3.84,0,0,0,0-3.37,3,3,0,0,0-2.72-1.62,3.08,3.08,0,0,0-1.63.43,3,3,0,0,0-1.11,1.19,3.84,3.84,0,0,0,0,3.37,3,3,0,0,0,1.11,1.18,3.08,3.08,0,0,0,1.63.44A3,3,0,0,0,193.77,246.12Z"/><path class="cls-3" d="M209.36,239.1v8.32h-.74l-.43-1a3.11,3.11,0,0,1-1.11.89,3.5,3.5,0,0,1-1.46.31,3.43,3.43,0,0,1-1.6-.38,2.92,2.92,0,0,1-1.55-2.62V239.1h1.15v5.09a2.51,2.51,0,0,0,.56,1.75,2.1,2.1,0,0,0,1.65.63,2.26,2.26,0,0,0,1.72-.68,2.37,2.37,0,0,0,.67-1.74V239.1Z"/><path class="cls-3" d="M212,247.15a3,3,0,0,1-1.23-1.3l1.06-.47a2.16,2.16,0,0,0,.86.89,2.56,2.56,0,0,0,1.35.34,2.07,2.07,0,0,0,1.36-.42,1.34,1.34,0,0,0,.51-1.07,1.06,1.06,0,0,0-.4-.89,3.88,3.88,0,0,0-1.28-.56l-.74-.19a4.2,4.2,0,0,1-1.79-.86,1.85,1.85,0,0,1-.56-1.43,2,2,0,0,1,.37-1.17,2.58,2.58,0,0,1,1-.86,3.24,3.24,0,0,1,1.47-.32,3.07,3.07,0,0,1,2.84,1.4l-1.06.47a1.8,1.8,0,0,0-.74-.62,2.57,2.57,0,0,0-1.06-.21,2.11,2.11,0,0,0-1.24.35,1.08,1.08,0,0,0-.49.91.94.94,0,0,0,.37.79,3.57,3.57,0,0,0,1.15.51l.71.17a4.63,4.63,0,0,1,1.93.91,2,2,0,0,1,.64,1.6,2.3,2.3,0,0,1-.39,1.28,2.69,2.69,0,0,1-1.08.91,3.5,3.5,0,0,1-1.55.34A4,4,0,0,1,212,247.15Z"/><path class="cls-3" d="M224,247.08a4.41,4.41,0,0,1-2.15-3.83,4.29,4.29,0,0,1,.58-2.21,4.38,4.38,0,0,1,1.57-1.6,4.43,4.43,0,0,1,4.42,0,4.43,4.43,0,0,1,0,7.64,4.43,4.43,0,0,1-4.42,0Zm3.84-1a3.11,3.11,0,0,0,1.16-1.2,3.5,3.5,0,0,0,0-3.36,3.21,3.21,0,0,0-4.42-1.2,3.16,3.16,0,0,0-1.15,1.2,3.57,3.57,0,0,0,0,3.36,3.16,3.16,0,0,0,1.15,1.2,3.24,3.24,0,0,0,3.26,0Z"/><path class="cls-3" d="M237.61,239.26a3,3,0,0,1,1.15,1.09,3,3,0,0,1,.42,1.59v5.48H238v-5a2.65,2.65,0,0,0-.57-1.81,2.13,2.13,0,0,0-1.7-.66,2.33,2.33,0,0,0-1.76.71,2.47,2.47,0,0,0-.69,1.8v5h-1.15V239.1h.75l.43,1a3.09,3.09,0,0,1,1.13-.89,3.73,3.73,0,0,1,1.5-.31A3.41,3.41,0,0,1,237.61,239.26Z"/><path class="cls-3" d="M256.12,239.66a2.81,2.81,0,0,1,.82,2.1v5.66H255.8v-5.29a2.41,2.41,0,0,0-.49-1.63,1.84,1.84,0,0,0-1.48-.57,2,2,0,0,0-1.51.65,2.25,2.25,0,0,0-.61,1.58v5.26h-1.14v-5.29a2.33,2.33,0,0,0-.52-1.61,1.82,1.82,0,0,0-1.47-.59,2,2,0,0,0-1.52.64,2.28,2.28,0,0,0-.59,1.59v5.26h-1.14V239.1h.74l.4.88a2.55,2.55,0,0,1,1-.83,2.91,2.91,0,0,1,1.32-.3,3,3,0,0,1,1.52.39,2.64,2.64,0,0,1,1,1,3.06,3.06,0,0,1,2.67-1.42A2.9,2.9,0,0,1,256.12,239.66Z"/><path class="cls-3" d="M266.63,243.39h-7a3.67,3.67,0,0,0,.43,1.68,2.9,2.9,0,0,0,2.6,1.52,3.1,3.1,0,0,0,2.66-1.38l1,.46a4.08,4.08,0,0,1-1.55,1.48,4.53,4.53,0,0,1-2.15.52,4,4,0,0,1-2.13-.57,3.89,3.89,0,0,1-1.5-1.56,4.75,4.75,0,0,1-.54-2.29A4.85,4.85,0,0,1,259,241a3.93,3.93,0,0,1,3.57-2.17,4.31,4.31,0,0,1,2.13.52,3.64,3.64,0,0,1,1.43,1.48,4.76,4.76,0,0,1,.51,2.25C266.67,243.27,266.66,243.37,266.63,243.39Zm-5.94-2.79a3.16,3.16,0,0,0-1,1.84h5.74a3,3,0,0,0-.91-1.86,2.78,2.78,0,0,0-2-.67A2.72,2.72,0,0,0,260.69,240.6Z"/><path class="cls-3" d="M273.75,239.26a3.09,3.09,0,0,1,1.15,1.09,3,3,0,0,1,.42,1.59v5.48h-1.14v-5a2.65,2.65,0,0,0-.57-1.81,2.13,2.13,0,0,0-1.7-.66,2.33,2.33,0,0,0-1.76.71,2.43,2.43,0,0,0-.7,1.8v5h-1.14V239.1h.75l.43,1a3.09,3.09,0,0,1,1.13-.89,3.73,3.73,0,0,1,1.5-.31A3.41,3.41,0,0,1,273.75,239.26Z"/><path class="cls-3" d="M284.49,239.1v8.32h-.74l-.43-1a3.11,3.11,0,0,1-1.11.89,3.57,3.57,0,0,1-3.06-.07A3,3,0,0,1,278,246.2a2.87,2.87,0,0,1-.41-1.55V239.1h1.14v5.09a2.55,2.55,0,0,0,.56,1.75,2.11,2.11,0,0,0,1.65.63,2.3,2.3,0,0,0,1.73-.68,2.4,2.4,0,0,0,.66-1.74V239.1Z"/><path class="cls-3" d="M293.36,239.47a4.09,4.09,0,0,1,1.46,1.57,4.68,4.68,0,0,1,.53,2.21,4.74,4.74,0,0,1-.53,2.23,4.09,4.09,0,0,1-1.46,1.57,4,4,0,0,1-2.15.58,4,4,0,0,1-1.84-.42,3.47,3.47,0,0,1-1.36-1.15v4.31h-1.15V239.1h.75l.54,1.19a3.59,3.59,0,0,1,1.33-1,4.16,4.16,0,0,1,1.73-.36A4,4,0,0,1,293.36,239.47Zm-.68,6.65a3,3,0,0,0,1.11-1.18,3.75,3.75,0,0,0,0-3.37,3.16,3.16,0,0,0-4.35-1.19,2.94,2.94,0,0,0-1.1,1.19,3.75,3.75,0,0,0,0,3.37,2.91,2.91,0,0,0,1.1,1.18,3.2,3.2,0,0,0,3.24,0Z"/><path class="cls-3" d="M297,235.13h1.14v12.29H297Z"/><path class="cls-3" d="M300.51,237a.78.78,0,0,1-.25-.59.82.82,0,0,1,.25-.6.86.86,0,0,1,.6-.25.83.83,0,0,1,.59.25.85.85,0,0,1,.24.6.85.85,0,0,1-.83.83A.85.85,0,0,1,300.51,237Zm0,2.06h1.14v8.32h-1.14Z"/><path class="cls-3" d="M304.34,247.15a2.88,2.88,0,0,1-1.22-1.3l1.05-.47a2.25,2.25,0,0,0,.87.89,2.56,2.56,0,0,0,1.35.34,2.09,2.09,0,0,0,1.36-.42,1.34,1.34,0,0,0,.51-1.07,1.07,1.07,0,0,0-.41-.89,3.81,3.81,0,0,0-1.27-.56l-.75-.19a4.26,4.26,0,0,1-1.79-.86,1.88,1.88,0,0,1-.56-1.43,2,2,0,0,1,.37-1.17,2.58,2.58,0,0,1,1-.86,3.24,3.24,0,0,1,1.47-.32,3.05,3.05,0,0,1,2.84,1.4l-1.05.47a1.9,1.9,0,0,0-.75-.62,2.52,2.52,0,0,0-1.05-.21,2.11,2.11,0,0,0-1.24.35,1.08,1.08,0,0,0-.49.91.94.94,0,0,0,.37.79,3.47,3.47,0,0,0,1.15.51l.71.17a4.69,4.69,0,0,1,1.93.91,2,2,0,0,1,.63,1.6,2.22,2.22,0,0,1-.39,1.28,2.73,2.73,0,0,1-1.07.91,3.56,3.56,0,0,1-1.55.34A4,4,0,0,1,304.34,247.15Z"/><path class="cls-5" d="M189.47,98.29l-8.63,8.63A14.22,14.22,0,0,1,163,108.6a90.63,90.63,0,0,1-7.58-6.13c-1.08-.88-2.15-1.76-3.22-2.66-.21-.17-1.51-1.56-1.77-1.52,7.24-1.24,20.9-18.19,20.9-18.19Z"/><path class="cls-6" d="M240.44,74.7a19.35,19.35,0,0,0-27.37,0l-5,5h0l-5-5c-7.9-7.91-21.21-7.09-28.49,1.24-1.17,1.35-2.25,2.78-3.39,4.16l18.19,18.19,3.24,3.24a21.77,21.77,0,0,0,30.8,0l3.24-3.24L245,80.1Z"/><path class="cls-7" d="M226.75,98.29l8.63,8.63a14.22,14.22,0,0,0,17.89,1.68,90.78,90.78,0,0,0,7.59-6.13c1.07-.88,2.15-1.76,3.21-2.66.21-.17,1.51-1.56,1.77-1.52C258.6,97.05,245,80.1,245,80.1Z"/><line class="cls-8" x1="383.39" y1="605.93" x2="383.39" y2="632.93"/><line class="cls-8" x1="383.39" y1="27" x2="383.39"/><line class="cls-8" x1="33" y1="605.93" x2="33" y2="632.93"/><line class="cls-8" x1="33" y1="27" x2="33"/><line class="cls-8" x1="389.39" y1="599.93" x2="416.39" y2="599.93"/><line class="cls-8" x1="27" y1="599.93" y2="599.93"/><line class="cls-8" x1="389.39" y1="33" x2="416.39" y2="33"/><line class="cls-8" x1="27" y1="33" y2="33"/><line class="cls-9" x1="383.39" y1="605.93" x2="383.39" y2="632.93"/><line class="cls-9" x1="383.39" y1="27" x2="383.39"/><line class="cls-9" x1="33" y1="605.93" x2="33" y2="632.93"/><line class="cls-9" x1="33" y1="27" x2="33"/><line class="cls-9" x1="389.39" y1="599.93" x2="416.39" y2="599.93"/><line class="cls-9" x1="27" y1="599.93" y2="599.93"/><line class="cls-9" x1="389.39" y1="33" x2="416.39" y2="33"/><line class="cls-9" x1="27" y1="33" y2="33"/></svg>