<svg id="Capa_1" data-name="Capa 1" xmlns="http://www.w3.org/2000/svg" xmlns:xlink="http://www.w3.org/1999/xlink" viewBox="0 0 350.46 350.46"><defs><style>.cls-1{fill:url(#Degradado_sin_nombre);}.cls-2,.cls-3{fill:none;stroke-miterlimit:10;}.cls-2{stroke:#fff;stroke-width:1.25px;}.cls-3{stroke:#000;stroke-width:0.25px;}</style><linearGradient id="Degradado_sin_nombre" x1="24.5" y1="230.64" x2="325.97" y2="230.64" gradientUnits="userSpaceOnUse"><stop offset="0" stop-color="#f9ea31"/><stop offset="0.05" stop-color="#fae82d"/><stop offset="0.37" stop-color="#fddb19"/><stop offset="0.69" stop-color="#fed30c"/><stop offset="1" stop-color="#ffd008"/></linearGradient></defs><title>mp-card</title><path class="cls-1" d="M24.5,326H326V221.41L300.65,234l-16.79-8.37v47.81a10.45,10.45,0,0,1-10.45,10.45H77a10.45,10.45,0,0,1-10.45-10.45V141.72q-20.94-3.84-42.06-6.42Z"/><path class="cls-2" d="M317.46,323.47v27m0-323.47V0M33,323.47v27M33,27V0M323.46,317.47h27M27,317.47H0M323.46,33h27M27,33H0"/><line class="cls-3" x1="317.46" y1="323.47" x2="317.46" y2="350.47"/><line class="cls-3" x1="317.46" y1="27" x2="317.46"/><line class="cls-3" x1="33" y1="323.47" x2="33" y2="350.47"/><line class="cls-3" x1="33" y1="27" x2="33"/><line class="cls-3" x1="323.46" y1="317.47" x2="350.46" y2="317.47"/><line class="cls-3" x1="27" y1="317.47" y2="317.47"/><line class="cls-3" x1="323.46" y1="33" x2="350.46" y2="33"/><line class="cls-3" x1="27" y1="33" y2="33"/></svg>