<svg id="Capa_1" data-name="Capa 1" xmlns="http://www.w3.org/2000/svg" xmlns:xlink="http://www.w3.org/1999/xlink" viewBox="0 0 375 812"><defs><style>.cls-1{fill:none;}.cls-2{clip-path:url(#clip-path);}.cls-3{fill:#f4c49f;}.cls-4{fill:#ca926e;}.cls-5{fill:#e4ad83;}.cls-6{clip-path:url(#clip-path-2);}.cls-7{fill:#cf9773;}.cls-8{fill:#ffe8d8;}.cls-9{fill:#5d5c5e;}.cls-10{fill:#bbbcc0;}.cls-11,.cls-13{fill:#f0f0f1;}.cls-12{fill:#808183;}.cls-13{opacity:0.36;}.cls-14{fill:#e6e6e7;}.cls-15{fill:#59595b;}.cls-16{fill:#5d663b;}.cls-17{clip-path:url(#clip-path-3);}.cls-18{fill:#e83249;}.cls-19{fill:#ff6b8b;}.cls-20{clip-path:url(#clip-path-4);}.cls-21{fill:url(#linear-gradient);}.cls-22{clip-path:url(#clip-path-5);}.cls-23{fill:url(#linear-gradient-2);}.cls-24{clip-path:url(#clip-path-6);}</style><clipPath id="clip-path"><rect class="cls-1" x="464" width="375" height="812"/></clipPath><clipPath id="clip-path-2"><rect class="cls-1" width="375" height="812"/></clipPath><clipPath id="clip-path-3"><rect class="cls-1" x="-470.67" width="375" height="812"/></clipPath><clipPath id="clip-path-4"><rect class="cls-1" x="464" y="-949.33" width="375" height="812"/></clipPath><linearGradient id="linear-gradient" x1="-13574.54" y1="1554.94" x2="-13572.86" y2="1417.79" gradientTransform="translate(-13075.1 1273.64) rotate(180)" gradientUnits="userSpaceOnUse"><stop offset="0" stop-color="#fe0"/><stop offset="0.3" stop-color="#ffdf00"/><stop offset="0.66" stop-color="#ffd300"/><stop offset="1" stop-color="#ffd000"/></linearGradient><clipPath id="clip-path-5"><rect class="cls-1" y="-949.33" width="375" height="812"/></clipPath><linearGradient id="linear-gradient-2" x1="-13110.54" y1="1554.94" x2="-13108.86" y2="1417.79" xlink:href="#linear-gradient"/><clipPath id="clip-path-6"><rect class="cls-1" x="-470.67" y="-949.33" width="375" height="812"/></clipPath></defs><title>tour-bg-3</title><g class="cls-2"><path class="cls-3" d="M343.18,232.07H299c-27.83,0-51.05,19.4-74.7,5.84-15.84-9.07-15.84-28.39,0-37.47,23.65-13.55,46.87,5.84,74.7,5.84h44.14Z"/><rect class="cls-4" x="293.6" y="211.72" width="25.79" height="14.91" transform="translate(525.67 -87.32) rotate(90)"/><path class="cls-5" d="M697.65,256.35V218c-120.78,14.2-262.92,14.18-383.7,0v38.37c0,5.3,5.11,9.59,11.41,9.59H686.24C692.54,265.94,697.65,261.65,697.65,256.35Z"/><path class="cls-3" d="M697.65,218V182c0-5.3-5.11-9.59-11.41-9.59H325.36c-6.3,0-11.41,4.29-11.41,9.59v36C434.73,232.19,576.87,232.21,697.65,218Z"/></g><g class="cls-6"><path class="cls-3" d="M242.92,242.79a201.12,201.12,0,0,1,37.88-46.41c9.58-8.77,21.44-14.27,34-17.75a9.33,9.33,0,0,0,4.83-3.21,9.66,9.66,0,0,0-1-12.76l-40.1-40.1a9.68,9.68,0,0,0-12.77-1,9.45,9.45,0,0,0-3.21,4.83c-3.48,12.52-9,24.37-17.74,34a201.38,201.38,0,0,1-46.41,37.88c-43.19,25.29-84.82,45.82-77.27,90.19l31.64,31.64C197.09,327.61,217.62,286,242.92,242.79Z"/><path class="cls-3" d="M332.17,149.6a9.2,9.2,0,0,1,1.65,2.32,38.42,38.42,0,1,0-45.09-44.86,9.4,9.4,0,0,1,2.81,1.91Z"/><path class="cls-3" d="M333.82,151.92a9.2,9.2,0,0,0-1.65-2.32L291.54,109a9.42,9.42,0,1,0-13.31,13.32l40.63,40.63a9.39,9.39,0,0,0,15-11Z"/><path class="cls-7" d="M353.63,87a38.6,38.6,0,0,0-5.82-4.78,38.39,38.39,0,0,1-24.05,58.93l8.41,8.41a9.2,9.2,0,0,1,1.65,2.32A38.42,38.42,0,0,0,353.63,87Z"/><path class="cls-7" d="M333.82,151.92a9.2,9.2,0,0,0-1.65-2.32L321.57,139a9.2,9.2,0,0,1,1.65,2.32,9.39,9.39,0,0,1-15,11l10.6,10.6a9.39,9.39,0,0,0,15-11Z"/><path class="cls-7" d="M242.92,242.79a201.12,201.12,0,0,1,37.88-46.41c9.58-8.77,21.44-14.27,34-17.75a9.33,9.33,0,0,0,4.83-3.21,9.66,9.66,0,0,0-1-12.76L285,129.07l21,23.28a9.66,9.66,0,0,1,.33,12.8,9.33,9.33,0,0,1-5,3c-12.68,2.82-24.81,7.69-34.84,15.95a201.38,201.38,0,0,0-40.24,44.37c-27.14,41.25-49.58,81.19-92.32,72.82l18.81,18.81C197.09,327.61,217.62,286,242.92,242.79Z"/><rect class="cls-3" x="94.22" y="289.88" width="85.38" height="28.72" rx="10.59" transform="translate(255.23 -7.7) rotate(45)"/><path class="cls-3" d="M150.22,337.85l-46.93-46.92a9.51,9.51,0,0,0-13.44,0L67.34,313.44a17.67,17.67,0,0,0-.91,24c5.07,5.92,11.45,13.06,17.9,19.51s13.48,12.73,19.34,17.75a17.69,17.69,0,0,0,24-.91l22.52-22.52A9.52,9.52,0,0,0,150.22,337.85Z"/><path class="cls-7" d="M170.53,317.55l-.42-.42a9.49,9.49,0,0,1-2.76,7.22l-6.86,6.86a9.5,9.5,0,0,1-13.45,0L100.53,284.7a9.47,9.47,0,0,0,2.76,6.23l46.93,46.92a9.49,9.49,0,0,0,13.44,0l6.87-6.86A9.51,9.51,0,0,0,170.53,317.55Z"/><path class="cls-7" d="M150.22,337.85l-.42-.41a9.46,9.46,0,0,1-2.76,7.22l-22.52,22.52a17.68,17.68,0,0,1-24,.91c-5.87-5-12.94-11.34-19.35-17.75s-12.83-13.59-17.9-19.51c-.22-.25-.41-.52-.61-.78a17.57,17.57,0,0,0,3.79,7.42c5.07,5.92,11.45,13.06,17.9,19.51s13.48,12.73,19.34,17.75a17.69,17.69,0,0,0,24-.91l22.52-22.52A9.52,9.52,0,0,0,150.22,337.85Z"/><path class="cls-8" d="M339.74,87.92a29.62,29.62,0,0,0-33,1.75c-8.89,6.56.55,19.17,9.2,12.07,6.11-5,14.37-7.63,22.22-7.88A3.2,3.2,0,0,0,339.74,87.92Z"/><path class="cls-8" d="M185.6,217.77c-16.84,2.52-33.32,13.16-44.08,26.06-7.16,8.59,5.45,18.47,12.26,9.34,9.57-12.85,20.78-20.93,34.54-28.72C192.12,222.29,189.48,217.18,185.6,217.77Z"/><path class="cls-8" d="M141,297c-4.56-7.73-11.44-13.86-16.76-21-6.25-8.44-17,3-8.56,8.57,7.5,4.95,14.09,11.55,22.08,15.72C139.75,301.32,142.2,299.12,141,297Z"/><path class="cls-8" d="M113.19,308.75c-1.79-4.77-6.1-9.18-9.75-12.61a5.9,5.9,0,0,0-8.82.63c-2.33,3.05-1.11,6.55,1.74,8.66,3.7,2.76,8.52,6.17,13.14,7C111.5,312.81,114.06,311.05,113.19,308.75Z"/><path class="cls-9" d="M61.84,253.59s-12.69,4.57-17.77,17.76c-4.35,11.33-19.58,39.84-45.19,52.26a17.93,17.93,0,0,1-20.47-3.55l-34-34a18,18,0,0,1-3.55-20.47C-46.71,240-18.2,224.76-6.87,220.41c13.19-5.08,17.76-17.76,17.76-17.76Z"/><rect class="cls-10" x="1.59" y="217.09" width="78.69" height="12.92" rx="3.55" transform="translate(170.06 36.53) rotate(45)"/><path class="cls-11" d="M41.82,185.29H77.09a16.32,16.32,0,0,1,16.32,16.32v23.15a0,0,0,0,1,0,0H25.5a0,0,0,0,1,0,0V201.61a16.32,16.32,0,0,1,16.32-16.32Z" transform="translate(162.39 18.01) rotate(45)"/><path class="cls-12" d="M12.49,275.68a67.47,67.47,0,0,0-35.38-31.76c-2.54-1-5.27-1.77-7.76-1.23a13.33,13.33,0,0,0-5.47,3.19c-5,4.17-10.16,8.43-13.56,14.05s-4.89,12.93-2.26,19.63c1.78,4.53,5.22,8.33,8.64,11.93Q-32,303.43-19.7,314.42c2.64,2.35,5.51,4.79,8.86,5.42,4.13.79,7.87-1.36,11.12-3.54q6.16-4.12,11.94-8.75c3.28-2.63,8.49-5.66,10.48-9.47,1.71-3.25-.18-5.22-2.31-8.11C17.08,285.48,15,280.57,12.49,275.68Z"/><path class="cls-13" d="M-36.69,282.69c7.42-14,16.15-23.39,28.47-33.47,11-9,19.3-18.18,23.41-32,.51-1.73-1.79-2.37-2.72-1.11-10.92,14.8-30.58,20.47-43.63,33.13C-39.66,257.52-46.88,270-42.38,282-41.49,284.3-38.07,285.28-36.69,282.69Z"/><path class="cls-14" d="M33,206.43,69.51,243l9.06-9.06a26.59,26.59,0,0,0,7.78-19.56A40.3,40.3,0,0,1,57.1,216.8C48.64,214.32,40.83,210.29,33,206.43Z"/><path class="cls-15" d="M63.77,186.31c-2.08-2.08-5.32,1.15-3.23,3.23S65.86,188.39,63.77,186.31Z"/><path class="cls-15" d="M70.79,194.52a1.8,1.8,0,0,0-2.55,2.55A1.8,1.8,0,0,0,70.79,194.52Z"/><path class="cls-15" d="M80.46,202.61c-2.33-2.32-5.95,1.29-3.62,3.62S82.79,204.94,80.46,202.61Z"/><path class="cls-9" d="M419.85,260.53s-12.69,4.56-17.77,17.76c-4.35,11.32-19.58,39.83-45.2,52.26A18,18,0,0,1,336.41,327l-34-34a17.93,17.93,0,0,1-3.55-20.47c12.42-25.61,40.93-40.84,52.26-45.19,13.19-5.08,17.76-17.77,17.76-17.77Z"/><rect class="cls-10" x="359.6" y="224.03" width="78.69" height="12.92" rx="3.55" transform="translate(279.82 -214.59) rotate(45)"/><path class="cls-16" d="M370.5,282.62a67.53,67.53,0,0,0-35.38-31.77c-2.54-1-5.27-1.76-7.77-1.22a13.25,13.25,0,0,0-5.46,3.19c-5.05,4.17-10.16,8.42-13.57,14.05s-4.88,12.93-2.25,19.63c1.78,4.52,5.22,8.33,8.63,11.93q11.34,11.94,23.61,22.92c2.64,2.36,5.51,4.79,8.85,5.43,4.14.78,7.88-1.37,11.13-3.54q6.16-4.12,11.94-8.75c3.28-2.63,8.49-5.66,10.48-9.47,1.71-3.25-.18-5.22-2.32-8.12C375.09,292.42,373,287.5,370.5,282.62Z"/><path class="cls-13" d="M321.31,289.63c7.43-14,16.16-23.4,28.48-33.47,11-9,19.3-18.18,23.41-32,.51-1.74-1.79-2.37-2.72-1.11-10.92,14.8-30.58,20.46-43.63,33.12-8.5,8.26-15.72,20.78-11.22,32.68C316.52,291.24,319.94,292.22,321.31,289.63Z"/></g><g class="cls-17"><path class="cls-18" d="M-43.47,91.79l16,16a6.14,6.14,0,0,0,8.69,0L100.2-11.09a17.5,17.5,0,0,0,0-24.74,17.48,17.48,0,0,0-24.73,0L-43.47,83.11A6.13,6.13,0,0,0-43.47,91.79ZM79-22.86a5.92,5.92,0,0,1,8.37,0,5.91,5.91,0,0,1,0,8.38L69.47,3.44a5.93,5.93,0,0,1-8.38,0,5.93,5.93,0,0,1,0-8.38Z"/><path class="cls-19" d="M100.7-19.8-9.58,90.48a10.35,10.35,0,0,1-16.3-2.17,27.82,27.82,0,0,0-6-7l-5-4.39c-.08-.08-6.28,6-6.35,5.88l-.29.29a6.13,6.13,0,0,0,0,8.68l16,16a6.14,6.14,0,0,0,8.69,0L100.2-11.09A17.49,17.49,0,0,0,105-26.87,17.43,17.43,0,0,1,100.7-19.8Z"/></g><g class="cls-20"><g id="Grupo_1-3" data-name="Grupo 1-3"><path id="Trazado_17-9" data-name="Trazado 17-9" class="cls-21" d="M496.28-20.84l160.3-160.3,160.3,160.3L774.3,21.74a166.47,166.47,0,0,1-235.42,0Zm160.3-160.3L628.67-209c-73.13-73.13-191.69-73.13-264.82,0l-27.91,27.91L496.26-20.86ZM218.22,21.74a166.47,166.47,0,0,0,235.42,0l42.58-42.58-160.3-160.3L175.62-20.84Z"/></g></g><g class="cls-22"><g id="Grupo_1-3-2" data-name="Grupo 1-3"><path id="Trazado_17-9-2" data-name="Trazado 17-9" class="cls-23" d="M32.28-20.84l160.3-160.3,160.3,160.3L310.3,21.74a166.47,166.47,0,0,1-235.42,0Zm160.3-160.3L164.67-209C91.54-282.18-27-282.18-100.15-209l-27.91,27.91L32.26-20.86ZM-245.78,21.74a166.47,166.47,0,0,0,235.42,0L32.22-20.84l-160.3-160.3-160.3,160.3Z"/></g></g></svg>