<svg id="Capa_1" data-name="Capa 1" xmlns="http://www.w3.org/2000/svg" xmlns:xlink="http://www.w3.org/1999/xlink" viewBox="0 0 375 812"><defs><style>.cls-1{fill:none;}.cls-2{clip-path:url(#clip-path);}.cls-3{fill:#f4c49f;}.cls-4{fill:#e4ad83;}.cls-5{clip-path:url(#clip-path-2);}.cls-6{fill:url(#linear-gradient);}.cls-7{fill:url(#linear-gradient-2);}.cls-8{fill:url(#linear-gradient-3);}.cls-9{clip-path:url(#clip-path-3);}.cls-10{fill:#f0f0f1;}.cls-11{fill:#d0d1d3;}.cls-12{fill:#e6e6e7;}.cls-13,.cls-14{fill:#b3b3b3;}.cls-14,.cls-17{opacity:0.14;}.cls-15{fill:#644b2d;}.cls-16{fill:#483520;}.cls-18{fill:#75644f;}.cls-19{clip-path:url(#clip-path-4);}.cls-20{fill:url(#linear-gradient-4);}.cls-21{clip-path:url(#clip-path-5);}.cls-22{fill:url(#linear-gradient-5);}</style><clipPath id="clip-path"><rect class="cls-1" x="468" width="375" height="812"/></clipPath><clipPath id="clip-path-2"><rect class="cls-1" x="-456" width="375" height="812"/></clipPath><linearGradient id="linear-gradient" x1="-6449.1" y1="2034.32" x2="-6453.98" y2="1997.14" gradientTransform="matrix(-17.69, 0, 0, 14.22, -113759.87, -28938.67)" gradientUnits="userSpaceOnUse"><stop offset="0" stop-color="#fe0"/><stop offset="0.3" stop-color="#ffdf00"/><stop offset="0.66" stop-color="#ffd300"/><stop offset="1" stop-color="#ffd000"/></linearGradient><linearGradient id="linear-gradient-2" x1="-11196.45" y1="1506.02" x2="-11194.77" y2="1368.87" gradientTransform="translate(-11197.77 1273.64) rotate(180)" xlink:href="#linear-gradient"/><linearGradient id="linear-gradient-3" x1="-6425.39" y1="2097.66" x2="-6430.28" y2="2060.47" xlink:href="#linear-gradient"/><clipPath id="clip-path-3"><rect class="cls-1" width="375" height="812"/></clipPath><clipPath id="clip-path-4"><rect class="cls-1" x="468" y="-949.33" width="375" height="812"/></clipPath><linearGradient id="linear-gradient-4" x1="-11701.2" y1="1554.94" x2="-11699.53" y2="1417.79" gradientTransform="translate(-11197.77 1273.64) rotate(180)" xlink:href="#linear-gradient"/><clipPath id="clip-path-5"><rect class="cls-1" y="-949.33" width="375" height="812"/></clipPath><linearGradient id="linear-gradient-5" x1="-11233.2" y1="1554.94" x2="-11231.53" y2="1417.79" gradientTransform="translate(-11197.77 1273.64) rotate(180)" xlink:href="#linear-gradient"/></defs><title>tour-bg-1</title><g class="cls-2"><path class="cls-3" d="M623.35,359a53.67,53.67,0,0,0,23.17,2.05,6.52,6.52,0,0,0,3.7-11.07l-33.69-33.7a7.16,7.16,0,0,1,0-10.13h0a7.16,7.16,0,0,1,10.13,0l34.52,34.52a6.42,6.42,0,0,0,8.92.25c.75-.7,1.48-1.43,2.18-2.17a6.43,6.43,0,0,0-.25-8.93L637.51,295.3a7.16,7.16,0,0,1,0-10.13h0a7.16,7.16,0,0,1,10.13,0l33.69,33.7a6.52,6.52,0,0,0,11.07-3.71,53.47,53.47,0,0,0-2-23.16,222.66,222.66,0,0,0-55.26-91.63c-1.9-1.9-3.83-3.77-5.79-5.59C612.88,179.5,594,175,576,177.9c-23.51,3.75-47.29-5.16-63.83-22.29L348.85-13.63a11.23,11.23,0,0,0-16-.14L317.59,1.46a11.23,11.23,0,0,0,.14,16L487,180.86c17.13,16.53,26.05,40.31,22.3,63.82-2.87,17.92,1.59,36.84,16.88,53.26q2.73,2.94,5.59,5.8A222.73,222.73,0,0,0,623.35,359Z"/><path class="cls-4" d="M645.24,361.21c-35.89-10.25-63.76-24.59-91.47-52.3-1.9-1.91-3.77-3.84-5.59-5.8-46.5-50,7.18-123.06,62.55-120.8-29.05-13-61.4-.4-81.79,22.46a4.74,4.74,0,0,1-8.23-3.16h0a30.23,30.23,0,0,0-9-21.14l-164.88-162A18,18,0,0,1,343.45-2.8L349-13.45l-.17-.18a11.23,11.23,0,0,0-16-.14L317.59,1.46a11.22,11.22,0,0,0,.14,16L487,180.89c17.11,16.52,26.46,40.35,22.26,63.76,0,.12,0,.24,0,.36-2.76,17.82,1.73,36.61,16.92,52.93q2.73,2.94,5.59,5.8C565,337.05,624.05,366.46,645.24,361.21Z"/></g><g class="cls-5"><g id="Grupo_1-3" data-name="Grupo 1-3"><path id="Trazado_15-9" data-name="Trazado 15-9" class="cls-6" d="M155.82-132.24l74.1-74.1a121.8,121.8,0,0,1,172.26,0h0s82.46,67,89.68,74.1C429.64-121.6,316,28.08,316,28.08Z"/><path id="Trazado_17-9" data-name="Trazado 17-9" class="cls-7" d="M-4.48,28.08l160.3-160.3,160.3,160.3L273.54,70.66a166.48,166.48,0,0,1-235.42,0Zm160.3-160.3-27.91-27.91c-73.13-73.13-191.69-73.13-264.82,0l-27.91,27.91L-4.5,28.06ZM-282.54,70.66a166.48,166.48,0,0,0,235.42,0L-4.54,28.08l-160.3-160.3-160.3,160.3Z"/></g><g id="Grupo_1-3-2" data-name="Grupo 1-3"><path id="Trazado_15-9-2" data-name="Trazado 15-9" class="cls-8" d="M-263.42,768.17l74.1-74.1a121.81,121.81,0,0,1,172.26,0h0s82.46,67,89.68,74.1C10.4,778.81-103.2,928.49-103.2,928.49Z"/></g></g><g class="cls-9"><circle class="cls-10" cx="309.09" cy="232.86" r="157.64"/><circle class="cls-11" cx="309.09" cy="232.86" r="106.79" transform="translate(-74.13 286.76) rotate(-45)"/><circle class="cls-10" cx="309.09" cy="232.86" r="99.56"/><path class="cls-12" d="M377.3,160.37A99.54,99.54,0,0,1,226.89,289,99.55,99.55,0,1,0,377.3,160.37Z"/><path class="cls-12" d="M328.72,76.48A153,153,0,1,1,191,337.26,157.62,157.62,0,1,0,328.72,76.48Z"/><path class="cls-13" d="M378,211.33l.33,1c.51,1.56,1,3.13,1.39,4.74,0,.2.09.4.14.6.37,1.5.68,3,.95,4.55l.15.86c.26,1.64.47,3.29.61,5,0,.35.06.71.09,1.06.12,1.73.21,3.47.21,5.23a70.41,70.41,0,0,1-70.33,70.33c-1.43,0-2.84-.05-4.24-.14l-1.26-.09c-1-.08-2-.18-3-.3l-1.3-.17c-1.12-.15-2.22-.34-3.32-.55l-.77-.13c-1.36-.28-2.7-.59-4-.94l-.81-.23c-1.06-.3-2.12-.61-3.17-1l-1.06-.36c-1-.36-2.06-.74-3.07-1.14l-.76-.31a69.51,69.51,0,0,1-7.47-3.62l-.62-.36c-1-.59-2-1.21-3-1.85-.18-.11-.36-.22-.53-.34a70.09,70.09,0,0,1-6.8-5.06l0,0c-1.06-.89-2.08-1.81-3.09-2.76a3.07,3.07,0,0,0-.26-.25,70.91,70.91,0,0,1-8.43-9.71l-.08-.1q-1.24-1.74-2.4-3.57h0A70.28,70.28,0,0,1,337.49,169l.64.25c1.55.63,3.08,1.32,4.57,2.07l.61.31c1.5.76,3,1.57,4.42,2.43l0,0c1.44.87,2.84,1.81,4.22,2.78l.66.47q2,1.45,3.92,3l.35.3c1.21,1,2.38,2.09,3.52,3.19l.42.41q1.74,1.71,3.36,3.56c.2.21.38.43.57.65,1.09,1.26,2.14,2.55,3.14,3.89h0c.91,1.22,1.76,2.47,2.59,3.75,3.07-2,6.18-3.87,9.29-5.68A81,81,0,1,0,387.26,205q-4.89,2.34-9.92,4.48C377.57,210.1,377.78,210.71,378,211.33Z"/><path class="cls-13" d="M306,304.41c-1-.08-2-.18-3-.3C304,304.23,305,304.33,306,304.41Z"/><path class="cls-13" d="M292.8,302.09c-1.06-.3-2.12-.61-3.17-1C290.68,301.48,291.74,301.79,292.8,302.09Z"/><path class="cls-13" d="M262.89,285a70.91,70.91,0,0,1-8.43-9.71A70.91,70.91,0,0,0,262.89,285Z"/><path class="cls-13" d="M356.93,180.64c1.21,1,2.38,2.09,3.52,3.19C359.31,182.73,358.14,181.66,356.93,180.64Z"/><path class="cls-13" d="M254.38,275.23q-1.24-1.74-2.4-3.57Q253.14,273.49,254.38,275.23Z"/><path class="cls-13" d="M364.8,188.45c1.09,1.26,2.14,2.55,3.14,3.89C366.94,191,365.89,189.71,364.8,188.45Z"/><path class="cls-13" d="M288.57,300.77c-1-.36-2.06-.74-3.07-1.14C286.51,300,287.54,300.41,288.57,300.77Z"/><path class="cls-13" d="M273.08,293.15a68.89,68.89,0,0,1-6.8-5.06A70.09,70.09,0,0,0,273.08,293.15Z"/><path class="cls-13" d="M370.53,196.11h0c-.83-1.28-1.68-2.53-2.59-3.75C368.86,193.57,369.7,194.83,370.53,196.11Z"/><path class="cls-13" d="M284.74,299.32a69.51,69.51,0,0,1-7.47-3.62A69.51,69.51,0,0,0,284.74,299.32Z"/><path class="cls-13" d="M276.65,295.34c-1-.59-2-1.21-3-1.85C274.61,294.13,275.62,294.75,276.65,295.34Z"/><path class="cls-13" d="M338.13,169.21c1.55.63,3.08,1.32,4.57,2.07C341.21,170.53,339.68,169.84,338.13,169.21Z"/><path class="cls-13" d="M266.24,288.05q-1.59-1.33-3.09-2.76C264.16,286.24,265.18,287.16,266.24,288.05Z"/><path class="cls-13" d="M301.31,293.38A66.83,66.83,0,0,0,367,213.58a141.72,141.72,0,0,1-19.17,5.54c-2.1.44-3.86-2.11-2.18-3.74A148.9,148.9,0,0,1,363.26,201a67.38,67.38,0,0,0-30.62-33.81c1.64.52,3.26,1.11,4.85,1.75A70.28,70.28,0,0,0,252,271.66,66.82,66.82,0,0,0,301.31,293.38Z"/><path class="cls-13" d="M347.78,174.05c1.44.87,2.84,1.81,4.22,2.78C350.62,175.86,349.22,174.92,347.78,174.05Z"/><path class="cls-13" d="M352.66,177.3q2,1.45,3.92,3Q354.68,178.75,352.66,177.3Z"/><path class="cls-13" d="M360.87,184.24q1.74,1.71,3.36,3.56Q362.61,186,360.87,184.24Z"/><path class="cls-13" d="M311.54,304.64c-1.43,0-2.84-.05-4.24-.14C308.7,304.59,310.11,304.64,311.54,304.64Z"/><path class="cls-13" d="M343.31,171.59c1.5.76,3,1.57,4.42,2.43C346.29,173.16,344.81,172.35,343.31,171.59Z"/><path class="cls-13" d="M297.64,303.26c-1.36-.28-2.7-.59-4-.94C294.94,302.67,296.28,303,297.64,303.26Z"/><path class="cls-13" d="M301.73,303.94c-1.12-.15-2.22-.34-3.32-.55C299.51,303.6,300.61,303.79,301.73,303.94Z"/><path class="cls-13" d="M367,213.58a66.94,66.94,0,0,1-115,58.08h0q1.16,1.83,2.4,3.57l.08.1a70.91,70.91,0,0,0,8.43,9.71,3.07,3.07,0,0,1,.26.25q1.5,1.43,3.09,2.76l0,0a68.89,68.89,0,0,0,6.8,5.06c.17.12.35.23.53.34,1,.64,2,1.26,3,1.85l.62.36a69.51,69.51,0,0,0,7.47,3.62l.76.31c1,.4,2,.78,3.07,1.14l1.06.36c1.05.35,2.11.66,3.17,1l.81.23c1.33.35,2.67.66,4,.94l.77.13c1.1.21,2.2.4,3.32.55l1.3.17c1,.12,2,.22,3,.3l1.26.09c1.4.09,2.81.14,4.24.14a70.41,70.41,0,0,0,70.33-70.33c0-1.76-.09-3.5-.21-5.23,0-.35-.05-.71-.09-1.06-.14-1.67-.35-3.32-.61-5l-.15-.86c-.27-1.54-.58-3-.95-4.55-.05-.2-.09-.4-.14-.6-.4-1.61-.88-3.18-1.39-4.74l-.33-1c-.22-.62-.47-1.21-.7-1.82C373.91,211,370.49,212.33,367,213.58Z"/><path class="cls-13" d="M363.26,201q3.58-2.53,7.27-4.91c-.83-1.28-1.67-2.54-2.58-3.76h0c-1-1.34-2.05-2.63-3.14-3.89-.19-.22-.37-.44-.57-.65q-1.62-1.85-3.36-3.56l-.42-.41c-1.14-1.1-2.31-2.17-3.52-3.19l-.35-.3q-1.9-1.59-3.92-3l-.66-.47c-1.38-1-2.78-1.91-4.22-2.78l0,0c-1.44-.86-2.92-1.67-4.42-2.43l-.61-.31c-1.49-.75-3-1.44-4.57-2.07l-.64-.25c-1.59-.64-3.21-1.23-4.85-1.75A67.38,67.38,0,0,1,363.26,201Z"/><path class="cls-13" d="M370.54,196.1l.21.33c.16.25.33.49.48.74q1.29,2.06,2.43,4.2c.13.25.25.5.38.74q1.06,2.07,2,4.21l.18.41c.39.91.76,1.84,1.11,2.76q5-2.13,9.92-4.48a81.06,81.06,0,0,0-7.43-14.59C376.72,192.23,373.61,194.12,370.54,196.1Z"/><path class="cls-14" d="M370.54,196.1l.21.33c.16.25.33.49.48.74q1.29,2.06,2.43,4.2c.13.25.25.5.38.74q1.06,2.07,2,4.21l.18.41c.39.91.76,1.84,1.11,2.76q5-2.13,9.92-4.48a81.06,81.06,0,0,0-7.43-14.59C376.72,192.23,373.61,194.12,370.54,196.1Z"/><path class="cls-13" d="M371.23,197.17q1.29,2.06,2.43,4.2Q372.52,199.23,371.23,197.17Z"/><path class="cls-14" d="M371.23,197.17q1.29,2.06,2.43,4.2Q372.52,199.23,371.23,197.17Z"/><path class="cls-13" d="M374,202.11q1.06,2.07,2,4.21Q375.11,204.18,374,202.11Z"/><path class="cls-14" d="M374,202.11q1.06,2.07,2,4.21Q375.11,204.18,374,202.11Z"/><path class="cls-13" d="M347.86,219.12A141.72,141.72,0,0,0,367,213.58,65.78,65.78,0,0,0,363.26,201a148.9,148.9,0,0,0-17.58,14.36C344,217,345.76,219.56,347.86,219.12Z"/><path class="cls-14" d="M347.86,219.12A141.72,141.72,0,0,0,367,213.58,65.78,65.78,0,0,0,363.26,201a148.9,148.9,0,0,0-17.58,14.36C344,217,345.76,219.56,347.86,219.12Z"/><path class="cls-13" d="M370.75,196.43l-.21-.33h0Z"/><path class="cls-14" d="M370.75,196.43l-.21-.33h0Z"/><path class="cls-13" d="M363.26,201A65.78,65.78,0,0,1,367,213.58c3.46-1.25,6.88-2.63,10.27-4.07-.35-.93-.68-1.87-1.07-2.78l-.18-.41q-.94-2.15-2-4.21c-.13-.24-.25-.49-.38-.74q-1.14-2.15-2.43-4.2c-.15-.25-.32-.49-.48-.74l-.22-.32Q366.84,198.48,363.26,201Z"/><path class="cls-14" d="M363.26,201A65.78,65.78,0,0,1,367,213.58c3.46-1.25,6.88-2.63,10.27-4.07-.35-.93-.68-1.87-1.07-2.78l-.18-.41q-.94-2.15-2-4.21c-.13-.24-.25-.49-.38-.74q-1.14-2.15-2.43-4.2c-.15-.25-.32-.49-.48-.74l-.22-.32Q366.84,198.48,363.26,201Z"/><path class="cls-10" d="M376,209l.33,1c.52,1.56,1,3.13,1.39,4.74.05.19.09.4.14.6.37,1.49.68,3,1,4.54,0,.29.11.58.15.87.27,1.64.47,3.29.62,5,0,.35.05.7.08,1,.13,1.73.21,3.47.21,5.23a70.41,70.41,0,0,1-70.33,70.34c-1.42,0-2.83-.06-4.23-.14-.43,0-.85-.06-1.27-.1-1-.07-2-.17-3-.29l-1.31-.17c-1.12-.16-2.22-.34-3.32-.55l-.77-.13c-1.36-.28-2.7-.59-4-.94l-.81-.23c-1.06-.3-2.12-.62-3.16-1l-1.07-.36c-1-.36-2.05-.74-3.07-1.15-.25-.1-.51-.19-.76-.3a69.51,69.51,0,0,1-7.47-3.62l-.61-.36c-1-.59-2.05-1.21-3.05-1.85l-.53-.34a70.09,70.09,0,0,1-6.8-5.06l0,0c-1.06-.89-2.08-1.81-3.09-2.77l-.26-.24a70.91,70.91,0,0,1-8.43-9.71.61.61,0,0,1-.07-.1c-.84-1.17-1.64-2.36-2.41-3.57h0a70.29,70.29,0,0,1,85.51-102.71l.64.26q2.34.94,4.57,2.06l.61.31c1.5.77,3,1.57,4.42,2.44l.05,0c1.44.87,2.84,1.8,4.22,2.77l.66.48q2,1.45,3.92,3c.12.09.23.2.35.3,1.21,1,2.38,2.09,3.52,3.19l.42.4c1.17,1.15,2.28,2.34,3.37,3.56l.57.66c1.08,1.26,2.14,2.55,3.13,3.88v0c.91,1.21,1.76,2.47,2.59,3.75,3.07-2,6.18-3.87,9.29-5.68a80.86,80.86,0,1,0,7.43,14.58q-4.89,2.34-9.92,4.49C375.55,207.79,375.76,208.4,376,209Z"/><path class="cls-15" d="M304,302.09c-1-.07-2-.17-3-.29C302,301.92,303,302,304,302.09Z"/><path class="cls-15" d="M290.78,299.78c-1.06-.3-2.12-.62-3.16-1C288.66,299.16,289.72,299.48,290.78,299.78Z"/><path class="cls-15" d="M260.87,282.73a70.91,70.91,0,0,1-8.43-9.71A70.91,70.91,0,0,0,260.87,282.73Z"/><path class="cls-15" d="M354.91,178.33c1.21,1,2.38,2.09,3.52,3.19C357.29,180.42,356.12,179.35,354.91,178.33Z"/><path class="cls-15" d="M252.37,272.92c-.84-1.17-1.64-2.36-2.41-3.57C250.73,270.56,251.53,271.75,252.37,272.92Z"/><path class="cls-15" d="M362.79,186.14c1.08,1.26,2.14,2.55,3.13,3.88C364.93,188.69,363.87,187.4,362.79,186.14Z"/><path class="cls-15" d="M286.55,298.46c-1-.36-2.05-.74-3.07-1.15C284.5,297.72,285.52,298.1,286.55,298.46Z"/><path class="cls-15" d="M271.06,290.84a70.09,70.09,0,0,1-6.8-5.06A70.09,70.09,0,0,0,271.06,290.84Z"/><path class="cls-15" d="M368.51,193.79h0c-.83-1.28-1.68-2.54-2.59-3.75C366.84,191.25,367.68,192.52,368.51,193.79Z"/><path class="cls-15" d="M282.72,297a69.51,69.51,0,0,1-7.47-3.62A69.51,69.51,0,0,0,282.72,297Z"/><path class="cls-15" d="M274.64,293c-1-.59-2.05-1.21-3.05-1.85C272.59,291.82,273.6,292.44,274.64,293Z"/><path class="cls-15" d="M336.11,166.9c1.55.63,3.08,1.32,4.57,2.06Q338.45,167.85,336.11,166.9Z"/><path class="cls-15" d="M264.22,285.74c-1.06-.89-2.08-1.81-3.09-2.77C262.14,283.93,263.16,284.85,264.22,285.74Z"/><path class="cls-15" d="M299.29,291.07A66.88,66.88,0,0,0,365,211.27a144,144,0,0,1-19.17,5.54c-2.1.44-3.87-2.11-2.18-3.75a148.9,148.9,0,0,1,17.57-14.35,67.38,67.38,0,0,0-30.62-33.81c1.65.52,3.26,1.11,4.85,1.74A70.29,70.29,0,0,0,250,269.35,66.82,66.82,0,0,0,299.29,291.07Z"/><path class="cls-15" d="M345.76,171.74c1.44.87,2.84,1.8,4.22,2.77C348.6,173.54,347.2,172.61,345.76,171.74Z"/><path class="cls-15" d="M350.64,175q2,1.45,3.92,3Q352.66,176.44,350.64,175Z"/><path class="cls-15" d="M358.85,181.92c1.17,1.15,2.28,2.34,3.37,3.56C361.13,184.26,360,183.07,358.85,181.92Z"/><path class="cls-15" d="M309.52,302.33c-1.42,0-2.83-.06-4.23-.14C306.69,302.27,308.1,302.33,309.52,302.33Z"/><path class="cls-15" d="M341.29,169.27c1.5.77,3,1.57,4.42,2.44C344.27,170.84,342.79,170,341.29,169.27Z"/><path class="cls-15" d="M295.62,301c-1.36-.28-2.7-.59-4-.94C292.92,300.36,294.26,300.67,295.62,301Z"/><path class="cls-15" d="M299.71,301.63c-1.12-.16-2.22-.34-3.32-.55C297.49,301.29,298.59,301.47,299.71,301.63Z"/><path class="cls-16" d="M365,211.27a66.88,66.88,0,0,1-65.73,79.8A66.82,66.82,0,0,1,250,269.35h0c.77,1.21,1.57,2.4,2.41,3.57a.61.61,0,0,0,.07.1,70.91,70.91,0,0,0,8.43,9.71l.26.24c1,1,2,1.88,3.09,2.77l0,0a70.09,70.09,0,0,0,6.8,5.06l.53.34c1,.64,2,1.26,3.05,1.85l.61.36a69.51,69.51,0,0,0,7.47,3.62c.25.11.51.2.76.3,1,.41,2,.79,3.07,1.15l1.07.36c1,.34,2.1.66,3.16,1l.81.23c1.33.35,2.67.66,4,.94l.77.13c1.1.21,2.2.39,3.32.55l1.31.17c1,.12,2,.22,3,.29.42,0,.84.08,1.27.1,1.4.08,2.81.14,4.23.14A70.41,70.41,0,0,0,379.85,232c0-1.76-.08-3.5-.21-5.23,0-.35-.05-.7-.08-1-.15-1.67-.35-3.32-.62-5,0-.29-.1-.58-.15-.87-.27-1.53-.58-3-1-4.54,0-.2-.09-.41-.14-.6-.4-1.61-.87-3.18-1.39-4.74l-.33-1c-.22-.62-.47-1.21-.7-1.82C371.89,208.64,368.47,210,365,211.27Z"/><path class="cls-16" d="M361.24,198.71q3.58-2.53,7.27-4.92c-.83-1.27-1.67-2.54-2.58-3.75v0c-1-1.33-2.05-2.62-3.13-3.88l-.57-.66c-1.09-1.22-2.2-2.41-3.37-3.56l-.42-.4c-1.14-1.1-2.31-2.17-3.52-3.19-.12-.1-.23-.21-.35-.3q-1.9-1.59-3.92-3l-.66-.48c-1.38-1-2.78-1.9-4.22-2.77l-.05,0c-1.44-.87-2.92-1.67-4.42-2.44l-.61-.31c-1.49-.74-3-1.43-4.57-2.06l-.64-.26c-1.59-.63-3.2-1.22-4.85-1.74A67.38,67.38,0,0,1,361.24,198.71Z"/><path class="cls-10" d="M368.52,193.79l.21.33c.16.25.33.49.48.74q1.29,2.05,2.43,4.2c.13.24.25.49.38.74.71,1.38,1.39,2.78,2,4.21.06.14.13.27.19.41.39.91.75,1.83,1.1,2.76q5-2.15,9.92-4.49a80.65,80.65,0,0,0-7.43-14.58C374.7,189.92,371.59,191.81,368.52,193.79Z"/><path class="cls-17" d="M368.52,193.79l.21.33c.16.25.33.49.48.74q1.29,2.05,2.43,4.2c.13.24.25.49.38.74.71,1.38,1.39,2.78,2,4.21.06.14.13.27.19.41.39.91.75,1.83,1.1,2.76q5-2.15,9.92-4.49a80.65,80.65,0,0,0-7.43-14.58C374.7,189.92,371.59,191.81,368.52,193.79Z"/><path class="cls-15" d="M369.21,194.86q1.29,2.05,2.43,4.2Q370.5,196.92,369.21,194.86Z"/><path class="cls-17" d="M369.21,194.86q1.29,2.05,2.43,4.2Q370.5,196.92,369.21,194.86Z"/><path class="cls-15" d="M372,199.8c.71,1.38,1.39,2.78,2,4.21C373.41,202.58,372.73,201.18,372,199.8Z"/><path class="cls-17" d="M372,199.8c.71,1.38,1.39,2.78,2,4.21C373.41,202.58,372.73,201.18,372,199.8Z"/><path class="cls-15" d="M345.85,216.81A144,144,0,0,0,365,211.27a66.31,66.31,0,0,0-3.78-12.56,148.9,148.9,0,0,0-17.57,14.35C342,214.7,343.75,217.25,345.85,216.81Z"/><path class="cls-17" d="M345.85,216.81A144,144,0,0,0,365,211.27a66.31,66.31,0,0,0-3.78-12.56,148.9,148.9,0,0,0-17.57,14.35C342,214.7,343.75,217.25,345.85,216.81Z"/><path class="cls-15" d="M375.32,207.18c-.35-.93-.71-1.85-1.1-2.76.39.91.71,1.85,1.06,2.78Z"/><path class="cls-17" d="M375.32,207.18c-.35-.93-.71-1.85-1.1-2.76.39.91.71,1.85,1.06,2.78Z"/><path class="cls-15" d="M368.73,194.12l-.21-.33h0Z"/><path class="cls-17" d="M368.73,194.12l-.21-.33h0Z"/><path class="cls-16" d="M361.24,198.71A66.31,66.31,0,0,1,365,211.27c3.45-1.25,6.87-2.63,10.26-4.07-.35-.93-.67-1.87-1.06-2.78-.06-.14-.13-.27-.19-.41-.62-1.43-1.3-2.83-2-4.21-.13-.25-.25-.5-.38-.74q-1.14-2.15-2.43-4.2c-.15-.25-.32-.49-.48-.74l-.22-.33Q364.82,196.18,361.24,198.71Z"/><path class="cls-17" d="M361.24,198.71A66.31,66.31,0,0,1,365,211.27c3.45-1.25,6.87-2.63,10.26-4.07-.35-.93-.67-1.87-1.06-2.78-.06-.14-.13-.27-.19-.41-.62-1.43-1.3-2.83-2-4.21-.13-.25-.25-.5-.38-.74q-1.14-2.15-2.43-4.2c-.15-.25-.32-.49-.48-.74l-.22-.33Q364.82,196.18,361.24,198.71Z"/><path class="cls-18" d="M260.71,245.86A62.27,62.27,0,0,1,340.27,186a55.29,55.29,0,0,0-77.61,75.33A62.4,62.4,0,0,1,260.71,245.86Z"/><path class="cls-10" d="M427.2,143.21a6.78,6.78,0,0,0-9.63-.91L339.33,208a40.84,40.84,0,0,1,7.29,7.16l79.49-62.35A6.78,6.78,0,0,0,427.2,143.21Z"/><path class="cls-18" d="M345.39,210.7c-4-4.79-9.46-7.34-15.32-9.11a1,1,0,0,0-.76,1.8c4.59,2.78,7.84,7,10.63,11.52,2.54,4.09,5.82,8.47,7.35,13.06a1.26,1.26,0,0,0,2.46-.33C350.16,221.2,349.68,215.86,345.39,210.7Z"/><path class="cls-10" d="M117.81,160.15a16.33,16.33,0,0,0-19.32-19.31,98.4,98.4,0,0,0-49.15,26.77c-.69.7-1.38,1.4-2.05,2.11-8.51,9-9.85,19.42-6.85,28.39a15.5,15.5,0,0,1-3.73,16.15l-88.3,85.46a7.43,7.43,0,0,0-.09,10.59h0a7.44,7.44,0,0,0,10.61-.09l85.34-88.31a15.51,15.51,0,0,1,16.2-3.73c9,3,19.41,1.7,28.45-6.83.71-.67,1.42-1.35,2.11-2A98.45,98.45,0,0,0,117.81,160.15Z"/><path class="cls-12" d="M114.2,161.88a14.43,14.43,0,0,0-.49-7.83,88.93,88.93,0,0,1-23.45,41.27c-.63.63-1.26,1.25-1.91,1.85-17.5,16.52-40.77,3.14-44.54-14.85C38,204.83,67.19,227.84,88.13,208.09c.64-.6,1.28-1.22,1.9-1.85A88.83,88.83,0,0,0,114.2,161.88Z"/><path class="cls-10" d="M131.9,242.58,91,277.11c-1,.88-2-.13-1.1-1.1L126,235.63c1.22-1.45-.17-2.92-1.65-1.76L82.89,269c-1,.88-2-.13-1.1-1.1L117,226.52c1.16-1.49-.32-2.87-1.76-1.65l-40.4,36c-1,.88-2-.14-1.11-1.1l34.55-40.89c1.07-1.56-.62-2.75-2-1.4l-47.6,44.23c-5.74,5.73-6.92,13.85-2.64,18.13h0a5.58,5.58,0,0,1-.07,8l-96,92.52A7.42,7.42,0,0,0-40.13,391a7.43,7.43,0,0,0,10.6-.09l92.42-96.07a5.6,5.6,0,0,1,8-.07l0,0c4.28,4.28,12.4,3.1,18.14-2.64l44.25-47.57C134.66,243.21,133.47,241.52,131.9,242.58Z"/><path class="cls-12" d="M72.62,278.05c-3.57-.77-7.33-.22-10.89-1a15.4,15.4,0,0,1-3.23-1.11,7.29,7.29,0,0,0,1.32,1.82L73.06,291c3.8,3.8,11,2.75,16.12-2.35L91.86,286A19.19,19.19,0,0,1,87.5,285C82.32,283.18,78,279.21,72.62,278.05Z"/></g><g class="cls-19"><g id="Grupo_1-3-3" data-name="Grupo 1-3"><path id="Trazado_17-9-2" data-name="Trazado 17-9" class="cls-20" d="M500.28-20.84l160.3-160.3,160.3,160.3L778.3,21.74a166.47,166.47,0,0,1-235.42,0Zm160.3-160.3L632.67-209c-73.13-73.13-191.69-73.13-264.82,0l-27.91,27.91L500.26-20.86ZM222.22,21.74a166.47,166.47,0,0,0,235.42,0l42.58-42.58-160.3-160.3L179.62-20.84Z"/></g></g><g class="cls-21"><g id="Grupo_1-3-4" data-name="Grupo 1-3"><path id="Trazado_17-9-3" data-name="Trazado 17-9" class="cls-22" d="M32.28-20.84l160.3-160.3,160.3,160.3L310.3,21.74a166.47,166.47,0,0,1-235.42,0Zm160.3-160.3L164.67-209C91.54-282.18-27-282.18-100.15-209l-27.91,27.91L32.26-20.86ZM-245.78,21.74a166.47,166.47,0,0,0,235.42,0L32.22-20.84l-160.3-160.3-160.3,160.3Z"/></g></g></svg>