<svg id="Capa_1" data-name="Capa 1" xmlns="http://www.w3.org/2000/svg" xmlns:xlink="http://www.w3.org/1999/xlink" viewBox="0 0 375 812"><defs><style>.cls-1{fill:none;}.cls-2{clip-path:url(#clip-path);}.cls-3{fill:#f4c49f;}.cls-4{fill:#ca926e;}.cls-5{fill:#e4ad83;}.cls-6{clip-path:url(#clip-path-2);}.cls-7{fill:url(#linear-gradient);}.cls-8{clip-path:url(#clip-path-3);}</style><clipPath id="clip-path"><rect class="cls-1" width="375" height="812"/></clipPath><clipPath id="clip-path-2"><rect class="cls-1" y="-949.33" width="375" height="812"/></clipPath><linearGradient id="linear-gradient" x1="-14038.54" y1="1554.94" x2="-14036.86" y2="1417.79" gradientTransform="translate(-14003.1 1273.64) rotate(180)" gradientUnits="userSpaceOnUse"><stop offset="0" stop-color="#fe0"/><stop offset="0.3" stop-color="#ffdf00"/><stop offset="0.66" stop-color="#ffd300"/><stop offset="1" stop-color="#ffd000"/></linearGradient><clipPath id="clip-path-3"><rect class="cls-1" x="-464" y="-949.33" width="375" height="812"/></clipPath></defs><title>tour-bg-4</title><g class="cls-2"><path class="cls-3" d="M169.13,343.91H125c-27.83,0-51,19.39-74.71,5.83-15.83-9.07-15.83-28.39,0-37.46,23.66-13.56,46.88,5.83,74.71,5.83h44.14Z"/><rect class="cls-4" x="119.55" y="323.56" width="25.79" height="14.91" transform="translate(463.46 198.57) rotate(90)"/><path class="cls-5" d="M523.6,368.19V329.84c-120.79,14.2-262.92,14.19-383.7,0v38.38c0,5.29,5.11,9.59,11.4,9.59H512.19C518.49,377.78,523.6,373.48,523.6,368.19Z"/><path class="cls-3" d="M523.6,329.84v-36c0-5.29-5.11-9.59-11.41-9.59H151.3c-6.29,0-11.4,4.3-11.4,9.59v36C260.68,344,402.81,344,523.6,329.84Z"/><path class="cls-3" d="M204.42,206.28h44.14c27.83,0,51.05-19.39,74.7-5.84,15.84,9.08,15.84,28.4,0,37.47-23.65,13.56-46.87-5.84-74.7-5.84H204.42Z"/><rect class="cls-4" x="228.21" y="211.72" width="25.79" height="14.91" transform="translate(460.28 -21.93) rotate(90)"/><path class="cls-5" d="M233.65,256.35V218c-120.78,14.2-262.92,14.18-383.7,0v38.37c0,5.3,5.11,9.59,11.41,9.59H222.24C228.54,265.94,233.65,261.65,233.65,256.35Z"/><path class="cls-3" d="M233.65,218V182c0-5.3-5.11-9.59-11.41-9.59H-138.64c-6.3,0-11.41,4.29-11.41,9.59v36C-29.27,232.19,112.87,232.21,233.65,218Z"/></g><g class="cls-6"><g id="Grupo_1-3" data-name="Grupo 1-3"><path id="Trazado_17-9" data-name="Trazado 17-9" class="cls-7" d="M32.28-20.84l160.3-160.3,160.3,160.3L310.3,21.74a166.47,166.47,0,0,1-235.42,0Zm160.3-160.3L164.67-209C91.54-282.18-27-282.18-100.15-209l-27.91,27.91L32.26-20.86ZM-245.78,21.74a166.47,166.47,0,0,0,235.42,0L32.22-20.84l-160.3-160.3-160.3,160.3Z"/></g></g></svg>