<svg id="Capa_1" data-name="Capa 1" xmlns="http://www.w3.org/2000/svg" xmlns:xlink="http://www.w3.org/1999/xlink" viewBox="0 0 375 812"><defs><style>.cls-1{fill:none;}.cls-2{clip-path:url(#clip-path);}.cls-3{fill:#f0f0f1;}.cls-4{fill:#e6e6e7;}.cls-5{fill:#f4c49f;}.cls-6{fill:#e4ad83;}.cls-7{clip-path:url(#clip-path-2);}.cls-8{fill:url(#linear-gradient);}.cls-9{clip-path:url(#clip-path-3);}.cls-10{fill:url(#linear-gradient-2);}.cls-11{clip-path:url(#clip-path-4);}.cls-12{fill:url(#linear-gradient-3);}.cls-13{clip-path:url(#clip-path-5);}</style><clipPath id="clip-path"><rect class="cls-1" width="375" height="812"/></clipPath><clipPath id="clip-path-2"><rect class="cls-1" x="-924" width="375" height="812"/></clipPath><linearGradient id="linear-gradient" x1="-6917.1" y1="2034.32" x2="-6921.98" y2="1997.14" gradientTransform="matrix(-17.69, 0, 0, 14.22, -122505.39, -28938.67)" gradientUnits="userSpaceOnUse"><stop offset="0" stop-color="#fe0"/><stop offset="0.3" stop-color="#ffdf00"/><stop offset="0.66" stop-color="#ffd300"/><stop offset="1" stop-color="#ffd000"/></linearGradient><clipPath id="clip-path-3"><rect class="cls-1" x="470.67" y="-949.33" width="375" height="812"/></clipPath><linearGradient id="linear-gradient-2" x1="-12639.87" y1="1554.94" x2="-12638.19" y2="1417.79" gradientTransform="translate(-12133.77 1273.64) rotate(180)" xlink:href="#linear-gradient"/><clipPath id="clip-path-4"><rect class="cls-1" y="-949.33" width="375" height="812"/></clipPath><linearGradient id="linear-gradient-3" x1="-12169.2" y1="1554.94" x2="-12167.53" y2="1417.79" gradientTransform="translate(-12133.77 1273.64) rotate(180)" xlink:href="#linear-gradient"/><clipPath id="clip-path-5"><rect class="cls-1" x="-468" y="-949.33" width="375" height="812"/></clipPath></defs><title>tour-bg-2</title><g class="cls-2"><path class="cls-3" d="M146.62,307.21l81.21,81.22a22.55,22.55,0,0,0,33.8-2.2l65.53-85.15a19.91,19.91,0,0,0-1.7-26.21L316,265.44a25.24,25.24,0,0,1,.31-36L457.06,93.52,441.37,77.81,305.57,218.64a25.23,25.23,0,0,1-36,.33l-9.39-9.39a19.91,19.91,0,0,0-26.21-1.7l-85.15,65.53A22.54,22.54,0,0,0,146.62,307.21Zm156.64-11.55a5.67,5.67,0,0,1,.42,7.56l-48.51,60.64a5.67,5.67,0,0,1-8.44.47L245.4,363a5.68,5.68,0,0,1-.33-7.67L294.9,296A5.67,5.67,0,0,1,303.26,295.66Zm-16.44-16.45,0,0a5.67,5.67,0,0,1,.23,7.77L235.87,345a5.66,5.66,0,0,1-8.26.25l-1.36-1.35a5.69,5.69,0,0,1-.15-7.88l52.54-56.62A5.69,5.69,0,0,1,286.82,279.21ZM262.4,262.73a5.69,5.69,0,0,1,8,0l0,0a5.68,5.68,0,0,1,.05,8L216.55,326a5.66,5.66,0,0,1-8.07.05l-1.37-1.36a5.68,5.68,0,0,1,0-8.08Zm-16.22-16.62a5.67,5.67,0,0,1,7.77.24l0,0a5.67,5.67,0,0,1-.15,8.17l-56.62,52.54a5.67,5.67,0,0,1-7.87-.15L188,305.59a5.68,5.68,0,0,1,.25-8.27ZM169.33,278,230,229.51a5.67,5.67,0,0,1,7.19,8.78l-59.32,49.84a5.68,5.68,0,0,1-7.66-.34l-1.33-1.32A5.68,5.68,0,0,1,169.33,278Z"/><path class="cls-4" d="M228.59,212c8.19-5.16,19.95-4.86,27,2.21l9.39,9.38c10,10,30.7,14.33,40.5,4.17L443.81,89.46l8.61,8.62,4.68-4.52L441.41,77.85,305.61,218.68a25.23,25.23,0,0,1-36,.33l-9.39-9.39a19.91,19.91,0,0,0-26.2-1.7Z"/><path class="cls-4" d="M243.7,361.31l1.33,1.32a1.3,1.3,0,0,0,.18.15,5.66,5.66,0,0,1-.16-7.45L294.89,296a5.67,5.67,0,0,1,7.41-1.13,5,5,0,0,0-.74-.92,5.67,5.67,0,0,0-8.36.36l-49.83,59.32A5.68,5.68,0,0,0,243.7,361.31Z"/><path class="cls-4" d="M285.88,278.45a5.27,5.27,0,0,0-.74-.91l0,0a5.69,5.69,0,0,0-8.18.15L224.4,334.28a5.69,5.69,0,0,0,.15,7.88l1.35,1.35c.06.06.13.09.18.15a5.67,5.67,0,0,1,0-7.69l52.54-56.62A5.68,5.68,0,0,1,285.88,278.45Z"/><path class="cls-4" d="M168.7,286.27a5.66,5.66,0,0,1,.62-8.26L230,229.5a5.67,5.67,0,0,1,6.64-.32,5.26,5.26,0,0,0-.77-1,5.66,5.66,0,0,0-7.55-.42l-60.65,48.51a5.68,5.68,0,0,0-.47,8.45l1.33,1.32C168.55,286.16,168.63,286.2,168.7,286.27Z"/><path class="cls-4" d="M186.28,303.89l1.36,1.35c.05.06.12.1.18.16a5.67,5.67,0,0,1,.4-8.09l57.95-51.22a5.68,5.68,0,0,1,6.86-.49,5,5,0,0,0-.75-.92l0,0a5.67,5.67,0,0,0-7.77-.24l-57.95,51.21A5.68,5.68,0,0,0,186.28,303.89Z"/><path class="cls-4" d="M269.45,262a6.2,6.2,0,0,0-.73-.91l0,0a5.68,5.68,0,0,0-8,0l-55.24,53.91a5.68,5.68,0,0,0-.05,8.08l1.36,1.36c.06.06.13.09.18.15a5.67,5.67,0,0,1,.2-7.9l55.24-53.92A5.68,5.68,0,0,1,269.45,262Z"/><path class="cls-5" d="M155.35,359a53.67,53.67,0,0,0,23.17,2.05,6.52,6.52,0,0,0,3.7-11.07l-33.69-33.7a7.16,7.16,0,0,1,0-10.13h0a7.16,7.16,0,0,1,10.13,0l34.52,34.52a6.42,6.42,0,0,0,8.92.25c.75-.7,1.48-1.43,2.18-2.17a6.43,6.43,0,0,0-.25-8.93L169.51,295.3a7.16,7.16,0,0,1,0-10.13h0a7.16,7.16,0,0,1,10.13,0l33.69,33.7a6.52,6.52,0,0,0,11.07-3.71A53.47,53.47,0,0,0,222.35,292a222.66,222.66,0,0,0-55.26-91.63c-1.9-1.9-3.83-3.77-5.79-5.59C144.88,179.5,126,175,108,177.9c-23.51,3.75-47.29-5.16-63.83-22.29L-119.15-13.63a11.23,11.23,0,0,0-16-.14L-150.41,1.46a11.23,11.23,0,0,0,.14,16L19,180.86c17.13,16.53,26.05,40.31,22.3,63.82-2.87,17.92,1.59,36.84,16.88,53.26q2.73,2.94,5.59,5.8A222.73,222.73,0,0,0,155.35,359Z"/><path class="cls-6" d="M177.24,361.21c-35.89-10.25-63.76-24.59-91.47-52.3-1.9-1.91-3.77-3.84-5.59-5.8-46.5-50,7.18-123.06,62.55-120.8-29-13-61.4-.4-81.79,22.46a4.74,4.74,0,0,1-8.23-3.16h0a30.23,30.23,0,0,0-9-21.14l-164.88-162A18,18,0,0,1-124.55-2.8L-119-13.45l-.17-.18a11.23,11.23,0,0,0-16-.14L-150.41,1.46a11.22,11.22,0,0,0,.14,16L19,180.89c17.11,16.52,26.46,40.35,22.26,63.76,0,.12,0,.24,0,.36-2.76,17.82,1.73,36.61,16.92,52.93q2.73,2.94,5.59,5.8C97,337.05,156.05,366.46,177.24,361.21Z"/></g><g class="cls-7"><g id="Grupo_1-3" data-name="Grupo 1-3"><path id="Trazado_15-9" data-name="Trazado 15-9" class="cls-8" d="M-312.18-132.24l74.1-74.1a121.8,121.8,0,0,1,172.26,0h0s82.46,67,89.68,74.1C-38.36-121.6-152,28.08-152,28.08Z"/></g></g><g class="cls-9"><g id="Grupo_1-3-2" data-name="Grupo 1-3"><path id="Trazado_17-9" data-name="Trazado 17-9" class="cls-10" d="M502.94-20.84l160.31-160.3,160.3,160.3L781,21.74a166.48,166.48,0,0,1-235.43,0Zm160.31-160.3L635.33-209c-73.12-73.13-191.68-73.13-264.81,0l-27.91,27.91L502.93-20.86ZM224.88,21.74a166.48,166.48,0,0,0,235.43,0l42.58-42.58-160.3-160.3L182.29-20.84Z"/></g></g><g class="cls-11"><g id="Grupo_1-3-3" data-name="Grupo 1-3"><path id="Trazado_17-9-2" data-name="Trazado 17-9" class="cls-12" d="M32.28-20.84l160.3-160.3,160.3,160.3L310.3,21.74a166.47,166.47,0,0,1-235.42,0Zm160.3-160.3L164.67-209C91.54-282.18-27-282.18-100.15-209l-27.91,27.91L32.26-20.86ZM-245.78,21.74a166.47,166.47,0,0,0,235.42,0L32.22-20.84l-160.3-160.3-160.3,160.3Z"/></g></g></svg>