<svg id="Capa_1" data-name="Capa 1" xmlns="http://www.w3.org/2000/svg" xmlns:xlink="http://www.w3.org/1999/xlink" viewBox="0 0 375 812"><defs><style>.cls-1{fill:none;}.cls-2{clip-path:url(#clip-path);}.cls-3{fill:url(#linear-gradient);}.cls-4{fill:url(#linear-gradient-2);}.cls-5{fill:url(#linear-gradient-3);}.cls-6{fill:url(#linear-gradient-4);}.cls-7{clip-path:url(#clip-path-2);}.cls-8{fill:url(#linear-gradient-5);}</style><clipPath id="clip-path"><rect class="cls-1" width="375" height="812"/></clipPath><linearGradient id="linear-gradient" x1="-5983.91" y1="1836.68" x2="-5988.79" y2="1799.52" gradientTransform="matrix(-17.69, 0, 0, 14.22, -105267.45, -28937.84)" gradientUnits="userSpaceOnUse"><stop offset="0" stop-color="#fe0"/><stop offset="0.02" stop-color="#ffec00"/><stop offset="0.35" stop-color="gold"/><stop offset="0.68" stop-color="#ffcb00"/><stop offset="1" stop-color="#ffc700"/></linearGradient><linearGradient id="linear-gradient-2" x1="-10740.45" y1="1506.02" x2="-10738.77" y2="1368.87" gradientTransform="translate(-10285.77 1273.64) rotate(180)" gradientUnits="userSpaceOnUse"><stop offset="0" stop-color="#fe0"/><stop offset="0.3" stop-color="#ffdf00"/><stop offset="0.66" stop-color="#ffd300"/><stop offset="1" stop-color="#ffd000"/></linearGradient><linearGradient id="linear-gradient-3" x1="-5969.39" y1="2097.66" x2="-5974.28" y2="2060.47" gradientTransform="matrix(-17.69, 0, 0, 14.22, -105238.59, -28938.67)" xlink:href="#linear-gradient-2"/><linearGradient id="linear-gradient-4" x1="-10321.2" y1="605.61" x2="-10319.53" y2="468.45" xlink:href="#linear-gradient-2"/><clipPath id="clip-path-2"><rect class="cls-1" x="456" y="-949.33" width="375" height="812"/></clipPath><linearGradient id="linear-gradient-5" x1="-10777.2" y1="1554.94" x2="-10775.53" y2="1417.79" xlink:href="#linear-gradient-2"/></defs><title>tour-bg</title><g class="cls-2"><g id="Grupo_1-3" data-name="Grupo 1-3"><path id="Trazado_16-9" data-name="Trazado 16-9" class="cls-3" d="M291.16-132.24l-74.1-74.1a121.83,121.83,0,0,0-172.27,0s-82.44,67-89.66,74.1C17.36-121.6,130.94,28.08,130.94,28.08Z"/><path id="Trazado_17-9" data-name="Trazado 17-9" class="cls-4" d="M451.52,28.08l160.3-160.3,160.3,160.3L729.54,70.66a166.48,166.48,0,0,1-235.42,0Zm160.3-160.3-27.91-27.91c-73.13-73.13-191.69-73.13-264.82,0l-27.91,27.91L451.5,28.06ZM173.46,70.66a166.48,166.48,0,0,0,235.42,0l42.58-42.58-160.3-160.3L130.86,28.08Z"/></g><g id="Grupo_1-3-2" data-name="Grupo 1-3"><path id="Trazado_15-9" data-name="Trazado 15-9" class="cls-5" d="M192.58,768.17l74.1-74.1a121.81,121.81,0,0,1,172.26,0h0s82.46,67,89.68,74.1C466.4,778.81,352.8,928.49,352.8,928.49Z"/><path id="Trazado_17-9-2" data-name="Trazado 17-9" class="cls-6" d="M32.28,928.49l160.3-160.3,160.3,160.3L310.3,971.07a166.47,166.47,0,0,1-235.42,0Zm160.3-160.3-27.91-27.91c-73.13-73.12-191.69-73.12-264.82,0l-27.91,27.91L32.26,928.47ZM-245.78,971.07a166.47,166.47,0,0,0,235.42,0l42.58-42.58-160.3-160.3-160.3,160.3Z"/></g></g><g class="cls-7"><g id="Grupo_1-3-3" data-name="Grupo 1-3"><path id="Trazado_17-9-3" data-name="Trazado 17-9" class="cls-8" d="M488.28-20.84l160.3-160.3,160.3,160.3L766.3,21.74a166.47,166.47,0,0,1-235.42,0Zm160.3-160.3L620.67-209c-73.13-73.13-191.69-73.13-264.82,0l-27.91,27.91L488.26-20.86ZM210.22,21.74a166.47,166.47,0,0,0,235.42,0l42.58-42.58-160.3-160.3L167.62-20.84Z"/></g></g></svg>