<svg xmlns="http://www.w3.org/2000/svg" viewBox="0 0 32.96 32.96"><defs><style>.cls-1{fill:#f7de5c;}.cls-2{fill:#fefefe;}</style></defs><title>altramuces-icon</title><g id="Capa_2" data-name="Capa 2"><g id="Capa_1-2" data-name="Capa 1"><g id="Layer_2" data-name="Layer 2"><path class="cls-1" d="M33,16.44h0A16.48,16.48,0,1,1,16.41,0,16.48,16.48,0,0,1,33,16.44Z"/><path class="cls-2" d="M13.51,17.53h0c0,1.62-1.86,3.31-5.36,2.71-2.41-.36-3.73-1.09-3.73-2.71a2.93,2.93,0,0,1,.12-.72c.24.9.54,2,3.73,2.22C11.27,19.21,13.09,18.49,13.51,17.53Zm1.27-1.21h0a5.79,5.79,0,0,0-11.57,0c0,3.2,2.05,4.34,5.18,4.88C12,21.8,14.78,19.52,14.78,16.32Z"/><path class="cls-2" d="M26.47,11.5h0a4.4,4.4,0,0,1-4.42,4.4H22c-2.53,0-4.82-1.38-4.82-3.79a5.58,5.58,0,0,1,.12-1c.24,1.33,1.39,3.32,4.58,3.56A4.18,4.18,0,0,0,26.47,11.5Zm1.26-.5h0a6.52,6.52,0,0,0-6.08-6.3C18.45,4.7,16,8.37,16,11.56s2.84,5.19,6,5.19A5.79,5.79,0,0,0,27.73,11Z"/><path class="cls-2" d="M19.84,18.25h0c-5.12,3.49-3.67,7.17-2.77,8.55a4.78,4.78,0,0,1-1.57-5.6C16.23,19.4,17.73,18,19.84,18.25Zm1.33-.3h0c-2.72-1-5.13.24-6.21,3a5.38,5.38,0,0,0,2.89,7c2.65,1,5.79-1.33,6.87-4.1S23.82,19,21.17,18Z"/><path class="cls-1" d="M22.49,5.72h0c.72.06,1.27-.06,1.33-.24s-.55-.36-1.27-.36-1.26,0-1.26.18S21.83,5.66,22.49,5.72Z"/><path class="cls-1" d="M9.12,11.5h0c.72,0,1.26-.18,1.26-.36s-.54-.3-1.26-.3-1.27.12-1.27.3S8.39,11.5,9.12,11.5Z"/><path class="cls-1" d="M22.73,25.48h0c-.42.54-.66,1.08-.54,1.2s.6-.24,1-.78.67-1.14.55-1.26S23.15,24.94,22.73,25.48Z"/></g></g></g></svg>