<svg xmlns="http://www.w3.org/2000/svg" viewBox="0 0 32.98 32.99"><defs><style>.cls-1{fill:#7fcb28;}.cls-2{fill:#fefefe;}</style></defs><title>Asset 7allergen</title><g id="Layer_2" data-name="Layer 2"><g id="Capa_1" data-name="Capa 1"><path class="cls-1" d="M16.46,33h0A16.5,16.5,0,1,1,33,16.47,16.5,16.5,0,0,1,16.46,33Z"/><path class="cls-2" d="M21.64,8.29c-.22.49,1.26.76,1.47.11a.83.83,0,0,0-.38-1c-.27-.17-1.2-.06-1.36-.17A.85.85,0,0,1,21.64,8.29Z"/><path class="cls-2" d="M13.9,8.18c.33.27.93,1,1.47,1,.38-.05.38-1,.44-1.2.27-1.31,2.29,0,3,.27-.11-.32-.33-.81.11-1A2.92,2.92,0,0,1,20.72,7c-.28-.65-.93-1.63-1.91-1.25-.71.33-.82.11-1.47-.06a.46.46,0,0,0-.22,0,.94.94,0,0,0-.77.49c-.16.22-.32.49-.7.49-.22.06-.39-.11-.55-.22a.66.66,0,0,0-.54-.16C13.3,6.43,15.05,7.91,13.9,8.18Z"/><path class="cls-2" d="M11.28,9.54a.87.87,0,0,1-.21,1.15,9.78,9.78,0,0,0,1.14-.33c.49-.27.27-.76.38-1.2.11-.27.71-.82.38-1.09a1.32,1.32,0,0,0-.7-.22.65.65,0,0,0-.33.06c-.6.21-.11.92-1,1.09C10.68,9.05,11.23,9.43,11.28,9.54Z"/><path class="cls-2" d="M23.33,10.63c-1.58-.16-.27-1,0-1.69a2.25,2.25,0,0,1-1.58.11c-.71-.22-.54-.65-.43-1.14s-.5-.55-1-.55h-.27c-.87.06-.87.22-.82.87s-.6.28-1.36,0-1.58-.6-1.74.06c-.06.32-.06,1-.49,1.2-.77.38-1.64-.71-2.13-1a2.71,2.71,0,0,0-.44,1.15c-.05.32,0,.65-.38.92a7,7,0,0,1-2.12.71,12.42,12.42,0,0,0,2.5.82c.49.11.49.76,1,.82,1.25.11.27.92.76,1a37.39,37.39,0,0,1,.11,4c-.11.87-.22,1.69-.27,2.51-.33,3.38-.39,5.56.49,6.27h.05a2.13,2.13,0,0,0,1.2,1.42c-.06.11,1.64.22,1.58,0a2.16,2.16,0,0,0,.82-1c.16,0,.32-.17.6-.38,1.25-1.64.38-4.53.43-7.09s-.05-5.07-.05-6.33c.11,0,.11.06.22.11.43.11.16.11.65-.38.71-.71-.11-.44.71-1.09.65-.49,1.58-.65,2.07-1.31ZM15.1,25.9v.16c-.38-.93-.16-3,.06-5.67.1-.76.16-1.64.27-2.51A26.14,26.14,0,0,0,15.32,14a1.89,1.89,0,0,0,0-.88,1.38,1.38,0,0,0-.27-.59c0-.17-.11-.28-.11-.33a2.83,2.83,0,0,1,1.09,1.63L16,17a10.28,10.28,0,0,1,0,1.36C15.65,21,15.05,23.06,15.1,25.9Zm2.78,1.47c-.93.76-2,0-2.18-1.42a32.77,32.77,0,0,1,.11-3.65A34.45,34.45,0,0,0,16.3,17v-.35c.17,1.75.44,4.49.55,6a26.6,26.6,0,0,1,0,2.92.16.16,0,0,0,.15.17h0a.16.16,0,0,0,.16-.16,22.92,22.92,0,0,0,0-3c-.16-2.37-.7-7.59-.71-7.64a.1.1,0,0,0,0-.07l.1-1.06h.05a3.89,3.89,0,0,1-.05-.92,3.57,3.57,0,0,0-1.47-2.4s1.41.81,1.2.05c-.22-.6,1.09,1.47,1.47,2a2.29,2.29,0,0,1,.38,1.09h0l.06,1.47c-.06,1.64-.11,3.87-.11,3.87C18.37,24.48,18.81,26.66,17.88,27.37Zm1.31-.87c-.11.11-.22.22-.27.22a2.52,2.52,0,0,0,0-.93c0-1-.16-2.35-.27-4-.06-1.25-.06-2.78,0-4.19l-.22-3.49v-.49h-.05a16.65,16.65,0,0,0,0-2.24,2.45,2.45,0,0,1,.27-1.2c.05.22.05,1.47.11,1.58s.38-.05.38.38a8.93,8.93,0,0,0,.11,1.26c0,1.31.11,6.1.11,6.1C19.73,23.83,19.73,26,19.19,26.5Z"/></g></g></svg>