<svg xmlns="http://www.w3.org/2000/svg" viewBox="0 0 32.98 32.98"><defs><style>.cls-1{fill:#b78051;}.cls-2{fill:#fefefe;}</style></defs><title>Asset 11allergen</title><g id="Layer_2" data-name="Layer 2"><g id="Capa_1" data-name="Capa 1"><path class="cls-1" d="M16.46,33h0A16.49,16.49,0,1,1,33,16.46,16.49,16.49,0,0,1,16.46,33Z"/><path class="cls-2" d="M20.44,19.68l.87,4.47-1.14-4.36c-2.51-.44-2.34,3.27-1.36,5.56s3.54,1.64,3.7,1.58c1.64-.76,2.29-3.05,1.26-5.18C21.86,17.72,20.44,19.68,20.44,19.68Z"/><path class="cls-2" d="M29.76,14.83l-4,2,3.93-2.24s.59-2.34-3.71-1.2a3.85,3.85,0,0,0-2.89,4.36,2.73,2.73,0,0,0,3.32,1.75C28.78,18.75,31.73,16.46,29.76,14.83Z"/><path class="cls-2" d="M24.2,11.5C25.84,7.14,22.62,3.82,17.72,5c-2.56.6-4,4.3-5.07,7-3.49.87-8.18,4.31-7,9.05.76,3.33,6.15,2.4,9,1.09,2.18-.93,2.56-3.71,4.52-6.16C20.82,13.85,23.5,13.52,24.2,11.5Zm-7.15,3.11a6.18,6.18,0,0,0-1-.76l0,0c.18-.29.38-.55.57-.81a11,11,0,0,0,.85-1.32l.4-.71.35.21c.27.2.53.41.78.62A14.77,14.77,0,0,1,18,13.37C17.64,13.77,17.33,14.19,17.05,14.61Zm-4.94,5.54c-.22.16-.42.33-.62.49l-.66.52A5.45,5.45,0,0,1,9.59,22a4.12,4.12,0,0,1-1.43-.33,1.66,1.66,0,0,0,.29-.24l.63-.48.61-.49c.61-.47,1.16-.92,1.68-1.37a9.93,9.93,0,0,1,1,.93C12.26,20,12.2,20.09,12.11,20.15Zm.45.06a13.09,13.09,0,0,1,.89,1.1,9,9,0,0,1-3.18.63,5.55,5.55,0,0,0,.79-.55c.22-.16.42-.33.63-.49s.4-.33.62-.49Zm-.06-6.9c.15,0,.3,0,.44,0a3.62,3.62,0,0,1,1.2.06c-.57.64-1.36,1.44-2.14,2.19a12.94,12.94,0,0,0-2.64-.61l-.11,0A8.59,8.59,0,0,1,12.5,13.31Zm2.1-3.09a6.24,6.24,0,0,1,1.6.16c-.31.54-.63,1-.93,1.47-.12.19-.25.37-.36.55a7.58,7.58,0,0,1-.53.66,3.3,3.3,0,0,0-1.1-.13A27.82,27.82,0,0,1,14.6,10.22Zm2.81-2.53a5.76,5.76,0,0,0-.79-.15,5.08,5.08,0,0,1,.9-.72,3.94,3.94,0,0,0-.05.4A2.75,2.75,0,0,1,17.41,7.69Zm-1.08.13a9,9,0,0,1,1,.18c-.07.22-.18.49-.35.88s-.4.83-.6,1.2a7.62,7.62,0,0,0-1.57-.19A12.32,12.32,0,0,1,16.33,7.82Zm-.51,5.85,0,0a8.17,8.17,0,0,0-1.06-.48,5.12,5.12,0,0,0,.46-.6q.18-.25.36-.54c.32-.48.66-1,1-1.58a7.52,7.52,0,0,1,1.1.39l-.4.7a9.41,9.41,0,0,1-.83,1.29c-.19.26-.39.53-.57.81Zm.88-3.51A12.32,12.32,0,0,0,17.27,9c.18-.4.29-.7.37-.93.4.11.79.25,1.13.38-.12.33-.26.67-.44,1.06s-.35.69-.53,1A6.23,6.23,0,0,0,16.7,10.16Zm-2.21,3.28a6.88,6.88,0,0,1,1.13.49c-.44.59-.93,1.19-1.52,1.84l-.51.61a5.47,5.47,0,0,0-1.26-.72C13.14,14.89,13.92,14.08,14.49,13.44Zm-1.11,3.19c-.31.35-.64.71-1,1.08s-.67.61-1,.92a10.71,10.71,0,0,0-1.55-.78l.51-.38c.5-.4,1.13-1,1.78-1.57A5.22,5.22,0,0,1,13.38,16.63Zm-1.77,2.19c.34-.29.68-.58,1-.88s.72-.75,1-1.11l0,0a6.68,6.68,0,0,1,.93,1.05l-.12.13a22,22,0,0,1-1.9,1.73A10.36,10.36,0,0,0,11.61,18.82Zm2.29-2.2-.05,0c.17-.2.35-.41.5-.6a23.26,23.26,0,0,0,1.54-1.87,5.87,5.87,0,0,1,1,.77l0,.06c-.48.59-1,1.29-1.43,1.91l-.58.79A7,7,0,0,0,13.9,16.62Zm4.57-5.68a3,3,0,0,0-.38-.23c.19-.35.37-.71.54-1.05s.32-.74.44-1.07a5.66,5.66,0,0,1,.59.28l.5.28c-.25.72-.49,1.4-.69,1.86-.07.18-.15.35-.24.53C19,11.33,18.73,11.12,18.47,10.94Zm1.34-4.71a.14.14,0,0,0,0-.07A4.27,4.27,0,0,1,21,6.43c-.18.59-.47,1.5-.77,2.4l-.46-.25a6.12,6.12,0,0,0-.62-.3,16.57,16.57,0,0,0,.59-2ZM21.7,9.76C21.35,9.5,21,9.24,20.56,9c.3-.89.59-1.82.78-2.44a7,7,0,0,1,.79.44c0,.66-.22,2-.26,2.22S21.76,9.58,21.7,9.76Zm-1.92,1.37c.18-.43.42-1.1.67-1.81a12.82,12.82,0,0,1,1.15.78c-.39,1.23-.78,2.23-1,2.8a10.22,10.22,0,0,0-1.09-1.13C19.59,11.56,19.69,11.35,19.78,11.13ZM21,12.81c.24-.58.58-1.45.92-2.5a7.2,7.2,0,0,1,.88.78A6.89,6.89,0,0,1,21,12.81Zm2-2A11,11,0,0,0,22,10c.07-.21.14-.43.2-.66s.21-1.36.26-2.09a3.79,3.79,0,0,1,.4.3A3.61,3.61,0,0,1,22.94,10.81ZM19.49,6.16l0,.07a16.07,16.07,0,0,1-.58,1.92c-.35-.13-.75-.27-1.17-.38a3.67,3.67,0,0,0,.08-.52,4.26,4.26,0,0,1,.09-.65A3.72,3.72,0,0,1,19.49,6.16Zm-10.56,9,.38.06a14.57,14.57,0,0,1,2.42.53c-.59.56-1.17,1.07-1.64,1.44-.21.17-.44.33-.66.5a10.47,10.47,0,0,0-1.9-.52A6,6,0,0,1,8.93,15.18ZM7.41,17.51A9,9,0,0,1,9.12,18,12.12,12.12,0,0,0,7.35,19.4a2.39,2.39,0,0,1-.4.3A8.31,8.31,0,0,1,7.41,17.51ZM6.93,20.1a4.15,4.15,0,0,0,.66-.47,12.45,12.45,0,0,1,1.74-1.44l.16-.11a10.6,10.6,0,0,1,1.6.78q-.75.63-1.59,1.29c-.22.16-.42.33-.63.49s-.41.33-.63.49l0,0a2.09,2.09,0,0,1-.39.28,3.23,3.23,0,0,1-.9-.68C6.92,20.54,6.92,20.32,6.93,20.1Zm6.81,1.08A10.46,10.46,0,0,0,12.82,20a23.62,23.62,0,0,0,1.91-1.74l.07-.08a8,8,0,0,1,.63,1.22c.1.22.14.33.22.39a4.47,4.47,0,0,1-.44.43A8.38,8.38,0,0,1,13.74,21.18Zm2.11-1.64-.12-.26A7.42,7.42,0,0,0,15,17.92c.18-.23.4-.53.66-.88.44-.61.94-1.3,1.42-1.9a7.17,7.17,0,0,1,.5.64l0,0C17,17,16.67,18.45,15.85,19.54ZM18,15.16c-.09.11-.16.23-.24.35a7.35,7.35,0,0,0-.52-.65c.29-.44.61-.87.94-1.29a16.09,16.09,0,0,0,1.08-1.52,9.33,9.33,0,0,1,1.09,1.16A10.29,10.29,0,0,0,18,15.16Z"/></g></g></svg>