<svg xmlns="http://www.w3.org/2000/svg" viewBox="0 0 54.09 54.07"><defs><style>.cls-1{fill:#df8042;}</style></defs><title>celiac-icon</title><g id="Capa_2" data-name="Capa 2"><g id="Capa_1-2" data-name="Capa 1"><path class="cls-1" d="M27,54.07a27,27,0,1,1,27.05-27A27.05,27.05,0,0,1,27,54.07ZM13.32,44.26c2.84,2.7,8.67,5.17,14.28,5a20.46,20.46,0,0,0,9.48-2.52,2.6,2.6,0,0,0-1.69-1.5,20.83,20.83,0,0,1-2.48-1.07,1.35,1.35,0,0,0-1.31,0,6.72,6.72,0,0,1-3.3.66,11.67,11.67,0,0,1-7.46-3.23c-.18-.17-.33-.38-.58-.67a13.54,13.54,0,0,1,1.41-.2,28.58,28.58,0,0,1,13.26,3.25c-.21-.42-.3-.62-.4-.81-.52-1-1.14-1.88-2.45-1.83A10.31,10.31,0,0,1,25.6,34.8a1,1,0,0,1,.34-1.32c.46-.41.81-.1,1.16.13a21.16,21.16,0,0,1,4.68,4.18c.63.76,1.21,1.57,1.81,2.35a10.58,10.58,0,0,1,0-5.33,7.3,7.3,0,0,1,3.13-4.41A22.45,22.45,0,0,1,37,33.06a14.64,14.64,0,0,1-1.79,7.09,1.35,1.35,0,0,0,0,1.49c.4.69.78,1.4,1.11,2.12a3.2,3.2,0,0,0,1.88,1.67,1.43,1.43,0,0,0,1.56-.18,24.55,24.55,0,0,0,4.39-4.07,22.24,22.24,0,0,0,2.64-24.3,17.56,17.56,0,0,0-2.42-3.59ZM35.06,6.52A21.89,21.89,0,0,0,9.13,14.07c-6.34,8.62-5,20.17.69,26.72q15.46-15.48,31-31a17.57,17.57,0,0,0-5.12-3,20.49,20.49,0,0,1-1.32,6,13.73,13.73,0,0,1-3.43,5C29.71,12.88,31.28,9.33,35.06,6.52Z"/><path class="cls-1" d="M36.24,25.21a14.91,14.91,0,0,1-4.07,10.07C30.75,32.14,32.12,26.61,36.24,25.21Z"/><path class="cls-1" d="M20.16,39.13c.73-.68,1.4-1.27,2-1.92a.79.79,0,0,1,1.14-.12l4,2.51C25.93,40.91,21.89,40.35,20.16,39.13Z"/><path class="cls-1" d="M26.8,32.66c.31-.34.53-.58.76-.81.51-.52,1-1,1.6-1.58a19.8,19.8,0,0,1,2.44,5.2C29.55,35.26,28.19,34.07,26.8,32.66Z"/><path class="cls-1" d="M34.64,24.81a.34.34,0,0,1,0,.1c-.82,1.81-2.32,3-3.88,4.35.14-.8,1.85-2.67,3.9-4.43Z"/><polygon class="cls-1" points="34.87 24.62 34.91 24.57 34.85 24.6 34.87 24.62"/><path class="cls-1" d="M34.65,24.83l.22-.21,0,0-.21.21Z"/><path class="cls-1" d="M15,13.05a16.07,16.07,0,0,1,2.25,11.86C14.45,23.58,12.2,17.54,15,13.05Z"/><path class="cls-1" d="M10,21.27c3.21,1,8.21,5.72,9,8.58a5.18,5.18,0,0,1-.95,0,8.29,8.29,0,0,1-4.79-2.46A11.48,11.48,0,0,1,10,21.27Z"/><path class="cls-1" d="M27.92,20.9c-2.21-3.43-2.2-6.82-1-10.44a5.45,5.45,0,0,1,1.2,1.77,17.93,17.93,0,0,1,1.79,6.11,1,1,0,0,1-.21.7C29.17,19.64,28.6,20.2,27.92,20.9Z"/><path class="cls-1" d="M21.52,18.89c.91,2.75.05,9.34-2,10.24C17.64,26.43,18.2,20.8,21.52,18.89Z"/><path class="cls-1" d="M18,30.76l-1.92,1.92a4.15,4.15,0,0,1-.54.41,11.38,11.38,0,0,1-3.34-4.62C14.4,28.69,16.08,29.75,18,30.76Z"/><path class="cls-1" d="M27.56,21.07l-2.25,2.32a11.05,11.05,0,0,1-.38-5.54A7.81,7.81,0,0,1,27.56,21.07Z"/><path class="cls-1" d="M21.33,27.21A6.38,6.38,0,0,1,23.09,24a1.44,1.44,0,0,1,.22.25c.1.27.19.56.29.83Z"/></g></g></svg>