<svg xmlns="http://www.w3.org/2000/svg" viewBox="0 0 32.91 32.98"><defs><style>.cls-1{fill:#00adee;}.cls-2{fill:#fefefe;}</style></defs><title>Asset 14allergen</title><g id="Layer_2" data-name="Layer 2"><g id="Capa_1" data-name="Capa 1"><path class="cls-1" d="M32.91,16.46h0A16.46,16.46,0,1,1,16.43,0,16.48,16.48,0,0,1,32.91,16.46Z"/><path class="cls-2" d="M8.38,24.92h0a.24.24,0,0,0-.33-.22c-.16,0-.27.16-.22.38a2.56,2.56,0,0,0,.44.87c.27.33.6.55.65.44s-.16-.33-.27-.71S8.43,25,8.38,24.92Zm.43-3h0a.46.46,0,0,0-.65.17,3.17,3.17,0,0,0-.49,2c.11.38.22.38.33.38s.27-.05.32-.33A12.17,12.17,0,0,1,9,22.57.48.48,0,0,0,8.81,22Zm2,1.86h0c.05-.22-.11-.44-.39-.55a.48.48,0,0,0-.54.38,2,2,0,0,0,.33,1.47,1.36,1.36,0,0,0,.65.49c.33.11.44,0,.49-.16s.05-.22-.11-.38A1.43,1.43,0,0,1,10.83,23.83Zm11.58-.55h0a.52.52,0,0,0-.32.55,1.43,1.43,0,0,1-.44,1.25c-.16.16-.16.27-.11.38s.11.27.44.16a1.17,1.17,0,0,0,.65-.49A1.77,1.77,0,0,0,23,23.66.44.44,0,0,0,22.41,23.28Zm-1.47,2.13h0c-.05,0-.43.11-.81.21s-.71.17-.71.28a1.42,1.42,0,0,0,.76.16,2.58,2.58,0,0,0,.93-.11c.21-.05.32-.22.21-.38A.27.27,0,0,0,20.94,25.41Zm-8.21.21h0a7.48,7.48,0,0,0-.82-.21.3.3,0,0,0-.38.16.32.32,0,0,0,.22.38,3,3,0,0,0,.92.11,1.53,1.53,0,0,0,.82-.16C13.49,25.79,13.11,25.73,12.73,25.62ZM8.05,18.86h0a.68.68,0,0,0,.11-.32c0-.11-.11-.22-.22-.33a9.29,9.29,0,0,1-1.41-.87c-.22-.17-.33-.17-.44-.06s-.21.11,0,.44a1.11,1.11,0,0,0,.43.54,3.44,3.44,0,0,0,1,.71.46.46,0,0,0,.27.06A.39.39,0,0,0,8.05,18.86Zm13.71-7.47h0s0,.06.11.06c-.11.87-.22,1.91.27,2.45-.38.28-.82.6-1.2.93.11.22.17.44.28.71a3.53,3.53,0,0,0,.38.82,1.78,1.78,0,0,1,.27.38.05.05,0,0,1,.05-.06,7.41,7.41,0,0,0,1.74-2.5,2,2,0,0,0,.82-1.26,6.77,6.77,0,0,0-.16-4,7.09,7.09,0,0,0-1.8-2.56c-.27-.22-.87-.6-1.58-1a8.91,8.91,0,0,1,1.2,4.26c-.22-.11-.38-.22-.49-.28A6.56,6.56,0,0,1,19.2,6.49C18.17,9.49,21.71,11.34,21.76,11.39ZM25.84,14h0c.11.06.33,0,.33-.27a2.77,2.77,0,0,0,.1-.87c-.05-.38-.1-.77-.21-.77s-.11.39-.22.71-.22.71-.22.82A.32.32,0,0,0,25.84,14Zm-1.47,2.35h0A.44.44,0,0,0,25,16.3,3.76,3.76,0,0,0,26,14.61c0-.33-.06-.38-.22-.43s-.22-.06-.38.16a12.16,12.16,0,0,1-1,1.36A.51.51,0,0,0,24.37,16.36ZM7.13,14.18h0c-.11.05-.22.1-.17.43a4.08,4.08,0,0,0,.87,1.69.46.46,0,0,0,.66.06.59.59,0,0,0,0-.66,12.16,12.16,0,0,1-1-1.36C7.34,14.12,7.24,14.12,7.13,14.18Zm-1,2.5h0a2.47,2.47,0,0,1-.33-.76c-.11-.33-.16-.65-.22-.65s-.16.32-.16.76a2.25,2.25,0,0,0,.16.87c.06.22.22.27.38.16A.28.28,0,0,0,6.15,16.68ZM7.07,14h0a.36.36,0,0,0,.22-.38,3.78,3.78,0,0,1-.22-.82c-.11-.32-.16-.71-.27-.71a1.47,1.47,0,0,0-.16.77c0,.38.05.81.05.87C6.75,14,6.91,14.07,7.07,14Zm19.75,3.27h0c-.11-.11-.22-.11-.44.06a12.4,12.4,0,0,1-1.41.87c-.11.11-.22.22-.22.33a.82.82,0,0,0,.11.32.33.33,0,0,0,.33.17.55.55,0,0,0,.27-.06,3.44,3.44,0,0,0,1-.71,1.54,1.54,0,0,0,.43-.54C27,17.39,26.93,17.34,26.82,17.28ZM9.25,14.18h0a7.48,7.48,0,0,0,1.68,2.5c.06,0,.11,0,.11.06.11-.11.17-.28.33-.38a4.3,4.3,0,0,0,.33-.82c.11-.27.16-.49.27-.71-.38-.33-.87-.65-1.2-.93A3.09,3.09,0,0,0,11,11.45s.11-.06.16-.06,3.54-1.9,2.56-4.9a6.49,6.49,0,0,1-2.45,2.83c-.11.06-.33.17-.49.28a9.67,9.67,0,0,1,1.14-4.26c-.65.44-1.25.82-1.52,1A7.07,7.07,0,0,0,8.6,8.94a6.32,6.32,0,0,0-.17,4A1.8,1.8,0,0,0,9.25,14.18Zm14.85,7h0a1.73,1.73,0,0,0-.6-.81,4.18,4.18,0,0,0-1.41-.71,4.59,4.59,0,0,0,2.28-.11c.38-.17.33-.38.27-.55a.57.57,0,0,0-.38-.49c-.27-.05-.87-.11-2-.27,2.29-.82,2.29-1.53,2-1.69-.38-.33-.22-.44-2.39.27a1.22,1.22,0,0,1,.27.6c0,.17.06.33.06.6a9.66,9.66,0,0,1-.77,3.55,3.37,3.37,0,0,1-.76.7,2.93,2.93,0,0,1,.6.33,3.48,3.48,0,0,1,.49.38.44.44,0,0,0,.6.11c.22,0,.38-.11.32-.54a1.55,1.55,0,0,0-.48-1,1.14,1.14,0,0,0-.55-.44,6.46,6.46,0,0,1,1.69.76.47.47,0,0,0,.6-.05C24.1,21.64,24.26,21.54,24.1,21.15Zm-13.44.39h0a2.79,2.79,0,0,0-.49,1c0,.43.17.49.38.54a.45.45,0,0,0,.6-.11,1.89,1.89,0,0,1,.49-.38,3.22,3.22,0,0,1,.6-.33,2.88,2.88,0,0,1-.71-.7A8.7,8.7,0,0,1,10.77,18a1.73,1.73,0,0,1,.06-.6,1.31,1.31,0,0,1,.21-.6c-2.17-.71-2-.6-2.39-.27-.33.16-.33.87,2,1.69-1.14.16-1.69.22-2,.27a.57.57,0,0,0-.38.49c-.06.17-.11.38.27.55a4.36,4.36,0,0,0,2.23.11,3.39,3.39,0,0,0-1.36.71,2.48,2.48,0,0,0-.65.81c-.16.39,0,.49.16.66a.53.53,0,0,0,.65.05,6.75,6.75,0,0,1,1.64-.76A2.13,2.13,0,0,0,10.66,21.54ZM24.1,22h0a.46.46,0,0,0-.16.6,8.71,8.71,0,0,1,.59,1.58c.11.28.22.33.33.33s.27,0,.33-.38a2.93,2.93,0,0,0-.44-2A.46.46,0,0,0,24.1,22Zm.76,2.73h0a.3.3,0,0,0-.38.22,2.24,2.24,0,0,1-.22.76c-.16.38-.38.65-.32.71s.43-.11.7-.44a2.56,2.56,0,0,0,.44-.87C25.13,24.86,25,24.7,24.86,24.7Zm2.45-9.43h0c-.06,0-.16.32-.27.65a3,3,0,0,1-.28.76.28.28,0,0,0,.17.38c.11.11.32.06.38-.16a2.25,2.25,0,0,0,.16-.87C27.47,15.59,27.36,15.21,27.31,15.27Zm-6.15,6.16h0A8.73,8.73,0,0,0,21.87,18v-.54a2.93,2.93,0,0,0-.49-.88A8.54,8.54,0,0,1,20.67,15a3,3,0,0,0-.81-1.25c-.28-.16-.6-.27-.87-.44a.94.94,0,0,1-.33-.38c-.06-.27,0-.65-.49-.6-.16,0-.44.22-.54.27a1.77,1.77,0,0,1-.93.06c-.05,0-.05,0-.11,0s-.11,0-.11.06a.18.18,0,0,0-.16-.06s-.05,0-.11,0c-.27,0-.6.11-.87-.06s-.38-.27-.6-.27c-.43-.05-.43.33-.49.6a1,1,0,0,1-.32.38c-.22.17-.6.28-.82.44A2.58,2.58,0,0,0,12.24,15a5.81,5.81,0,0,1-.71,1.58,1.83,1.83,0,0,0-.43.88A1.49,1.49,0,0,0,11,18a8.91,8.91,0,0,0,.71,3.44,5.13,5.13,0,0,0,.87.76,10.22,10.22,0,0,0,2.07,1.25,17.09,17.09,0,0,0,1.79,0,16.05,16.05,0,0,0,1.74,0,8.79,8.79,0,0,0,2.07-1.25A4.74,4.74,0,0,0,21.16,21.43Z"/></g></g></svg>