<svg xmlns="http://www.w3.org/2000/svg" viewBox="0 0 32.91 32.98"><defs><style>.cls-1{fill:#be5854;}.cls-2{fill:#fefefe;}</style></defs><title>Asset 8allergen</title><g id="Layer_2" data-name="Layer 2"><g id="Capa_1" data-name="Capa 1"><path class="cls-1" d="M16.43,33h0A16.49,16.49,0,1,1,32.91,16.46,16.47,16.47,0,0,1,16.43,33Z"/><path class="cls-2" d="M19.09,17.61h0a14.81,14.81,0,0,1-.32-3.93C19.69,14.39,19.2,16.3,19.09,17.61ZM16.81,20h0c.22,1.69,1.09,2.73,1.63,4.15C17.62,23.23,15.88,21.64,16.81,20Zm.05-4.58h0c.28,1,.38,2.4.66,3.28C16.65,18.32,16.27,16.57,16.86,15.37ZM17.24,8h0a9.3,9.3,0,0,1,.87,3.17A3.7,3.7,0,0,1,17.24,8ZM23,13.74h0c-1-1.47-2.23-2.67-2.88-4.47A8.54,8.54,0,0,1,23,13.74Zm1.14,6.87h0c-.38-1.53-.21-3.6-.92-4.8C24.53,16.19,24.59,19,24.15,20.61Zm-3.26-6.93h0c1.36.39,1.31,2.24,1.47,3.88A40.48,40.48,0,0,1,20.89,13.68Zm.65,10.42h0a10.61,10.61,0,0,1,.27-3.33C22.09,21.75,22.41,23.5,21.54,24.1Zm-.92-3.71h0A5.15,5.15,0,0,1,20.51,17,5.17,5.17,0,0,1,20.62,20.39Zm-.33,5.78h0a6.94,6.94,0,0,0,2.07-.82,12.15,12.15,0,0,0,.92-2.45,6.26,6.26,0,0,1,.17,1.8c1.3-.77,1.74-2.29,1.85-4.09.21-4.15-.55-7.25-2.56-9.6A12.31,12.31,0,0,0,20,8.61C18.6,7.8,17,7.14,16.48,5.51a37.86,37.86,0,0,0-1.63,7.19c-.16,1-.43,2-.49,3-.27,3.82.16,7.63,1.36,10,.11.22.16.55.44.6-.28-1.9-1.42-4.25-1.58-6.59A25.07,25.07,0,0,1,17,6.87v0a23.91,23.91,0,0,0-1.36,6.66,36.41,36.41,0,0,0-.49,4.19c.05,2.89.21,5.73,1.14,7.64.82-2,2.23,1.09,3.64.7-.76-1.14-.32-3.05-.16-4.57C20,23.06,20.13,24.64,20.29,26.17Z"/><path class="cls-2" d="M8.87,15.65h0a24.83,24.83,0,0,0,.21,5.29C8.27,19.63,7.78,17,8.87,15.65Zm1.36-3h0a6,6,0,0,1,0,3.38A4.3,4.3,0,0,1,10.23,12.7Zm1,8.4h0a2.57,2.57,0,0,1,.38,1.53c-.33-.11-.27-.39-.44-.71s-.54-.55-.65-.88c-.33-.87.05-1.9.11-2.88C10.93,18.86,10.93,20.17,11.21,21.1Zm.92-11.18h0c.38-.71.33-1.25,1.47-1.31-.87.71-1,2.13-2.23,2.57C11.32,10.58,11.81,10.41,12.13,9.92Zm.06,6.76h0c-.49-1.58-.66-4.3.65-5.18A20.34,20.34,0,0,0,12.19,16.68Zm1.14,9.16h0c-.11-.38-.44-1-.22-1.52a8.37,8.37,0,0,1,.76,1.14c.22,0,.22-.22.38-.27.33.33.71,1,1.14,1-1.74-2.18-2.06-5.5-2.23-8.88C13,13.08,14.47,9.81,15.61,6.76c-1.41,1.15-3.21,1.64-4.51,3-2.18,2.18-3.32,6.05-3.48,9.87a5.16,5.16,0,0,0,0,1.36c0,1.2,1.25,2.13,1.85,2.78A2,2,0,0,1,9,22C10.17,23.55,10.72,25.79,13.33,25.84Z"/></g></g></svg>