<svg xmlns="http://www.w3.org/2000/svg" xmlns:xlink="http://www.w3.org/1999/xlink" viewBox="0 0 32.98 32.98"><defs><style>.cls-1{fill:#df8042;}.cls-2{clip-path:url(#clip-path);}.cls-3{fill:#fefefe;}</style><clipPath id="clip-path"><path class="cls-1" d="M0,16.46H0A16.49,16.49,0,1,0,16.46,0,16.49,16.49,0,0,0,0,16.46Z"/></clipPath></defs><title>Asset 1allergen</title><g id="Layer_2" data-name="Layer 2"><g id="Capa_1" data-name="Capa 1"><path class="cls-1" d="M0,16.46H0A16.49,16.49,0,1,0,16.46,0,16.49,16.49,0,0,0,0,16.46Z"/><g class="cls-2"><path class="cls-3" d="M14.74,20.93A26.87,26.87,0,0,1,18,18.26a29,29,0,0,0-3.6,2.61,19.25,19.25,0,0,0-4.47,2.58c.26-.85.54-1.7.85-2.56.73.42,2.43.55,4.92-4.06a23.73,23.73,0,0,1,3.06-2.55,25.63,25.63,0,0,0-3.18,2.27,18,18,0,0,0-4,2.19v-.06c.26-.65.54-1.3.83-1.95.64.4,2.15.58,4.54-3.5a21.83,21.83,0,0,1,2.8-2.11A21.68,21.68,0,0,0,16.86,13a16.18,16.18,0,0,0-3.47,1.73c.35-.72.73-1.44,1.12-2.15.46.38,1.84.92,4-3.11a16.41,16.41,0,0,1,2.36-1.87,18.72,18.72,0,0,0-2.55,1.76,15.06,15.06,0,0,0-2.83,1.5c.38-.61.76-1.23,1.17-1.84.32.33,1.48,1,3.66-2.36a17.5,17.5,0,0,1,2.18-1.51,14.74,14.74,0,0,0-2.3,1.35,11.93,11.93,0,0,0-2.64,1.22c.6-.85,1.22-1.69,1.89-2.52L19,5.51c-.55.62-1.07,1.26-1.58,1.91a9.39,9.39,0,0,0-.76-3.57A19.7,19.7,0,0,0,16.3,1.2a18.15,18.15,0,0,1,.2,2.58c-1.14,3.57-.14,4.25.39,4.37-.58.78-1.14,1.57-1.67,2.37a11.12,11.12,0,0,0-1.19-4,20.34,20.34,0,0,0-.67-3,19.84,19.84,0,0,1,.46,3.08c-1,4.15.16,4.84.78,4.93-.48.79-.95,1.57-1.39,2.37A14.52,14.52,0,0,0,12,9.7a20.92,20.92,0,0,0-.68-3.54,20.72,20.72,0,0,1,.41,3.42c-1.34,4.73,0,5.59.71,5.73-.33.65-.65,1.3-1,2a18.41,18.41,0,0,0-1.45-4,24.32,24.32,0,0,0-.9-3.83,22.5,22.5,0,0,1,.63,3.76c-1.14,4.77-.11,6.07.72,6.4-.24.59-.47,1.17-.68,1.76a21.19,21.19,0,0,0-1.68-4.56,26.74,26.74,0,0,0-1.06-4.2,25,25,0,0,1,.78,4.24C6.59,22.51,8,23.7,9,23.91A65.61,65.61,0,0,0,6.81,32.6h1a64.65,64.65,0,0,1,1.46-6.88C10.13,26.16,12,26.14,14.74,20.93Z"/><path class="cls-3" d="M25.24,22.86a12.71,12.71,0,0,1,2.13.2,13.94,13.94,0,0,0-2.1-.34,9.24,9.24,0,0,0-2.29-.6,18.79,18.79,0,0,1,2.11-.79c.06.27.42.73,2.2.28a6.93,6.93,0,0,1,1.22.2,7.3,7.3,0,0,0-1.27-.28A6,6,0,0,0,26,21.09a19.43,19.43,0,0,1,2.39-.48,19.69,19.69,0,0,0-2.51.36,4.23,4.23,0,0,0,.95-1.55,7.1,7.1,0,0,0,.79-1.16,7.12,7.12,0,0,1-.71.94c-1.85,1-1.53,1.66-1.36,1.84a.79.79,0,0,0-.4.1c-.67.17-1.31.36-1.93.58a8.32,8.32,0,0,0,1.29-2.51,13.46,13.46,0,0,0,1.1-1.82,13.74,13.74,0,0,1-1.23,1.76c-2.62,1.67-2.22,2.58-1.95,2.87a18.41,18.41,0,0,0-1.67.79A11.39,11.39,0,0,0,21.66,20a16,16,0,0,0,1-2.1A13.73,13.73,0,0,1,21.51,20c-2.55,2.06-2.27,3.06-1.93,3.45-.55.34-1.06.7-1.55,1.07a12.79,12.79,0,0,0,.54-2.9A16.44,16.44,0,0,0,19.35,19a15.75,15.75,0,0,1-1,2.57c-2.38,2.5-2.1,3.6-1.69,4A23.66,23.66,0,0,0,14.8,27.5a14.73,14.73,0,0,0,0-3.95c-2.48,3.81-1.57,4.88-1,5.18a24.47,24.47,0,0,0-2.5,3.87h1.2a23.58,23.58,0,0,1,1.38-2.46c.63.27,1.84.11,4.11-2A18.6,18.6,0,0,1,20.88,27a18.93,18.93,0,0,0-2.81.83,16.23,16.23,0,0,0-2.92.47c.42-.54.89-1.09,1.4-1.63.45.42,1.56.64,4.21-1a15.21,15.21,0,0,1,2.63-.41,15.5,15.5,0,0,0-2.7.23,13.48,13.48,0,0,0-2.83-.09c.39-.35.8-.69,1.24-1,.27.46,1.13,1,3.85-.26a15.19,15.19,0,0,1,2.45-.06A12.93,12.93,0,0,0,23,24a10.62,10.62,0,0,0-2.72-.42c.47-.31,1-.61,1.49-.89C22,23.11,22.63,23.72,25.24,22.86Z"/></g></g></g></svg>