<?xml version="1.0"?>
<svg xmlns="http://www.w3.org/2000/svg" id="Layer_1" enable-background="new 0 0 512 512" height="512px" viewBox="0 0 512 512" width="512px"><g><g><path d="m507.607 245.394-66.193-66.194v-93.612c0-8.284-6.716-15-15-15h-93.614l-66.193-66.194c-2.813-2.813-6.628-4.394-10.607-4.394s-7.794 1.581-10.606 4.394l-66.194 66.194h-93.613c-8.284 0-15 6.716-15 15v93.612l-66.193 66.194c-5.858 5.858-5.858 15.355 0 21.213l66.193 66.194v93.612c0 8.284 6.716 15 15 15h93.613l66.193 66.194c2.813 2.813 6.629 4.393 10.607 4.393s7.794-1.581 10.606-4.394l66.193-66.194h93.613c8.284 0 15-6.716 15-15v-93.612l66.193-66.194c5.86-5.857 5.86-15.354.002-21.212zm-284.369-52.369c5.815-5.899 15.313-5.967 21.213-.15 10.249 10.105 17.194 25.311 18.58 40.674.744 8.251-5.342 15.542-13.593 16.287-.457.041-.913.062-1.364.062-7.676 0-14.219-5.861-14.922-13.654-.744-8.254-4.576-16.892-9.764-22.006-5.899-5.816-5.967-15.314-.15-21.213zm-44.983 132.099c-4.106 2.05-9.393 3.146-15.167 3.146-11.221 0-24.289-4.137-34.153-13.457-9.31-8.794-22.625-28.899-7.215-64.738 3.273-7.61 12.095-11.127 19.706-7.854 7.61 3.272 11.127 12.095 7.854 19.705-4.104 9.545-7.539 22.534-.593 30.213 5.043 5.577 13.74 6.748 16.396 6.028 23.945-12.382 14.39-77.103 9.79-108.256-1.104-7.473-2.057-13.927-2.593-19.179-.841-8.242 5.159-15.604 13.4-16.445 8.257-.837 15.604 5.158 16.445 13.4.467 4.582 1.374 10.727 2.425 17.842 6.506 44.055 17.394 117.792-26.295 139.595zm222.554-25.318c-.637 4.483-3.266 8.439-7.152 10.763-6.41 3.833-28.531 16.339-44.083 16.368-.041 0-.083 0-.124 0-17.681 0-41.395-6.856-54.247-39.42-1.299-3.291-2.43-6.693-3.42-10.166-.201.464-.403.924-.606 1.384-13.183 29.722-31.781 49.269-55.279 58.098-1.738.653-3.521.962-5.274.962-6.069 0-11.782-3.71-14.043-9.728-2.914-7.755 1.01-16.403 8.765-19.317 28.177-10.587 46.578-46.585 56.258-110.052 1.088-7.137 7.105-12.486 14.32-12.73 7.222-.265 13.581 4.685 15.149 11.732 1.582 7.104 2.29 16.043 3.109 26.393 1.316 16.609 2.954 37.279 8.926 52.41 7.095 17.975 17.278 20.434 26.321 20.434h.091c2.252-.004 6.351-1.295 11.049-3.234-6.764-6.131-12.713-10.747-15.376-11.697-7.832-2.7-11.99-11.237-9.29-19.069s11.24-11.991 19.071-9.292c14.319 4.937 35.741 27.144 41.966 33.832 3.084 3.314 4.507 7.846 3.869 12.329z" data-original="#000000" class="active-path" data-old_color="#000000" fill="#00AF80"/></g></g> </svg>
