<svg xmlns="http://www.w3.org/2000/svg" viewBox="0 0 32.98 32.98"><defs><style>.cls-1{fill:#f7a035;}.cls-2{fill:#fefefe;}</style></defs><title>Asset 13allergen</title><g id="Layer_2" data-name="Layer 2"><g id="Capa_1" data-name="Capa 1"><path class="cls-1" d="M33,16.46h0A16.49,16.49,0,1,1,16.46,0,16.51,16.51,0,0,1,33,16.46Z"/><path class="cls-2" d="M9.32,12h0a3.59,3.59,0,0,0-1.58,2.68.57.57,0,0,1-.54.49H7.09a.52.52,0,0,1-.38-.22.42.42,0,0,1-.11-.44A4.78,4.78,0,0,1,8.78,11a.69.69,0,0,1,.81.27A.6.6,0,0,1,9.32,12ZM8.89,9.65h0c-2.73.27-4.42,5.45-4.09,8.89s2.78,5.23,5.45,5,4.74-2.56,4.41-6S11.61,9.38,8.89,9.65Z"/><path class="cls-2" d="M27.69,19.08h0a.26.26,0,0,1-.21.11.6.6,0,0,1-.55-.33,3.49,3.49,0,0,0-2.73-1.41.71.71,0,0,1-.54-.55v-.11a.64.64,0,0,1,.65-.54,4.57,4.57,0,0,1,3.6,2.07c.06.05.06.11.11.16A.63.63,0,0,1,27.69,19.08Zm-7.3-4.58h0c-3.44.38-5.23,2.84-4.91,5.56s2.62,4.64,6.05,4.26,8.13-3.22,7.8-5.89S23.77,14.07,20.39,14.5Z"/><path class="cls-2" d="M15.59,9.1h0a4.83,4.83,0,0,1,2.73-3.16h.22a.55.55,0,0,1,.49.38.6.6,0,0,1-.39.77,3.64,3.64,0,0,0-2,2.4.47.47,0,0,1-.49.38H16a.55.55,0,0,1-.32-.27A.56.56,0,0,1,15.59,9.1Zm4.14,4.09h.17a11.92,11.92,0,0,1,2.78.06c.22-3.38-1.31-8.13-3.87-8.51-2.18-.27-4.64,3-5.67,6a15.74,15.74,0,0,1,2.51,4.69A6.85,6.85,0,0,1,19.73,13.19Z"/></g></g></svg>