<svg xmlns="http://www.w3.org/2000/svg" viewBox="0 0 32.98 32.98"><defs><style>.cls-1{fill:#6d4325;}.cls-2{fill:#fefefe;}.cls-3{fill:none;}</style></defs><title>Asset 9allergen</title><g id="Layer_2" data-name="Layer 2"><g id="Capa_1" data-name="Capa 1"><path class="cls-1" d="M33,16.46h0A16.49,16.49,0,1,1,16.46,0,16.51,16.51,0,0,1,33,16.46Z"/><path class="cls-2" d="M14.83,26.88h0a20.72,20.72,0,0,0,2.61.11,21.44,21.44,0,0,0,2.68-.11,2,2,0,0,0,1.36-.71c1.36-1.8,2.23-3,2.23-5.94a12,12,0,0,0-2.61-7.91,3.22,3.22,0,0,1,.32-3.54c.22-.22,1.58-.55,1.69-1.31a.92.92,0,0,0-.21-.76c-1-1.09-3-.22-4.15.16-.76.22-1.52.65-2.23.93a8,8,0,0,1-1.42.49,4.48,4.48,0,0,1-1.53-.17c-.05,0-.1,0-.1-.16a.2.2,0,0,1,0-.16c.16-.06.27-.17.38-.17a8.4,8.4,0,0,1,2.78-.43c.71-.06,1-.11.93-.17A1.86,1.86,0,0,0,17,7c-1.36-.11-4.09.11-4.53.93a1.21,1.21,0,0,0-.11.32,2.05,2.05,0,0,0,.22.87,3.73,3.73,0,0,0,.28.66c-2.51.76-3.55,2.4-3.6,4.91a4.31,4.31,0,0,0,.22,1.69,6.33,6.33,0,0,0,.65,1.8,10.28,10.28,0,0,0,1.09,2v.11c0,2.94.87,4.14,2.24,5.94A1.85,1.85,0,0,0,14.83,26.88Zm.49-17.07h0c.65,0,.27,2.51.22,2.84A12.28,12.28,0,0,1,14.34,15c-.49,1.09-.93,2.24-1.31,3.22,0,.05-.11.11-.22.11a.25.25,0,0,1-.22-.16v-.11a10.72,10.72,0,0,1,.88-3.11,16,16,0,0,0,1.14-2.46c.11-.59-.27-2-.11-2.45C14.56,9.81,15,9.81,15.32,9.81Zm-1.91,1.48h0A2.94,2.94,0,0,1,13.3,13a11.72,11.72,0,0,0-2,5.28,10.43,10.43,0,0,1-.71-1.58c-.82-2.5,0-4.63,2.34-5.61a.24.24,0,0,1,.28,0A.22.22,0,0,1,13.41,11.29Z"/><polyline class="cls-3" points="9.21 6.21 9.21 27.42 24.15 27.42 24.15 6.21"/></g></g></svg>