<svg xmlns="http://www.w3.org/2000/svg" viewBox="0 0 32.93 32.86"><defs><style>.cls-1{fill:#68cee3;}.cls-2{fill:#fefefe;}</style></defs><title>Asset 2allergen</title><g id="Layer_2" data-name="Layer 2"><g id="Capa_1" data-name="Capa 1"><path class="cls-1" d="M32.93,16.43h0A16.47,16.47,0,1,1,16.43,0,16.47,16.47,0,0,1,32.93,16.43Z"/><path class="cls-2" d="M20.47,19.38h0l5.17-7.22.19.18a2.33,2.33,0,0,0,.9.66Zm.78-10.71h0a2.28,2.28,0,0,0,.78.54,1.21,1.21,0,0,0,.48.24l-4,9.57ZM16.43,19.38h0L15.71,7.7a2.92,2.92,0,0,0,.72.06h0a3,3,0,0,0,.73-.06ZM10.35,9.45h0a1.18,1.18,0,0,0,.49-.24,2.28,2.28,0,0,0,.78-.54L14.33,19ZM6.14,13h0a2.33,2.33,0,0,0,.9-.66l.18-.18,5.18,7.22Zm22.45-.24h0a2.25,2.25,0,0,0-1.08-.9,3.25,3.25,0,0,1-.66-.36,4,4,0,0,1-.36-.85A3.78,3.78,0,0,0,25.4,9a3.45,3.45,0,0,0-1.62-.66,4.65,4.65,0,0,1-1.08-.3,4.55,4.55,0,0,1-.91-.73,4.55,4.55,0,0,0-1.92-1.2,4,4,0,0,0-2.23.12,9.59,9.59,0,0,1-1.21.18,7.5,7.5,0,0,1-1.14-.18A4.25,4.25,0,0,0,13,6.14a4.55,4.55,0,0,0-1.92,1.2,4.85,4.85,0,0,1-.91.73,4.12,4.12,0,0,1-1,.3A3.49,3.49,0,0,0,7.46,9a3.68,3.68,0,0,0-1,1.62c-.18.36-.3.67-.42.85a2.15,2.15,0,0,1-.66.36,2.66,2.66,0,0,0-1.09.9,2.37,2.37,0,0,0-.06,1.69,1.49,1.49,0,0,1,.06.48h0a4.39,4.39,0,0,0,1,3.19,15.25,15.25,0,0,0,2.35,2.47v.06c.78.66,1.68,1.5,2.58,2.16.37.3.79.54,1.15.78l-.78,1.27a1.29,1.29,0,0,0-.13,1.32,1.45,1.45,0,0,0,1.27.67h9.51a1.42,1.42,0,0,0,1.26-.67,1.31,1.31,0,0,0-.12-1.32l-.78-1.27c.36-.24.78-.48,1.15-.78a30.69,30.69,0,0,0,2.58-2.16v-.06a15.63,15.63,0,0,0,2.41-2.47,4.6,4.6,0,0,0,.9-3.19h0c0-.12.06-.3.06-.48A2,2,0,0,0,28.59,12.76Z"/></g></g></svg>