<svg xmlns="http://www.w3.org/2000/svg" viewBox="0 0 33.36 33.7"><defs><style>.cls-1{fill:#be9b3a;}.cls-2{fill:#fefefe;}.cls-3{fill:#fff;}</style></defs><title>Asset 6allergen</title><g id="Layer_2" data-name="Layer 2"><g id="Capa_1" data-name="Capa 1"><path class="cls-1" d="M4.84,5h0a16.49,16.49,0,0,1,23.6,0,16.86,16.86,0,0,1,0,23.81,16.61,16.61,0,0,1-23.6,0A17.07,17.07,0,0,1,4.84,5Z"/><polygon class="cls-2" points="14.27 9.75 14.27 9.75 15.81 11.25 13.82 14.26 14.21 14.59 17.13 12.59 18.68 14.14 19.73 13.09 15.31 8.69 14.27 9.75"/><path class="cls-2" d="M21.38,23.55c-2.87-.17-2.54,1.5-6.95.72a27,27,0,0,0-4-.45,5.69,5.69,0,0,0-.83.07,2.65,2.65,0,0,1-.15-1.42.47.47,0,0,1,.2-.31A6.21,6.21,0,0,0,11.06,21c.3-.3.38-.84.24-1.66a3.31,3.31,0,0,0-.12-.42c-.16-.53-.21-.77,0-1a3.32,3.32,0,0,1,.52-.29A2.1,2.1,0,0,0,13,16.19a1.9,1.9,0,0,1,.09-.22.52.52,0,1,0-.82-.65,1.67,1.67,0,0,0-.25.5c-.16.41-.29.71-.67.83a5.09,5.09,0,0,0-.84.45.43.43,0,0,0-.1.09,1.94,1.94,0,0,0-.22,2.07,3.19,3.19,0,0,1,.09.31,1.81,1.81,0,0,1,0,.74,5.56,5.56,0,0,1-1.17.93,1.41,1.41,0,0,0-.71,1,3.6,3.6,0,0,0,.16,1.93c-1.52.58-2.32,1.87-.7,3.35,2,1.83,3.81,1.72,8.22,2.05C22,30,25.29,28.11,26.18,27,27.72,24.94,24.3,23.71,21.38,23.55Z"/><path class="cls-1" d="M21.49,27.94h0a6.05,6.05,0,0,0,2.7-1,1.91,1.91,0,0,0,1-1.78s.94.95-.72,2A3.25,3.25,0,0,1,21.49,27.94Z"/><path class="cls-3" d="M14.93,7.36l6.12,6.12,7.89-8c-.17-.18-.33-.38-.5-.55a16.53,16.53,0,0,0-7-4.24Z"/></g></g></svg>