<svg xmlns="http://www.w3.org/2000/svg" viewBox="0 0 32.98 32.98"><defs><style>.cls-1{fill:#2c3791;}.cls-2{fill:#fefefe;}</style></defs><title>Asset 12allergen</title><g id="Layer_2" data-name="Layer 2"><g id="Capa_1" data-name="Capa 1"><path class="cls-1" d="M33,16.46h0A16.49,16.49,0,1,1,16.46,0,16.51,16.51,0,0,1,33,16.46Z"/><path class="cls-2" d="M11.39,21h0c1.86-1.52,3.44-4.58.49-8.55C14.39,14.23,15.65,19.08,11.39,21Zm-.87-5.56h0a1,1,0,1,1-.93-.92A1,1,0,0,1,10.52,15.48Zm17.83-1.9h0c0-.33-3.06-.66-5,2.12a19,19,0,0,0-6.93-3.54c0-.55,1.58-2.18,1-2.67s-2.56-.39-4.25,2c-2.18.93-5.67.16-8.78,5l1.2,1-1,.49c3.11,4.85,7.19,3.32,9.37,4.25,1.69,2.34,3.11,1.64,3.66,1.31-1.31-1.2-1.58-1-1.58-1.53,1-.27,6.1-1.74,7.25-3.76,2.89,3.93,5,2.4,5,2.07,0,0-2.29-1.63-2.35-3.27C26.06,15.1,28.35,13.58,28.35,13.58Z"/></g></g></svg>