<svg xmlns="http://www.w3.org/2000/svg" viewBox="0 0 32.98 32.99"><defs><style>.cls-1{fill:#a4997c;}.cls-2{fill:#fefefe;}</style></defs><title>Asset 5allergen</title><g id="Layer_2" data-name="Layer 2"><g id="Capa_1" data-name="Capa 1"><path class="cls-1" d="M16.46,33h0A16.5,16.5,0,1,1,33,16.47,16.5,16.5,0,0,1,16.46,33Z"/><path class="cls-2" d="M25.13,13.3h0c-.71-.43-3.11.66-5.51,2.46S16.46,20.23,18,21.59s4.09.27,5.56-2.45c1.31-2.35,2-4.69,1.75-5.56C23.82,15.48,21,18.26,21,18.26a.2.2,0,0,1-.17.06c-.05,0-.1,0-.1-.06s-.06-.16,0-.27S23.6,15.16,25.13,13.3Z"/><path class="cls-2" d="M18.15,9.11h0a7.72,7.72,0,0,0-2.67-2.84c.33,1.14.87,3.11,1.37,4.36,0,.06,0,.17-.11.22h-.06a.12.12,0,0,1-.11-.11,46.85,46.85,0,0,1-1.41-4.52H15.1c-.49.21-.65,2.12-.33,4.19s1.64,3.44,3,2.89S19.3,10.9,18.15,9.11Z"/><path class="cls-2" d="M18.15,25.73h0c-1.52-1.58-3.1-2.61-3.81-2.56,1.2,1.75,2.45,3.76,2.45,3.82s.06.16-.05.22-.06.05-.11.05a.11.11,0,0,1-.11-.11c-.06,0-1.26-2-2.51-3.82-.38.55-.11,2.51.71,4.64.87,2.29,2.67,3.43,4,2.51S19.9,27.42,18.15,25.73Z"/><path class="cls-2" d="M13.41,14.61h0c-1.31-1.2-3.54-.33-4.91,2-1.3,2.13-2,4.2-1.63,4.86a46.51,46.51,0,0,0,3.27-3.33.18.18,0,0,1,.22,0c.11.06.11.16.05.27-.87,1-2.18,2.29-3.21,3.27.76.22,2.72-.6,4.68-2C14.07,18.05,14.77,15.81,13.41,14.61Z"/><path class="cls-2" d="M18.32,1.91h0a6.2,6.2,0,0,0-3.06-.55c.77.55,2,1.47,2.89,2,.06,0,.11.05.06.11a.13.13,0,0,1-.11.11A.06.06,0,0,0,18,3.54a33,33,0,0,1-3-2.07.06.06,0,0,0-.06.06c-.22.38.55,1.63,1.8,2.83s2.73,1.36,3.33.38S19.9,2.51,18.32,1.91Z"/></g></g></svg>