<svg xmlns="http://www.w3.org/2000/svg" viewBox="0 0 32.98 32.98"><defs><style>.cls-1{fill:#00a551;}.cls-2{fill:#fefefe;}</style></defs><title>Asset 10allergen</title><g id="Layer_2" data-name="Layer 2"><g id="Capa_1" data-name="Capa 1"><path class="cls-1" d="M16.46,33h0A16.49,16.49,0,1,1,33,16.46,16.49,16.49,0,0,1,16.46,33Z"/><path class="cls-2" d="M24.31,26.17h0a3,3,0,0,1-.65-.11,4.47,4.47,0,0,1-.66-.38l-.49-.49a4,4,0,0,1-.27-.6,1.17,1.17,0,0,1,0-.6.74.74,0,0,1,.16-.49.84.84,0,0,1,.44-.33,1.06,1.06,0,0,1,.6-.11,3,3,0,0,1,.65.11,2.27,2.27,0,0,1,.6.38,2.58,2.58,0,0,1,.55.49,2.74,2.74,0,0,1,.27.6,1.12,1.12,0,0,1,.05.6.84.84,0,0,1-.16.49,1,1,0,0,1-.44.33A2.07,2.07,0,0,1,24.31,26.17ZM21,27.1h0a2.45,2.45,0,0,1-1.36-.49,3.13,3.13,0,0,1-.87-1.2,2.46,2.46,0,0,1-.06-.66,1.29,1.29,0,0,1,.66-.87,2.39,2.39,0,0,1,.65-.11,2.45,2.45,0,0,1,1.36.49,3.09,3.09,0,0,1,.88,1.2,2.89,2.89,0,0,1,.05.65,1.27,1.27,0,0,1-.22.5,1.57,1.57,0,0,1-.43.38A3,3,0,0,1,21,27.1Zm-3.38,1.2h0a2.34,2.34,0,0,1-1.31-.6,2.44,2.44,0,0,1-.81-1.26,2.36,2.36,0,0,1,0-.65,1,1,0,0,1,.27-.49A.75.75,0,0,1,16.3,25a1.85,1.85,0,0,1,.6-.06,2.29,2.29,0,0,1,1.31.61A2.4,2.4,0,0,1,19,26.77a2.4,2.4,0,0,1,0,.6,1.72,1.72,0,0,1-.28.54.75.75,0,0,1-.49.33A1.85,1.85,0,0,1,17.66,28.3Zm-3.1.38h0a1.22,1.22,0,0,1-.6,0A2,2,0,0,1,12.7,28,2.42,2.42,0,0,1,12,26.66a1.85,1.85,0,0,1,.06-.6.78.78,0,0,1,.32-.49.75.75,0,0,1,.49-.27,1.05,1.05,0,0,1,.61,0,2.15,2.15,0,0,1,1.3.71,2.31,2.31,0,0,1,.66,1.25,2,2,0,0,1-.06.65,1,1,0,0,1-.27.49A1,1,0,0,1,14.56,28.68Zm-4.09-.22h0a2,2,0,0,1-.6-.22,4.47,4.47,0,0,1-.6-.43,3.13,3.13,0,0,1-.38-.6,2.84,2.84,0,0,1-.22-.66,1.12,1.12,0,0,1,.05-.6A.76.76,0,0,1,9,25.52a1.33,1.33,0,0,1,.44-.28,1.22,1.22,0,0,1,.6,0,2.21,2.21,0,0,1,1.2.66,2.26,2.26,0,0,1,.6,1.25,1,1,0,0,1,0,.55,1.14,1.14,0,0,1-.27.49H11.5a1.26,1.26,0,0,1-.43.27Zm17.88-2.24h0a1.6,1.6,0,0,0-.28-.32c-.05-.06-.1-.11-.16-.11s.11.05.16.11a14.83,14.83,0,0,0-1.9-2.13c-2.24-1.85-4.36-1.14-6.76-.33A28.88,28.88,0,0,1,12.32,25a12.15,12.15,0,0,1-4.58-1A4.78,4.78,0,0,1,7,23.5a1.15,1.15,0,0,1,0,.27,2.3,2.3,0,0,1,.06.55A5,5,0,0,0,8,27a4.73,4.73,0,0,0,2.12,1.86,9.22,9.22,0,0,0,4.48.38,26.57,26.57,0,0,0,6.26-1.69,27.76,27.76,0,0,1,4-1.2,7.69,7.69,0,0,1,3.38,0h.44a.62.62,0,0,0-.22-.28C28.4,26.17,28.35,26.17,28.35,26.22Z"/><path class="cls-2" d="M16.85,14h0a6.48,6.48,0,0,0,2.83-3.54c.82-3-2.18-6.49-4.8-7.74-2.12,1.9-4,6.16-2.4,8.77a6.64,6.64,0,0,0,3.93,2.57C16.08,11.67,14.06-4.31,16.85,14Z"/><path class="cls-2" d="M17.61,16.74h0a5.7,5.7,0,0,0,3.76,2c2.78.05,5.23-3.38,5.83-5.94-2.18-1.42-6.32-2.18-8.28-.22a5.38,5.38,0,0,0-1.42,3.82c.44-.22,8.88-3.22,9.16-3.28S20.22,15.7,17.61,16.74Z"/><path class="cls-2" d="M16.25,16.63h0A5.5,5.5,0,0,0,14,13.25a4.65,4.65,0,0,0-3.44-.33,9.35,9.35,0,0,0-4.25,2.56,8.89,8.89,0,0,0,3.22,3.33,4.8,4.8,0,0,0,3.7.76,5.24,5.24,0,0,0,3-2.56C14,16.74,1.91,14.94,16.25,16.63Z"/><path class="cls-2" d="M17.12,16.9h0l.49-.16a3.09,3.09,0,0,0-.11-.38,2,2,0,0,0-.38.16L17,15.21a8.3,8.3,0,0,0-.1-1.2c.21,0-.39.06-.44.06a7,7,0,0,1,.16,1.2v.05l.17,1.36c-.17,0-.28-.05-.49-.05a3.72,3.72,0,0,0-.11.38,3.21,3.21,0,0,1,.71,0,8.42,8.42,0,0,1-1.31,5.78.76.76,0,0,0,.27.11A8.5,8.5,0,0,0,17.12,16.9Z"/></g></g></svg>