<svg xmlns="http://www.w3.org/2000/svg" viewBox="0 0 34.46 32.96"><defs><style>.cls-1{fill:#fa5d0f;}.cls-2{fill:#0d9b50;}</style></defs><title>spicy-icon</title><g id="Capa_2" data-name="Capa 2"><g id="Capa_1-2" data-name="Capa 1"><path class="cls-1" d="M16.18,8.31A8.56,8.56,0,0,1,26.9,4.4c4.39,1.68,6.86,8.24,4,13.63-1.07,2.71-7.27,9.62-14.65,12.55C9.05,34,.7,33.35.09,31.21-.78,29,4.65,25.55,8.5,20.73c4.17-4.6,6.76-10.55,7.68-12.42Z"/><path class="cls-2" d="M30.68,6.73l3.78-4.51L31.82,0,28,4.51l-1-.85a4.54,4.54,0,0,0-6.4.56L32.25,14a4.55,4.55,0,0,0-.56-6.4Z"/></g></g></svg>