<svg xmlns="http://www.w3.org/2000/svg" viewBox="0 0 32.98 32.99"><defs><style>.cls-1{fill:#77144d;}.cls-2{fill:#fefefe;}</style></defs><title>Asset 4allergen</title><g id="Layer_2" data-name="Layer 2"><g id="Capa_1" data-name="Capa 1"><path class="cls-1" d="M16.46,33h0A16.5,16.5,0,1,1,33,16.47,16.5,16.5,0,0,1,16.46,33Z"/><polygon class="cls-2" points="14.01 10.03 14.01 10.03 11.83 10.03 11.83 11.39 14.23 11.39 14.23 12.48 10.52 12.48 10.52 6.6 14.12 6.6 14.12 7.69 11.83 7.69 11.83 8.94 14.01 8.94 14.01 10.03"/><polygon class="cls-2" points="17.12 10.63 17.12 10.63 14.83 10.63 14.83 9.76 17.12 9.76 17.12 10.63"/><path class="cls-2" d="M20.93,12.49h0l-.54-1c-.22-.44-.38-.71-.55-1.09-.11.38-.27.65-.43,1.09l-.49,1H17.39l1.69-3L17.45,6.6H19l.49,1.09c.22.38.33.65.49,1,.11-.38.28-.66.38-1l.5-1.09h1.52L20.72,9.49l1.74,3Z"/><path class="cls-2" d="M15.26,23.77h0v-.11L12,25.57,8.67,23.66a1.28,1.28,0,0,1-.77,1l3.71,2.12v1h.71v-1l3.49-2A1.24,1.24,0,0,1,15.26,23.77Zm-8.45-4.2h0v2.89a1.12,1.12,0,0,1,.6-.16.94.94,0,0,1,.66.22v-3a1.18,1.18,0,0,1-.66.22A1.13,1.13,0,0,1,6.81,19.57Zm1.26,3.76h0v0a.72.72,0,0,0-.66-.44.63.63,0,0,0-.6.33.49.49,0,0,0-.1.38c0,.17,0,.28.1.38a.63.63,0,0,0,.6.33.72.72,0,0,0,.71-.71A.37.37,0,0,0,8.07,23.33Zm16.24.39h0L21,25.57l-3.27-1.91v.11a1.18,1.18,0,0,1-.6,1l3.49,2v1h.76v-1L25,24.75A1.29,1.29,0,0,1,24.31,23.72Zm-7.79-.66h0a.69.69,0,0,0-.71.71.71.71,0,0,0,.6.71h.22a.76.76,0,0,0,.6-.71A.73.73,0,0,0,16.52,23.06ZM8.83,19h0l.38.65,2.95-1.74-.38-.6ZM24.37,23h0v-3.6h-.71v3.22l-2.78,1.58.33.66ZM8.67,18.43h0L12,16.57l3.87,2.24v3.87a1.46,1.46,0,0,1,.66-.16,1.42,1.42,0,0,1,.65.16V18.81L21,16.57,25,18.81v3.71a1.08,1.08,0,0,1,.6-.17,1.43,1.43,0,0,1,.65.17V18.05l-4.8-2.73V14.23h-.76v1.09l-4.14,2.4-4.2-2.45v-1h-.71v1.09l-3.6,2A1.2,1.2,0,0,1,8.67,18.43Zm-1.26.76h0a.69.69,0,0,0,.71-.71.7.7,0,0,0-.71-.76h0a1.09,1.09,0,0,0-.55.33v.05a.85.85,0,0,0-.1.38.84.84,0,0,0,.1.33A.67.67,0,0,0,7.41,19.19ZM17.94,19h0l.32.65,2.95-1.74-.33-.6ZM15.32,23h0v-3.6h-.76v3.22l-2.78,1.58.38.66Zm10.9.38h0a.7.7,0,0,0-.65-.43.62.62,0,0,0-.6.33l-.11.1v.28a.73.73,0,0,0,.71.71.71.71,0,0,0,.65-.44.45.45,0,0,0,.06-.27A.4.4,0,0,0,26.22,23.33Z"/></g></g></svg>