<svg xmlns="http://www.w3.org/2000/svg" viewBox="0 0 36.29 32.96"><defs><style>.cls-1{fill:#4caf50;}.cls-2{fill:#388e3c;}</style></defs><title>veg-icon</title><g id="Capa_2" data-name="Capa 2"><g id="Capa_1-2" data-name="Capa 1"><path class="cls-1" d="M14.59,3.54C11.42.37,5.21,0,.82,0A.82.82,0,0,0,0,.82c0,4.4.37,10.6,3.54,13.77A7.65,7.65,0,0,0,9,16.53a8.22,8.22,0,0,0,5.63-1.94C17,12.23,17.38,6.33,14.59,3.54Z"/><path class="cls-1" d="M35.47,3.26c-4.39,0-10.6.37-13.77,3.54-2.8,2.8-2.36,8.69,0,11.05a8.22,8.22,0,0,0,5.63,1.94,7.73,7.73,0,0,0,5.43-1.94c3.17-3.17,3.53-9.38,3.53-13.77A.82.82,0,0,0,35.47,3.26Z"/><path class="cls-2" d="M17.3,33a.82.82,0,0,1-.82-.82c0-17.48-6.41-21.87-8.82-23.52A6.18,6.18,0,0,1,6.83,8,.83.83,0,0,1,8,6.83a4,4,0,0,0,.59.43c2.14,1.47,7.19,4.92,8.93,16.25A19.77,19.77,0,0,1,28.36,10a.9.9,0,0,1,1.16.36.76.76,0,0,1-.29,1l0,0-.14.06c-9,4.25-10.93,13.55-10.93,20.62A.82.82,0,0,1,17.3,33Z"/></g></g></svg>